<?xml version="1.0" encoding="utf-8"?>
<!-- Svg Vector Icons : http://www.onlinewebfonts.com/icon -->
<!DOCTYPE svg PUBLIC "-//W3C//DTD SVG 1.1//EN" "http://www.w3.org/Graphics/SVG/1.1/DTD/svg11.dtd">
<svg version="1.1" xmlns="http://www.w3.org/2000/svg" xmlns:xlink="http://www.w3.org/1999/xlink" x="0px" y="0px" viewBox="0 0 1000 1000" enable-background="new 0 0 1000 1000" xml:space="preserve">
<metadata> Svg Vector Icons : http://www.onlinewebfonts.com/icon </metadata>
<g><path d="M990,900.9c0,89.1-89.1,89.1-89.1,89.1L646,735.1c-66.1,48-147.2,76.7-235.1,76.7C189.5,811.8,10,632.3,10,410.9C10,189.5,189.5,10,410.9,10c221.4,0,400.9,179.5,400.9,400.9c0,88-28.7,169-76.7,235.1L990,900.9z M410.9,99.1c-172.2,0-311.8,139.6-311.8,311.8s139.6,311.8,311.8,311.8s311.8-139.6,311.8-311.8C722.7,238.7,583.1,99.1,410.9,99.1z"/></g>
</svg>