<svg viewBox="0 0 1716 500" xmlns="http://www.w3.org/2000/svg"><clipPath id="a"><path d="M7.01-8.46h1745.63v509.83H7.01z"/></clipPath><g clip-path="url(#a)" stroke="#000"><path d="M853.24 949.23l420.86-647.94c-126.27-48-269.31-75.06-420.86-75.06s-294.58 27.07-420.85 75.06z" fill="#f4aa4a" stroke-linejoin="round"/><g stroke-miterlimit="10"><path d="M464.12 72.51v216.91l391.92 602.31 391.92-602.31V72.51z" fill="#f9cf1e"/><ellipse cx="692.2" cy="151.64" fill="#fff032" rx="55.86" ry="35.38"/><ellipse cx="660.39" cy="72.7" fill="#fff032" rx="31.65" ry="19.08"/><path d="M1137.63 37.17c-8 7.81-22.09 13-38.15 13-24.94 0-45.15-12.5-45.15-27.93a18 18 0 0 1 .25-2.94A1150.6 1150.6 0 0 0 856.23 2.23C715.15 2.23 582 27.43 464.44 72.1l196 301.73a46.81 46.81 0 0 1 18.47-3.59c17.48 0 31.65 8.54 31.65 19.08 0 9.75-12.11 17.78-27.75 18.94l173.44 267L1248 72.1a1037.91 1037.91 0 0 0-110.37-34.93z" fill="#fff032"/><path d="M683 408.53c-2.81 6.12-7.25 10.07-12.24 10.07-8.48 0-15.35-11.4-15.35-25.46a35.54 35.54 0 0 1 4.49-18" fill="none"/><ellipse cx="765.41" cy="298.95" fill="#f9cf1e" rx="72.75" ry="43.11"/><ellipse cx="1256.64" cy="285.62" fill="#fff032" rx="26.69" ry="22.28"/><path d="M1196.76 150.71c-5.82-18.21-32-23.27-60.51-23.27-32.9 0-59.58 18.13-59.58 40.49s26.68 40.5 59.58 40.5c7 0 16.15.55 22.34-.93 1.87 7.45 6.52 12.1 11.18 13 13.1 2.62 26.06-12.1 28.85-35.37a104.58 104.58 0 0 0-1.86-34.42z" fill="#f9cf1e"/><path d="M463.65 172.88c16.12 3.1 29.08 19.81 30.29 40.68 1.39 23.85-13.1 44.09-32.35 45.2" fill="none"/><path d="M1156.84 367.5c-2.06 22.62-15.42 31.87-27.75 22.62-9.32-7-11.22-22.12-6.36-40.09 4.19-15.45 15-23.06 25.84-18.7 12.9 5.23 9.61 21.47 8.27 36.17z" fill="#f9cf1e"/><ellipse cx="357.4" cy="325.35" fill="#fff032" rx="43.69" ry="23.64"/><ellipse cx="982.08" cy="390.11" fill="#f9cf1e" rx="43.69" ry="23.64"/><ellipse cx="582.91" cy="81.76" fill="#f9cf1e" rx="47.96" ry="25.95"/><path d="M541.63 368.61s-14.41-11.45-5.67-52.27l-34.23-3-18.41 40.92s-4.1 21.51 58.31 14.35z" fill="#f9cf1e"/><path d="M1445.17 247.63a50.42 50.42 0 0 1-22.15 5c-22.86 0-41.39-14.3-41.39-31.95a25.16 25.16 0 0 1 1.25-7.79 1031.73 1031.73 0 0 0-102.88-45.6L859.14 815.23 564.33 360.51a78.75 78.75 0 0 1-12 .91c-24.13 0-43.69-10.59-43.69-23.65 0-9.81 11-18.22 26.77-21.8l-97.13-148.68c-189.2 71.9-340.75 190.77-426.84 335.93C30 511.6 42 525 42 540.16c0 24.53-31.56 44.57-71.32 45.9-24.42 61.73-37.54 127.06-37.54 194.67 0 380.25 414.59 688.5 926 688.5s926-308.25 926-688.5c0-214.92-132.45-406.84-339.97-533.1z" fill="#fff032"/><path d="M365.07 198.77c9.48 5.52 15.39 13.29 15.39 21.91 0 16.74-22.29 30.3-49.79 30.3-16.46 0-31.05-4.86-40.11-12.35" fill="none"/><ellipse cx="1314.81" cy="384.36" fill="none" rx="63.86" ry="38.87"/><ellipse cx="190.7" cy="437.01" fill="#fff032" rx="39.96" ry="24.32"/><ellipse cx="419.46" cy="535.3" fill="none" rx="72.75" ry="47.01"/></g></g></svg>