<svg xmlns="http://www.w3.org/2000/svg" viewBox="0 0 1920 1080"><path fill="none" stroke="#000" stroke-miterlimit="10" d="M782.48 106.7L668.62 12.93m11.28 232.83L517.49 138.59m-371.05 42.48L25.21 103.43m628.34 25.03L527.53 41.48m612.84 70.32l138.97-80.37m-45.2 189.21l212.65-118.88m-123.47 1.59l125.58-72m7.93 194.31l301.4-164.09M596.8 667.16L81.85 840.43m150.28 32.99L92.7 933.16m632.39-151.3l-171.31 83.07m65.81-93.58L380.71 876.27m1264.2-49.85l190.88 75.35m-490.87-161.9l185.61 90.38m-202.21-17.32l213.16 117.38m-330.35-181.9l77.62 42.73m74.32-145.2l498.97 160.75"/><circle cx="331.06" cy="899.06" r="44.59" fill="none" stroke="#000" stroke-miterlimit="10" stroke-width="1.36"/><path d="M323.88 942.55a28.38 28.38 0 0 1 48.8-29" fill="none" stroke="#000" stroke-miterlimit="10" stroke-width="1.36"/><path d="M298.916 904.165l1.339-5.252 5.252 1.34-1.34 5.251zm10.5 2.678l1.339-5.252 5.252 1.338-1.339 5.252z"/><path d="M305.505 900.254l1.338-5.252 5.253 1.338-1.34 5.253zm-2.678 10.5l1.34-5.252 5.251 1.339-1.339 5.252zm34.927-29.651l1.339-5.252 5.252 1.339-1.34 5.252zm10.491 2.675l1.338-5.252 5.252 1.339-1.338 5.252z"/><path d="M344.343 877.191l1.338-5.252 5.252 1.34-1.338 5.251zm-2.678 10.501l1.34-5.252 5.251 1.339-1.339 5.252z"/><path d="M852.24 693.84l-11.81 20.06c-2.67 4.53-5.44 9.5-4.83 14.73s6.44 10 11.09 7.54c3.16-1.69 4.18-5.67 4.74-9.22a136.62 136.62 0 0 0 1.09-33.68m242.33-469.01c-1.75-2.72-5.47-3.67-8.62-2.91s-5.76 2.93-7.93 5.32a35.51 35.51 0 0 0-7.17 12.11v-.09c-.12.3-.23.65-.34 1a35.3 35.3 0 0 0-1.37 5.9l.52-2.12c-.63 3.52-1.12 7.67-1.44 9.81 5.14-8 15.8-10.33 22.84-16.73 3.46-3.09 6.02-8.38 3.51-12.29z" fill="#fff"/><path fill="none" d="M447.87 148.63l-44.78 119.4"/><path d="M722.66 507.35a21.24 21.24 0 0 0 .73-3.88H765v-2.16h-41.48v-.15a22.37 22.37 0 0 0-2.41-10.16l-3.86 2a18 18 0 0 1 2 8.21v.15h-5a1 1 0 0 0-.52-.15 36.18 36.18 0 0 1-6.28-.33 12.64 12.64 0 0 1 1-2.87c3.45-7.19 14.31-18 35.94-39.68l.06-.06a1.06 1.06 0 0 0 .31-.76 1.1 1.1 0 0 0-.31-.77 1.09 1.09 0 0 0-1.53 0c-21.68 21.68-32.56 32.56-39.76 36l-.62.27c-.26-2.15-.42-4.85-.51-8.19a17.65 17.65 0 0 1 5.61 1.2l1.58-4a22.34 22.34 0 0 0-7.28-1.49v-14.95a1.09 1.09 0 1 0-2.17 0v14.95a22.48 22.48 0 0 0-12.79 4.94c-6.82-5.92-16.08-15.18-29.49-28.59l-.08-.08a1.09 1.09 0 0 0-1.53 0 1.11 1.11 0 0 0-.32.77 1.07 1.07 0 0 0 .32.76l.1.11c13.36 13.36 22.6 22.61 28.53 29.42a22.46 22.46 0 0 0-5.86 13.58h-10.49v2.16h10.27a22.45 22.45 0 0 0 4.28 12.7c-5.94 6.61-14.69 15.36-26.86 27.53l-.1.1a1.09 1.09 0 0 0-.32.77 1.07 1.07 0 0 0 .32.76 1 1 0 0 0 .76.32 1.05 1.05 0 0 0 .77-.32l.08-.08c12-12 20.76-20.75 27.35-26.7a23.29 23.29 0 0 0 1.77 1.67l2.79-3.32a16.46 16.46 0 0 1-1.27-1.33 45.09 45.09 0 0 1 9-6.34 16.24 16.24 0 0 1 1.57-.64c.62 2.69.9 6.65 1 12.39a18.23 18.23 0 0 1-5.2-1.16l-1.56 4a22.18 22.18 0 0 0 6.83 1.46v13.55a1.09 1.09 0 0 0 2.17 0v-13.53a22.55 22.55 0 0 0 14.45-6.05c6.5 5.93 15 14.41 26.54 26a1 1 0 0 0 .76.32 1.08 1.08 0 0 0 1.08-1.08 1.08 1.08 0 0 0-.31-.77l-.06-.07c-11.55-11.54-20-20-25.94-26.5a22.28 22.28 0 0 0 4.27-8.12l-4.1-1.16a17.85 17.85 0 0 1-3 6c-3.49-4-5.79-7.21-7.07-9.88-.09-.19-.16-.38-.24-.56l.43-.06H719a17.55 17.55 0 0 1-.54 2.69zm-23.11-22.56a85.38 85.38 0 0 1-.58 8.68 15.25 15.25 0 0 1-2-.78 37.65 37.65 0 0 1-6.73-4.46 18.14 18.14 0 0 1 9.31-3.44zm-12.39 6.3a37.32 37.32 0 0 1 4.56 6.87 12.17 12.17 0 0 1 1 3.06c-1.3.12-2.89.14-4.89.14a1 1 0 0 0-.52.15h-4.52a18.12 18.12 0 0 1 4.37-10.22zm-4.39 12.38H692c-.09.21-.17.41-.27.62a43.92 43.92 0 0 1-6.07 8.7 18.25 18.25 0 0 1-2.89-9.32zM702 521.13a73.61 73.61 0 0 1 .91-11.88l.26.11c2.69 1.29 5.9 3.62 10 7.16a18.26 18.26 0 0 1-11.17 4.61z" fill="#fff"/><path d="M588.29 497.21s-10.79 5.17-16.83 3.88-16-6-21.58-3.88-8.19 9.06-17.26 8.2-13.37-6.05-24.16-3.46l7.76 8.18-8.62 18.47s5.61-3.78 15.1-3.35 22 .87 26.32-5.61 4.75-10.78 14.67-8.63 24.16-6.47 24.6-13.8zm7.71-17.63l-6 5s6-3.83 11.5-4.52a30 30 0 0 1 10.13.72s-5.33-2.81-7.78-3c-2.51-1.18-5.14-.43-7.85 1.8z"/><path d="M508.5 561.86c.79.16 13.66 0 13.66 0l15.16-12.47 1.12 1.12 2.06-1.91a13.36 13.36 0 0 0-.32-1.59c-.16-.48 25.1-14.45 25.1-14.45a45.61 45.61 0 0 0 13.66 8.26l6.36-4.61a9.13 9.13 0 0 0 2.54 2.38l8.9-6.35 12.39 4.92-1.91 5.72s-1.91-.16-2.06.48l-.8 3.17L606 548l-4 12.24 14.27.32-4.58-3.82 1.9-7.15 1.12-.16.79-2.86a6.75 6.75 0 0 0-1.11-1.11l4-10.64a2.81 2.81 0 0 0-1.59-2.38c-1.59-.8-12.39-7.47-12.39-7.47a9.69 9.69 0 0 0-1.27-3.18c-1-1.43-6.2-10.32-6.2-11s4-5.24 4-5.24.15-1.11-1.43-2.7c0 0-9.85-8.9-12.55-9.53s-3.5.63-3.18 1.74a52.13 52.13 0 0 1 .48 6s-10.33 8.26-11.44 9.37-16.52 13.19-16.52 13.19a6.59 6.59 0 0 0-1.11 2.22c-.16 1-20.5 14.94-20.5 14.94l-1.74-.48-2.71 2.22.8 1.75-14.62 11.76zM633 497.92s-5.88 3.34-2.71 8.58l2.07-.16s2.7 1.91 3.81 1.27c0 0 1.75.48 1.91-.95 0 0 2.54.8 2.7-.63l.16-1.43s.79.47 1.59-.64l23.67-1.27s.79-.95-.32-1.11-17.63-.16-17.63-.16-.16-1.59-2.23-1.59-5.56-.32-5.56-.32a5.42 5.42 0 0 0-2.54-1.11h-3.65zm-37.22-39.13l-.86 23.07a11.15 11.15 0 0 1 5.26-2.67 19.92 19.92 0 0 1 4-.77l-7.3-19.88a.59.59 0 0 0-1.1.25z"/><path d="M610.16 497.78l-3.61-8.9c-.18-.44-.22-1-.61-1.33-.38 0-1 .16-1.21-.89a1.4 1.4 0 0 1 .87-1.57c-.09-.52-.47-1.6-.6-2.15a2 2 0 0 0-1-1.37 1.07 1.07 0 0 0-.44-.05h-1.52a2.1 2.1 0 0 0-1.63.63 56.37 56.37 0 0 0-10.64 15.4 1.76 1.76 0 0 0 .71 2.29 14 14 0 0 0 5.55 2.27 19.83 19.83 0 0 0 11 .39 7 7 0 0 0 2.37-1 2.76 2.76 0 0 0 1.26-2 4.27 4.27 0 0 0-.5-1.72z"/><path d="M611.48 482.08s-13.82 3.13-18 3.13-6.06.29-1.09-2.54 15.4-3.54 18.81-2.21.28 1.62.28 1.62zm-43.66 8.06l-1-1.91s-4-1-4.77-1.9a33.24 33.24 0 0 1-2.38-5.09s-1.9-.79-2.06.48c0 0-1.43-1.75-2.07-1.43s.64 5.56.64 5.56l-3.5-4.45s-2.06-.16-2.06.64 3 5.56 3 5.56.95 1.59-.8 1.75-2.86.31-2.86.79 1.27 1.27 2.07 1.59 1.43 1.59 1.9 1.59 3.82-.32 4 .95a1.68 1.68 0 0 0 1.28 1.59 20.07 20.07 0 0 0 3.65.32s5.92-1.75 4.96-6.04z"/><path d="M724.93 501.87c7.93 2.12 112.41-5.68 130.66-32.3 26.61-38.8-17.73-114.18-8.87-144.11 5.15-17.38 26.07.24 26.07.24s9-80.67-13.88-140c-35.47-91.89 6-110.34 6-110.34s22.88-10.38 45.61 8.49c15.66 13 23.8 21.21 39.67 19.09s112.75-64.56 127.17-25.76c0 0-26-3.65-6.72 19.63 17.71 21.42 10.75 68.53-11.37 50.69 0 0-20.6 36.93-6.3 133.65 0 0 21.12-16 31-1.1s-2.92 52.06-8.87 66.91-13.89 53.05 0 67.9c0 0 4.46-16.75 15.86-12.73 18.5 6.51-20.58 23.84 5.2 64.15s64.92 28.9 99.33 35.23-11.75 4.68-11.75 4.68-35.78 3.08-63.91 13.34c-30.32 11-44.44-16.95-32.54-23.32 0 0-16.16 7.77-20.13 26.86s0 38.2 5.95 59.42-2.51 45.12-15.86 38.19c0 0-7 33.75-1 76.18s48.38 120.08 11.09 129.71c-19.91 5.13-9.53 29-7.55 46s18.34 73.35 6.44 90.33c0 0-29.93 21.06-56.58-4.86-8.33-8.1-27.07-19.24-50.95-18.42-46.52 1.59-80.93 22.17-103.1 6.65-14.18-9.93-16.63-26.61 3.32-41.28 12.84-9.45 14.42-49.62 14.42-49.62s-26.62 10.73-28.82-27.72 27.71-87.57 32.15-115.29 5.38-35.27-7.76-51c0 0-27.84 18.7-21.89-17.37s37.68-65.78 25.78-93.36-57.52-31.83-57.52-31.83 7 41.31-10.67 19.51c-14.41-17.74-55.14-31.14-80.93-33.26" fill="#fff"/><path d="M614 560c-51.47-.21-96.36-.06-147.83.3-9.91.07-33.39-.3-35.85 4.47-2.75 5.43 7.35 8.9 17.88 9.6 63.72 4.26 105.1-.76 163.06-9.07 3-.43 7.05-2.79 5-5.3m681.3 1.44c47.83-.22 89.53-.06 137.36.31 9.21.08 31-.31 33.31 4.71 2.57 5.71-6.82 9.36-16.61 10.1-59.21 4.48-97.66-.79-151.52-9.54-2.8-.46-6.55-2.94-4.61-5.58"/><path fill="none" stroke="#000" stroke-miterlimit="10" d="M1369.42 462.84l130.95-203.69 53.75 98.81 157.36-103.41-50.96 163.35 154.36 22.48-161.85 59.95 52.05 115.38-293.7-83.93"/><path fill="#fff" d="M1394.89 479.32l98.78-149.84 24.48 91.42 116.9-49.45-55.98 98.68 61.97 96.14-246.15-85.45"/><path fill="none" stroke="#000" stroke-miterlimit="10" d="M537.61 464.34L371.69 260.55l-16.48 97.41-157.36-103.41L248.8 417.9 97.44 429.89l133.38 64.44-41.52 116.45 301.85-80.5"/><path d="M512.13 485.32c-6-4.5-121-133.36-121-133.36v68.94l-116.85-49.45 51 89.92-71.98 95.91 258.83-69" fill="#fff"/><path fill="#fff" stroke="#000" stroke-miterlimit="10" d="M1576.72 324.58v-32.61l23.71-20.75v28.16l-23.71 25.2z"/><path d="M1681.95 404.61l16.31-14.82 13.34 2.97-11.86 11.85h-17.79zm25.2-44.46l13.34-20.75h14.82l-7.41 14.82-20.75 5.93zM239.67 310.4l4.18 19.54 18.15 8.37-2.79-15.35-19.54-12.56zm-40.48 69.78l-12.56-13.95-18.14-1.4 11.17 12.56 19.53 2.79zM111.97 269.5l-18.84-27.49-27.92-1.39 12.16 22.44 34.6 6.44zm1556.52-57.28l6.52-32.68 25.12-12.25-2.36 25.42-29.28 19.51z"/><path fill="#fff" d="M1816.79 162.55l13.55-30.45 22.06-3.74-2.75 21.58-32.86 12.61z"/><path fill="none" stroke="#000" stroke-miterlimit="10" d="M1727.41 388.56l173.14-45.69m-137.61 239.6l93.12 32.15m-91.56-351.23l94.9-48.85M155.58 534.87L46.95 563.94m89.04-220.64L11.81 282.59"/><path d="M1557.34 383.52l3.16-12.66 14.26-7.92-1.59 14.25-15.83 6.33zm15.76 116.2l12.66-9.5 25.34 3.17-20.59 12.67-17.41-6.34z"/><path d="M1197.8 482.61c2.35-4.07 9.81 3.39 13.88 1s-.12-9.62 4-12 8.27 4.92 12.35 2.57 1.35-12.54 6-12.54 2 10.19 6.06 12.54 8.27-4.92 12.35-2.57-.13 9.63 4 12 11.54-5.1 13.89-1-7.84 6.81-7.84 11.52 8.4 4.7 8.4 9.41-8.4 4.71-8.4 9.41 10.19 7.44 7.84 11.52-9.81-3.38-13.89-1 .12 9.63-4 12-8.28-4.92-12.35-2.57-1.35 12.55-6.06 12.55-2-10.19-6-12.55-8.28 4.92-12.35 2.57.12-9.63-4-12-11.54 5.11-13.89 1 7.83-6.81 7.83-11.51-8.4-4.71-8.4-9.42 9.74-6.38 8.16-10.82c-2.11-5.96-9.94-6.03-7.58-10.11z" fill="#fff"/><path d="M1208.8 487.76c1.56-2.7 8.44 4.18 11.14 2.62s-1.5-8.83 1.2-10.39 6.9 5.71 9.6 4.15.18-10.95 3.3-10.95.6 9.39 3.3 10.95 6.9-5.71 9.6-4.15-1.49 8.83 1.21 10.39 9.57-5.32 11.13-2.62-7.83 5.22-7.83 8.34 8.4 3.12 8.4 6.23-8.4 3.12-8.4 6.24 9.39 5.64 7.83 8.34-8.43-4.18-11.13-2.62 1.5 8.83-1.2 10.39-6.9-5.71-9.61-4.15-.18 11-3.3 11-.6-9.39-3.3-11-6.9 5.71-9.6 4.15 1.5-8.83-1.2-10.39-9.58 5.32-11.14 2.62 7.84-5.22 7.84-8.34-8.4-3.12-8.4-6.23 9.3-5.07 8-7.93c-1.87-4.36-9-3.95-7.44-6.65z" fill="#fff339"/><path d="M1323.1 499.79s9.2 3.68 13.83 1.82 11.9-7.35 16.62-5.93 7.65 7.58 14.72 5.8 9.85-7.07 18.73-5.81c0 0 4.47 2.59 5.89 13.12s-2 15.87-2 15.87-4.8-7.14-12.28-5.72-17.34 3.16-21.58-2.42-5.12-9.55-12.72-6.48-19.95-3.45-21.21-10.25z"/><path d="M1403.23 562.36c3.66 2.95-13.7 0-13.7 0l-18.3-12.17-1.13 1.13-2.1-1.94a13.84 13.84 0 0 1 .32-1.61c.17-.48-25.46-14.67-25.46-14.67a46.09 46.09 0 0 1-13.87 8.39l-6.44-4.68a9.42 9.42 0 0 1-2.58 2.42l-9-6.45-12.57 5 1.93 5.8s1.94-.16 2.1.48l.8 3.23-1.61 1.45 4 13.1h-13.38l3.55-3.55-1.94-7.94-1.12-.16-.81-2.9a6.6 6.6 0 0 1 1.13-1.13l-4-10.8a2.87 2.87 0 0 1 1.61-2.42c1.61-.8 12.57-7.57 12.57-7.57a10 10 0 0 1 1.29-3.23c1-1.45 6.29-10.48 6.29-11.12s-4-5.32-4-5.32-.16-1.13 1.45-2.74c0 0 10-9 12.73-9.67s3.55.64 3.23 1.77a54 54 0 0 0-.49 6.13s10.48 8.38 11.61 9.51 16.66 13.38 16.66 13.38a6.84 6.84 0 0 1 1.13 2.25c.16 1 20.8 15.16 20.8 15.16l1.77-.49 2.74 2.26-.81 1.77 13 9.18zm-144.52-57.1s.17-1.61 2.26-1.61 5.64-.33 5.64-.33a5.51 5.51 0 0 1 2.58-1.12h3.71l1.29-.49s9.54 2.94 2.74 8.71l-2.1-.17s-2.74 1.94-3.87 1.29c0 0-1.77.49-1.93-1 0 0-2.58.8-2.74-.65l-.16-1.45s-.81.49-1.61-.64m76.25-21.33l1-1.94s4-1 4.83-1.93a32.87 32.87 0 0 0 2.42-5.16s1.93-.8 2.1.49c0 0 1.45-1.78 2.09-1.46s-.64 5.65-.64 5.65l3.54-4.52s2.1-.16 2.1.65-3.06 5.64-3.06 5.64-1 1.61.8 1.77 2.9.33 2.9.81-1.29 1.29-2.09 1.61-1.45 1.61-1.94 1.61-3.87-.32-4 1a1.7 1.7 0 0 1-1.29 1.61 20.63 20.63 0 0 1-3.7.32s-6.03-1.8-5.06-6.15z"/><path d="M1316.27 483.75h.52l-3.14-3.25c-.77-1.94-.29-8.72.25-8a15.37 15.37 0 0 0 2.15 1.94 22.55 22.55 0 0 0-.5-4.73c-2.79-3.52-7.35.27-7.35.27L1301 481l-3.29 1.87-.49.28h.31c-.17.08-.27.16-.26.24 0 .61 4.44 1.26 9.88 1.46s9.83-.13 9.81-.73c-.04-.12-.27-.23-.69-.37z" stroke="#000" stroke-linejoin="round" stroke-width=".34"/><path d="M1308.86 483.42l-2.4-.05-2.28-2.06-2.89-.21 1.45 1.86-3 2.92a10.76 10.76 0 0 0-2.92 7.11c-.12 5.34 3.54 9.27 7.66 9.61h.44l1.19.05a9.16 9.16 0 0 0 4.9-1.17c2.87-1.55 4.22-4.12 4.31-8.12.11-5.36-2.32-9.76-6.46-9.94z"/><path d="M1301 481a37.08 37.08 0 0 1 12.68-.52" fill="none" stroke="#000" stroke-linejoin="round" stroke-width=".34"/><path d="M1273.27 504.53l.66-1.14 2.29.76a3.39 3.39 0 0 1 .15 1.15v.22a3.52 3.52 0 0 1-.16 1.15l-2.31.82-.64-1.12z"/><path d="M1276.25 506.71l-2.37.84-.67-1.17v-1.87l.69-1.19 2.35.79a3.19 3.19 0 0 1 .15 1.16v.22a3.37 3.37 0 0 1-.17 1.17zm-2.32.72l2.24-.8a4.15 4.15 0 0 0 .15-1.11v-.22a3.9 3.9 0 0 0-.14-1.11l-2.23-.74-.62 1.09v1.81z"/><path d="M1271.6 506.43h1.52c.23 0 .42-.36.42-.59v-.77c0-.23-.19-.58-.42-.58h-1.53"/><path d="M1273.42 506.29a.42.42 0 0 1-.3.18h-1.52v-.11h1.51c.21 0 .38-.33.38-.53v-.77a.64.64 0 0 0-.18-.44.28.28 0 0 0-.18-.09h-1.53v-.1h1.53a.35.35 0 0 1 .25.12.76.76 0 0 1 .22.51v.77a.79.79 0 0 1-.18.46z"/><path d="M1235 502.59a3.25 3.25 0 0 0-3.19 3.43 3.12 3.12 0 0 0 2.9 2.94 3.26 3.26 0 0 0 3.16-1.92l33.33-.3c.31 0 .56-.46.56-.77v-1c0-.31-.24-.76-.54-.76l-33.3.3a3.1 3.1 0 0 0-2.92-1.92z"/><path d="M1271.57 506.57a.53.53 0 0 1-.39.22l-33.3.3a3.33 3.33 0 0 1-3.19 1.92 3.17 3.17 0 0 1-3-3 3.32 3.32 0 0 1 3.24-3.49 3.14 3.14 0 0 1 3 1.93l33.27-.3a.45.45 0 0 1 .32.15 1 1 0 0 1 .28.66v1a1.08 1.08 0 0 1-.23.61zm-33.76.42l33.34-.3c.27 0 .5-.44.51-.72v-1a.92.92 0 0 0-.24-.59.42.42 0 0 0-.25-.12l-33.34.3a3.06 3.06 0 0 0-2.87-1.9 3.12 3.12 0 0 0-2.28 1 3.17 3.17 0 0 0-.86 2.36 3.05 3.05 0 0 0 2.86 2.88 3.19 3.19 0 0 0 3.1-1.88zm-1.71-2.22l1.75 2.27"/><path d="M1237.89 507.07a.05.05 0 0 1-.08 0l-1.74-2.27a.06.06 0 0 1 0-.07h.07l1.75 2.27a.06.06 0 0 1 0 .07z"/><path d="M1235 507.32a1.49 1.49 0 0 1-1.1-.44 1.57 1.57 0 0 1-.45-1.11 1.6 1.6 0 0 1 1.57-1.58 1.51 1.51 0 0 1 1.17.52v.07h-.07a1.45 1.45 0 0 0-1.09-.49 1.51 1.51 0 0 0-1.47 1.49 1.44 1.44 0 0 0 .43 1 1.42 1.42 0 0 0 1 .41v.05l.01.08zm38.94.2h-.07a.06.06 0 0 1 0-.07 2.86 2.86 0 0 0 .52-1.61V505a2.84 2.84 0 0 0-.5-1.6v-.07h.07a2.83 2.83 0 0 1 .52 1.67v.83a2.78 2.78 0 0 1-.54 1.67zm-4.05-.92a.06.06 0 0 1-.07 0l-.2-.4a.07.07 0 0 1 0-.07.05.05 0 0 1 .07 0l.2.39a.06.06 0 0 1 0 .08z"/><path d="M847.08 252.83a88.24 88.24 0 0 0-5.34-24.5c-4.32-11.63-12.21-23.62-26.84-28.89-5.88-2.12-13.88-2.68-18.16 1-4.64 4-1.84 10.45 3.38 14s12.2 5.29 18.11 8.19c13.14 6.44 19.87 17.9 25.3 28.87" fill="#fff"/><path fill="#fff339" stroke="#000" stroke-miterlimit="10" d="M1730.2 519.75h20.93l8.38 12.55-16.75 1.4-12.56-13.95z"/><path fill="#fff" stroke="#000" stroke-miterlimit="10" d="M1658.35 638.1l32.15 2.21 19.95 19.96-26.6-1.11-25.5-21.06z"/><path d="M999.6 65.58a173.62 173.62 0 0 0 24.93-10.46c2.45-1.25 5.07-2.76 6.58-5.62 2.74-5.21-.23-11.73-4.49-13s-9.08.91-13.59 3c-1.55.7-3.27 1.38-4.6.58a6.29 6.29 0 0 1-1.8-2.15 25.16 25.16 0 0 0-15.09-11.29 4.81 4.81 0 0 0-3.57.18c-2.51 1.35-3.36 5.75-2.45 8.62s3 4.7 4.68 6.79c4.68 5.65 7.27 14 7.11 22.9m-228.18 437.7c8.48.41 32.62-11 37.82-17.73 3.58-4.64 5.6-10.41 9.64-14.65a16.59 16.59 0 0 1 12.68-5.39c4.73.3 9.34 3.45 10.74 8 2.35 7.64-4.51 15-11.43 19-12.79 7.43-20.42 17.36-35.07 15.22" fill="#fff"/><path fill="#fff" stroke="#000" stroke-miterlimit="10" stroke-width=".98" d="M244.22 648.75h-46.47l-20.98 25.66 35.97-2.85 31.48-22.81z"/><path fill="#fff" stroke="#000" stroke-miterlimit="10" d="M317.29 492.81l-22.48-7.49-28.47 11.99 28.47 6 22.48-10.5zm-36.31-259.59l-8.07-28.91-27.21-18.43 6.61 29.24 28.67 18.1z"/><path fill="none" stroke="#000" stroke-miterlimit="10" d="M520.33 224.3L196 19.71"/><path fill="#fff" d="M129.1 102.73l-11.39-29.91-25.64-2.85 11.4 19.94 25.63 12.82z"/><path d="M95.55 491.61l-17.68-9.52-17.67 10.88 19.03 6.79 16.32-8.15z"/><path fill="none" stroke="#000" stroke-miterlimit="10" d="M677.01 938.11l67.98-49.22m473.46 39.84l-63.29-56.25"/></svg>