<svg width="4136" height="920" xmlns="http://www.w3.org/2000/svg" xmlns:xlink="http://www.w3.org/1999/xlink"><defs><path id="a" d="M744 69.5L626.6.6l11.7 106.5-155.2-86.3L497.6 99 359.2 64.9l26.7 95.6L242.8 74l30.7 69.4-90.2-23.8 24 35.5-91.5-11.7 67.1 63.6-77.3-7.4 26.2 43.4-87-11 24.5 35.1L0 260.2l20.3 35.3 747.7-4z"/><path id="c" d="M24.2 69.5L141.5.6l-11.6 106.5L285 20.8 270.5 99l130.8-39.5-19.4 85.5 143.5-71-30.8 69.4 90.2-23.8-23.9 35.5 91.5-11.7-67.2 63.6 77.3-7.4-26.1 43.4 86.9-11-24.4 35.1 69.2-6.9-20.2 35.3-747.8-4z"/><path d="M56.3 435.6l1079-.8V50.9a27.6 27.6 0 0 0-9.1-20.5c-14.4-13-42.7-34.5-61.4-23.4-10.4 6.2-9.4 18.9 2.6 37.5-37.7-23.6-84.7-49-104.5-43.3C933 9.8 989.2 81.7 992.3 87c-5.5-1.2-92-45.5-138.8-39.5-51.2 6.6 5.1 95.6 36.7 120-25.4-16.7-59.7-27.5-80.2-13.1-14.3 10.1 10.9 35.4 21.9 48.6-19.2-8.9-33.5-25.4-54.7-25.4-36.1 0-73.4 19.8-73.4 55.3 0 17.7 9.3 36.3 25.7 51.1-36-27-177.9-62.5-198.2-34.5-17.2 23.8 69 69.6 90.2 91.2-18.8-10.4-48.8-19-75.2-19-29.1 0-53.7 10.5-53.7 41 0 9.5 2 20.1 7.9 28.2-38.3-21.8-80.4-40.4-127.1-40.4-23.9 0-63 6.5-63 25.6 0 6.4 4.6 13.8 15.6 22.3-15.5-5.6-74.6-19.2-95.7-19.2-37.6 0-30.5 35.3-27.5 39.3 0 0-92.7-29.2-110.3-20.2-12.8 6.5-6.7 24.5-6.7 24.5s-52-7.2-85.5 12.8h56z" id="e"/><path d="M1080.9 435.6l-1080-.8V83.9L.4 51.2c-.1-8 4.3-15.7 10.2-21C25.3 17.3 53.7-4.1 72.4 7c10.3 6.2 9.3 18.9-2.7 37.5 37.7-23.6 84.7-49 104.5-43.3 29.9 8.6-26.3 80.5-29.3 85.8 5.4-1.2 92-45.5 138.7-39.5 51.2 6.6-5.1 95.6-36.7 120 25.5-16.7 59.7-27.5 80.2-13.1 14.3 10.1-10.9 35.4-21.9 48.6 19.2-8.9 33.5-25.4 54.8-25.4 36 0 73.3 19.8 73.3 55.3 0 17.7-9.3 36.3-25.7 51.1 36-27 177.9-62.5 198.2-34.5 17.2 23.8-68.9 69.6-90.2 91.2 18.8-10.4 48.8-19 75.2-19 29.1 0 53.7 10.5 53.7 41 0 9.5-2 20.1-7.9 28.2 38.4-21.8 80.4-40.4 127.2-40.4 23.8 0 62.9 6.5 62.9 25.6 0 6.4-4.6 13.8-15.6 22.3 15.5-5.6 74.7-19.2 95.8-19.2 37.5 0 30.5 35.3 27.5 39.3 0 0 92.6-29.2 110.2-20.2 12.8 6.5 6.8 24.5 6.8 24.5s52-7.2 85.5 12.8h-56z" id="g"/></defs><g fill="none" fill-rule="evenodd"><path fill="#FFF032" fill-rule="nonzero" d="M0 469.6h4135.1v450H0z"/><path stroke="#000" fill="#FFF032" fill-rule="nonzero" d="M1132.5 448.8l-126.2 17 37.3-22.6-37.3-49.3 63.3 3.8-56-45.5 111.3 18.8-57.3-50.2 94.6 16.5-123.9-96.1 148 20.4-37.8-51.6 80.5 25.3-56.5-131.8 177.5 92.8-30.4-66.3 162 47.7-53.9-135.9 197.9 135.9-18-111.4 152.9 80.5-12-87.7 89.9 23.1-23.4-57.6 128.6 77.5 3.8 356.4z"/><path stroke="#000" fill="#FFF032" fill-rule="nonzero" d="M1606.6 148.7l-33.7-32.3-12.3-37.8 32.5 23.4zM1761.8 30.2l-10.2-3.2-7.3-22 20.2 14.3zM1258.5 66.7l-10.2-3.2-7.4-22 20.2 14.3zM1058 289l-28.1-8.7-18.3-24 30.5 10.4zM1210.1 212.7l-28.2-8.7-18.3-24 30.6 10.4zM1011.5 365.1l-21.5-6.7-14-18.3 23.4 7.9zM3002.6 448.8l126.3 17-37.4-22.6 37.4-49.3-63.4 3.8 56-45.5-111.3 18.8 57.3-50.2-94.6 16.5 123.9-96.1-148 20.4 37.8-51.6-80.5 25.3 56.5-131.8-177.5 92.8 30.4-66.3-162 47.7 54-135.9-198 135.9 18-111.4-152.9 80.5 12-87.7-99.9 23.1 23.4-57.6-118.6 77.5-3.7 356.4z"/><path stroke="#000" fill="#FFF032" fill-rule="nonzero" d="M2537.8 138.8l33.7-32.4 12.2-37.8-32.4 23.5zM2207.2 26.4l10.3-3.2 7.3-21.9-20.2 14.3zM2763.2 103.7l10.2-3.2 7.4-21.9-20.2 14.3zM3077.1 289l28.1-8.7 18.3-24-30.5 10.4zM2968 194.5l28.1-8.8 18.3-24-30.5 10.4zM2465.4 73.5l25-15.5 11.7-27.8-26.9 17.7zM3123.6 365.1l21.5-6.7 14-18.3-23.3 7.9z"/><path fill="#FFF" fill-rule="nonzero" d="M1802 222.5l-117.4-68.9 11.7 106.5-155.2-86.3 14.5 78.2-138.4-34.1 26.7 95.6-143.1-86.5 30.7 69.4-90.2-23.8 24 35.5-91.5-11.7 67.1 63.6-77.3-7.4 26.2 43.4-87-11 24.5 35.1-69.3-6.9 20.3 35.3 747.7-4z"/><g transform="translate(1058 153)"><mask id="b" fill="#fff"><use xlink:href="#a"/></mask><g mask="url(#b)" fill="#FFF" fill-rule="nonzero" stroke="#000" stroke-width=".65"><path d="M-15.1 102.2h42.8v42.78h-42.8zM27.7 102.2h42.8v42.78H27.7zM70.5 102.2h42.8v42.78H70.5z"/><path d="M113.2 102.2H156v42.78h-42.8zM156 102.2h42.8v42.78H156zM198.8 102.2h42.8v42.78h-42.8z"/><path d="M241.6 102.2h42.8v42.78h-42.8z"/><path d="M284.3 102.2h42.8v42.78h-42.8zM327.1 102.2h42.8v42.78h-42.8z"/><path d="M369.9 102.2h42.8v42.78h-42.8zM412.7 102.2h42.8v42.78h-42.8zM455.5 102.2h42.8v42.78h-42.8z"/><path d="M498.2 102.2H541v42.78h-42.8zM541 102.2h42.8v42.78H541zM583.8 102.2h42.8v42.78h-42.8zM626.6 102.2h42.8v42.78h-42.8zM669.4 102.2h42.8v42.78h-42.8z"/><path d="M712.1 102.2h42.8v42.78h-42.8zM754.9 102.2h42.8v42.78h-42.8zM-15.1 145h42.8v42.78h-42.8zM27.7 145h42.8v42.78H27.7zM70.5 145h42.8v42.78H70.5z"/><path d="M113.2 145H156v42.78h-42.8zM156 145h42.8v42.78H156zM198.8 145h42.8v42.78h-42.8z"/><path d="M241.6 145h42.8v42.78h-42.8z"/><path d="M284.3 145h42.8v42.78h-42.8zM327.1 145h42.8v42.78h-42.8z"/><path d="M369.9 145h42.8v42.78h-42.8zM412.7 145h42.8v42.78h-42.8zM455.5 145h42.8v42.78h-42.8z"/><path d="M498.2 145H541v42.78h-42.8zM541 145h42.8v42.78H541zM583.8 145h42.8v42.78h-42.8zM626.6 145h42.8v42.78h-42.8zM669.4 145h42.8v42.78h-42.8z"/><path d="M712.1 145h42.8v42.78h-42.8zM754.9 145h42.8v42.78h-42.8zM-15.1 187.8h42.8v42.78h-42.8zM27.7 187.8h42.8v42.78H27.7zM70.5 187.8h42.8v42.78H70.5z"/><path d="M113.2 187.8H156v42.78h-42.8zM156 187.8h42.8v42.78H156zM198.8 187.8h42.8v42.78h-42.8z"/><path d="M241.6 187.8h42.8v42.78h-42.8z"/><path d="M284.3 187.8h42.8v42.78h-42.8zM327.1 187.8h42.8v42.78h-42.8z"/><path d="M369.9 187.8h42.8v42.78h-42.8zM412.7 187.8h42.8v42.78h-42.8zM455.5 187.8h42.8v42.78h-42.8z"/><path d="M498.2 187.8H541v42.78h-42.8zM541 187.8h42.8v42.78H541zM583.8 187.8h42.8v42.78h-42.8zM626.6 187.8h42.8v42.78h-42.8zM669.4 187.8h42.8v42.78h-42.8z"/><path d="M712.1 187.8h42.8v42.78h-42.8zM754.9 187.8h42.8v42.78h-42.8zM-15.1 230.6h42.8v42.78h-42.8zM27.7 230.6h42.8v42.78H27.7zM70.5 230.6h42.8v42.78H70.5z"/><path d="M113.2 230.6H156v42.78h-42.8zM156 230.6h42.8v42.78H156zM198.8 230.6h42.8v42.78h-42.8z"/><path d="M241.6 230.6h42.8v42.78h-42.8z"/><path d="M284.3 230.6h42.8v42.78h-42.8zM327.1 230.6h42.8v42.78h-42.8z"/><path d="M369.9 230.6h42.8v42.78h-42.8zM412.7 230.6h42.8v42.78h-42.8zM455.5 230.6h42.8v42.78h-42.8z"/><path d="M498.2 230.6H541v42.78h-42.8zM541 230.6h42.8v42.78H541zM583.8 230.6h42.8v42.78h-42.8zM626.6 230.6h42.8v42.78h-42.8zM669.4 230.6h42.8v42.78h-42.8z"/><path d="M712.1 230.6h42.8v42.78h-42.8zM754.9 230.6h42.8v42.78h-42.8zM-15.1 273.4h42.8v42.78h-42.8zM27.7 273.4h42.8v42.78H27.7zM70.5 273.4h42.8v42.78H70.5z"/><path d="M113.2 273.4H156v42.78h-42.8zM156 273.4h42.8v42.78H156zM198.8 273.4h42.8v42.78h-42.8z"/><path d="M241.6 273.4h42.8v42.78h-42.8z"/><path d="M284.3 273.4h42.8v42.78h-42.8zM327.1 273.4h42.8v42.78h-42.8z"/><path d="M369.9 273.4h42.8v42.78h-42.8zM412.7 273.4h42.8v42.78h-42.8zM455.5 273.4h42.8v42.78h-42.8z"/><path d="M498.2 273.4H541v42.78h-42.8zM541 273.4h42.8v42.78H541zM583.8 273.4h42.8v42.78h-42.8zM626.6 273.4h42.8v42.78h-42.8zM669.4 273.4h42.8v42.78h-42.8z"/><path d="M712.1 273.4h42.8v42.78h-42.8zM754.9 273.4h42.8v42.78h-42.8zM-15.1-111.1h42.8v42.78h-42.8zM27.7-111.1h42.8v42.78H27.7zM70.5-111.1h42.8v42.78H70.5z"/><path d="M113.2-111.1H156v42.78h-42.8zM156-111.1h42.8v42.78H156zM198.8-111.1h42.8v42.78h-42.8z"/><path d="M241.6-111.1h42.8v42.78h-42.8z"/><path d="M284.3-111.1h42.8v42.78h-42.8zM327.1-111.1h42.8v42.78h-42.8z"/><path d="M369.9-111.1h42.8v42.78h-42.8zM412.7-111.1h42.8v42.78h-42.8zM455.5-111.1h42.8v42.78h-42.8z"/><path d="M498.2-111.1H541v42.78h-42.8zM541-111.1h42.8v42.78H541zM583.8-111.1h42.8v42.78h-42.8zM626.6-111.1h42.8v42.78h-42.8zM669.4-111.1h42.8v42.78h-42.8z"/><path d="M712.1-111.1h42.8v42.78h-42.8zM754.9-111.1h42.8v42.78h-42.8zM-15.1-68.3h42.8v42.78h-42.8zM27.7-68.3h42.8v42.78H27.7zM70.5-68.3h42.8v42.78H70.5z"/><path d="M113.2-68.3H156v42.78h-42.8zM156-68.3h42.8v42.78H156zM198.8-68.3h42.8v42.78h-42.8z"/><path d="M241.6-68.3h42.8v42.78h-42.8z"/><path d="M284.3-68.3h42.8v42.78h-42.8zM327.1-68.3h42.8v42.78h-42.8z"/><path d="M369.9-68.3h42.8v42.78h-42.8zM412.7-68.3h42.8v42.78h-42.8zM455.5-68.3h42.8v42.78h-42.8z"/><path d="M498.2-68.3H541v42.78h-42.8zM541-68.3h42.8v42.78H541zM583.8-68.3h42.8v42.78h-42.8zM626.6-68.3h42.8v42.78h-42.8zM669.4-68.3h42.8v42.78h-42.8z"/><path d="M712.1-68.3h42.8v42.78h-42.8zM754.9-68.3h42.8v42.78h-42.8zM-15.1-25.5h42.8v42.78h-42.8zM27.7-25.5h42.8v42.78H27.7zM70.5-25.5h42.8v42.78H70.5z"/><path d="M113.2-25.5H156v42.78h-42.8zM156-25.5h42.8v42.78H156zM198.8-25.5h42.8v42.78h-42.8z"/><path d="M241.6-25.5h42.8v42.78h-42.8z"/><path d="M284.3-25.5h42.8v42.78h-42.8zM327.1-25.5h42.8v42.78h-42.8z"/><path d="M369.9-25.5h42.8v42.78h-42.8zM412.7-25.5h42.8v42.78h-42.8zM455.5-25.5h42.8v42.78h-42.8z"/><path d="M498.2-25.5H541v42.78h-42.8zM541-25.5h42.8v42.78H541zM583.8-25.5h42.8v42.78h-42.8zM626.6-25.5h42.8v42.78h-42.8zM669.4-25.5h42.8v42.78h-42.8z"/><path d="M712.1-25.5h42.8v42.78h-42.8zM754.9-25.5h42.8v42.78h-42.8zM-15.1 17.3h42.8v42.78h-42.8zM27.7 17.3h42.8v42.78H27.7zM70.5 17.3h42.8v42.78H70.5z"/><path d="M113.2 17.3H156v42.78h-42.8zM156 17.3h42.8v42.78H156zM198.8 17.3h42.8v42.78h-42.8z"/><path d="M241.6 17.3h42.8v42.78h-42.8z"/><path d="M284.3 17.3h42.8v42.78h-42.8zM327.1 17.3h42.8v42.78h-42.8z"/><path d="M369.9 17.3h42.8v42.78h-42.8zM412.7 17.3h42.8v42.78h-42.8zM455.5 17.3h42.8v42.78h-42.8z"/><path d="M498.2 17.3H541v42.78h-42.8zM541 17.3h42.8v42.78H541zM583.8 17.3h42.8v42.78h-42.8zM626.6 17.3h42.8v42.78h-42.8zM669.4 17.3h42.8v42.78h-42.8z"/><path d="M712.1 17.3h42.8v42.78h-42.8zM754.9 17.3h42.8v42.78h-42.8zM-15.1 60.1h42.8v42.78h-42.8zM27.7 60.1h42.8v42.78H27.7zM70.5 60.1h42.8v42.78H70.5z"/><path d="M113.2 60.1H156v42.78h-42.8zM156 60.1h42.8v42.78H156zM198.8 60.1h42.8v42.78h-42.8z"/><path d="M241.6 60.1h42.8v42.78h-42.8z"/><path d="M284.3 60.1h42.8v42.78h-42.8zM327.1 60.1h42.8v42.78h-42.8z"/><path d="M369.9 60.1h42.8v42.78h-42.8zM412.7 60.1h42.8v42.78h-42.8zM455.5 60.1h42.8v42.78h-42.8z"/><path d="M498.2 60.1H541v42.78h-42.8zM541 60.1h42.8v42.78H541zM583.8 60.1h42.8v42.78h-42.8zM626.6 60.1h42.8v42.78h-42.8zM669.4 60.1h42.8v42.78h-42.8z"/><path d="M712.1 60.1h42.8v42.78h-42.8zM754.9 60.1h42.8v42.78h-42.8z"/></g></g><path stroke="#000" d="M1802 222.5l-117.4-68.9 11.7 106.5-155.2-86.3 14.5 78.2-138.4-34.1 26.7 95.6-143.1-86.5 30.7 69.4-90.2-23.8 24 35.5-91.5-11.7 67.1 63.6-77.3-7.4 26.2 43.4-87-11 24.5 35.1-69.3-6.9 20.3 35.3 747.7-4z"/><path fill="#FFF" fill-rule="nonzero" d="M2333.2 222.5l117.3-68.9-11.6 106.5 155.1-86.3-14.5 78.2 130.8-39.5-19.4 85.5 143.5-71-30.8 69.4 90.2-23.8-23.9 35.5 91.5-11.7-67.2 63.6 77.3-7.4-26.1 43.4 86.9-11-24.4 35.1 69.2-6.9-20.2 35.3-747.8-4z"/><g transform="translate(2309 153)"><mask id="d" fill="#fff"><use xlink:href="#c"/></mask><g mask="url(#d)" fill="#FFF" fill-rule="nonzero" stroke="#000" stroke-width=".65"><path d="M783.3 145.1h-42.8v-42.78h42.8zM740.4 145.1h-42.8v-42.78h42.8zM697.6 145.1h-42.8v-42.78h42.8z"/><path d="M654.9 145.1h-42.8v-42.78h42.8zM612.1 145.1h-42.8v-42.78h42.8z"/><path d="M569.4 145.1h-42.8v-42.78h42.8zM526.5 145.1h-42.8v-42.78h42.8z"/><path d="M483.8 145.1H441v-42.78h42.8zM441 145.1h-42.8v-42.78H441zM398.2 145.1h-42.8v-42.78h42.8zM355.4 145.1h-42.8v-42.78h42.8z"/><path d="M312.6 145.1h-42.8v-42.78h42.8z"/><path d="M269.9 145.1h-42.8v-42.78h42.8z"/><path d="M227.1 145.1h-42.8v-42.78h42.8zM184.3 145.1h-42.8v-42.78h42.8zM141.5 145.1H98.7v-42.78h42.8zM98.7 145.1H55.9v-42.78h42.8z"/><path d="M56 145.1H13.2v-42.78H56zM13.2 145.1h-42.8v-42.78h42.8zM783.3 187.8h-42.8v-42.78h42.8zM740.4 187.8h-42.8v-42.78h42.8zM697.6 187.8h-42.8v-42.78h42.8z"/><path d="M654.9 187.8h-42.8v-42.78h42.8zM612.1 187.8h-42.8v-42.78h42.8z"/><path d="M569.4 187.8h-42.8v-42.78h42.8zM526.5 187.8h-42.8v-42.78h42.8z"/><path d="M483.8 187.8H441v-42.78h42.8zM441 187.8h-42.8v-42.78H441zM398.2 187.8h-42.8v-42.78h42.8zM355.4 187.8h-42.8v-42.78h42.8z"/><path d="M312.6 187.8h-42.8v-42.78h42.8z"/><path d="M269.9 187.8h-42.8v-42.78h42.8z"/><path d="M227.1 187.8h-42.8v-42.78h42.8zM184.3 187.8h-42.8v-42.78h42.8zM141.5 187.8H98.7v-42.78h42.8zM98.7 187.8H55.9v-42.78h42.8z"/><path d="M56 187.8H13.2v-42.78H56zM13.2 187.8h-42.8v-42.78h42.8zM783.3 230.6h-42.8v-42.78h42.8zM740.4 230.6h-42.8v-42.78h42.8zM697.6 230.6h-42.8v-42.78h42.8z"/><path d="M654.9 230.6h-42.8v-42.78h42.8zM612.1 230.6h-42.8v-42.78h42.8z"/><path d="M569.4 230.6h-42.8v-42.78h42.8zM526.5 230.6h-42.8v-42.78h42.8z"/><path d="M483.8 230.6H441v-42.78h42.8zM441 230.6h-42.8v-42.78H441zM398.2 230.6h-42.8v-42.78h42.8zM355.4 230.6h-42.8v-42.78h42.8z"/><path d="M312.6 230.6h-42.8v-42.78h42.8z"/><path d="M269.9 230.6h-42.8v-42.78h42.8z"/><path d="M227.1 230.6h-42.8v-42.78h42.8zM184.3 230.6h-42.8v-42.78h42.8zM141.5 230.6H98.7v-42.78h42.8zM98.7 230.6H55.9v-42.78h42.8z"/><path d="M56 230.6H13.2v-42.78H56zM13.2 230.6h-42.8v-42.78h42.8zM783.3 273.3h-42.8v-42.78h42.8zM740.4 273.3h-42.8v-42.78h42.8zM697.6 273.3h-42.8v-42.78h42.8z"/><path d="M654.9 273.3h-42.8v-42.78h42.8zM612.1 273.3h-42.8v-42.78h42.8z"/><path d="M569.4 273.3h-42.8v-42.78h42.8zM526.5 273.3h-42.8v-42.78h42.8z"/><path d="M483.8 273.3H441v-42.78h42.8zM441 273.3h-42.8v-42.78H441zM398.2 273.3h-42.8v-42.78h42.8zM355.4 273.3h-42.8v-42.78h42.8z"/><path d="M312.6 273.3h-42.8v-42.78h42.8z"/><path d="M269.9 273.3h-42.8v-42.78h42.8z"/><path d="M227.1 273.3h-42.8v-42.78h42.8zM184.3 273.3h-42.8v-42.78h42.8zM141.5 273.3H98.7v-42.78h42.8zM98.7 273.3H55.9v-42.78h42.8z"/><path d="M56 273.3H13.2v-42.78H56zM13.2 273.3h-42.8v-42.78h42.8zM783.3 316.1h-42.8v-42.78h42.8zM740.4 316.1h-42.8v-42.78h42.8zM697.6 316.1h-42.8v-42.78h42.8z"/><path d="M654.9 316.1h-42.8v-42.78h42.8zM612.1 316.1h-42.8v-42.78h42.8z"/><path d="M569.4 316.1h-42.8v-42.78h42.8zM526.5 316.1h-42.8v-42.78h42.8z"/><path d="M483.8 316.1H441v-42.78h42.8zM441 316.1h-42.8v-42.78H441zM398.2 316.1h-42.8v-42.78h42.8zM355.4 316.1h-42.8v-42.78h42.8z"/><path d="M312.6 316.1h-42.8v-42.78h42.8z"/><path d="M269.9 316.1h-42.8v-42.78h42.8z"/><path d="M227.1 316.1h-42.8v-42.78h42.8zM184.3 316.1h-42.8v-42.78h42.8zM141.5 316.1H98.7v-42.78h42.8zM98.7 316.1H55.9v-42.78h42.8z"/><path d="M56 316.1H13.2v-42.78H56zM13.2 316.1h-42.8v-42.78h42.8zM783.3-68.2h-42.8v-42.78h42.8zM740.4-68.2h-42.8v-42.78h42.8zM697.6-68.2h-42.8v-42.78h42.8z"/><path d="M654.9-68.2h-42.8v-42.78h42.8zM612.1-68.2h-42.8v-42.78h42.8z"/><path d="M569.4-68.2h-42.8v-42.78h42.8zM526.5-68.2h-42.8v-42.78h42.8z"/><path d="M483.8-68.2H441v-42.78h42.8zM441-68.2h-42.8v-42.78H441zM398.2-68.2h-42.8v-42.78h42.8zM355.4-68.2h-42.8v-42.78h42.8z"/><path d="M312.6-68.2h-42.8v-42.78h42.8z"/><path d="M269.9-68.2h-42.8v-42.78h42.8z"/><path d="M227.1-68.2h-42.8v-42.78h42.8zM184.3-68.2h-42.8v-42.78h42.8zM141.5-68.2H98.7v-42.78h42.8zM98.7-68.2H55.9v-42.78h42.8z"/><path d="M56-68.2H13.2v-42.78H56zM13.2-68.2h-42.8v-42.78h42.8zM783.3-25.5h-42.8v-42.78h42.8zM740.4-25.5h-42.8v-42.78h42.8zM697.6-25.5h-42.8v-42.78h42.8z"/><path d="M654.9-25.5h-42.8v-42.78h42.8zM612.1-25.5h-42.8v-42.78h42.8z"/><path d="M569.4-25.5h-42.8v-42.78h42.8zM526.5-25.5h-42.8v-42.78h42.8z"/><path d="M483.8-25.5H441v-42.78h42.8zM441-25.5h-42.8v-42.78H441zM398.2-25.5h-42.8v-42.78h42.8zM355.4-25.5h-42.8v-42.78h42.8z"/><path d="M312.6-25.5h-42.8v-42.78h42.8z"/><path d="M269.9-25.5h-42.8v-42.78h42.8z"/><path d="M227.1-25.5h-42.8v-42.78h42.8zM184.3-25.5h-42.8v-42.78h42.8zM141.5-25.5H98.7v-42.78h42.8zM98.7-25.5H55.9v-42.78h42.8z"/><path d="M56-25.5H13.2v-42.78H56zM13.2-25.5h-42.8v-42.78h42.8zM783.3 17.3h-42.8v-42.78h42.8zM740.4 17.3h-42.8v-42.78h42.8zM697.6 17.3h-42.8v-42.78h42.8z"/><path d="M654.9 17.3h-42.8v-42.78h42.8zM612.1 17.3h-42.8v-42.78h42.8z"/><path d="M569.4 17.3h-42.8v-42.78h42.8zM526.5 17.3h-42.8v-42.78h42.8z"/><path d="M483.8 17.3H441v-42.78h42.8zM441 17.3h-42.8v-42.78H441zM398.2 17.3h-42.8v-42.78h42.8zM355.4 17.3h-42.8v-42.78h42.8z"/><path d="M312.6 17.3h-42.8v-42.78h42.8z"/><path d="M269.9 17.3h-42.8v-42.78h42.8z"/><path d="M227.1 17.3h-42.8v-42.78h42.8zM184.3 17.3h-42.8v-42.78h42.8zM141.5 17.3H98.7v-42.78h42.8zM98.7 17.3H55.9v-42.78h42.8z"/><path d="M56 17.3H13.2v-42.78H56zM13.2 17.3h-42.8v-42.78h42.8zM783.3 60h-42.8V17.22h42.8zM740.4 60h-42.8V17.22h42.8zM697.6 60h-42.8V17.22h42.8z"/><path d="M654.9 60h-42.8V17.22h42.8zM612.1 60h-42.8V17.22h42.8z"/><path d="M569.4 60h-42.8V17.22h42.8zM526.5 60h-42.8V17.22h42.8z"/><path d="M483.8 60H441V17.22h42.8zM441 60h-42.8V17.22H441zM398.2 60h-42.8V17.22h42.8zM355.4 60h-42.8V17.22h42.8z"/><path d="M312.6 60h-42.8V17.22h42.8z"/><path d="M269.9 60h-42.8V17.22h42.8z"/><path d="M227.1 60h-42.8V17.22h42.8zM184.3 60h-42.8V17.22h42.8zM141.5 60H98.7V17.22h42.8zM98.7 60H55.9V17.22h42.8z"/><path d="M56 60H13.2V17.22H56zM13.2 60h-42.8V17.22h42.8zM783.3 102.8h-42.8V60.02h42.8zM740.4 102.8h-42.8V60.02h42.8zM697.6 102.8h-42.8V60.02h42.8z"/><path d="M654.9 102.8h-42.8V60.02h42.8zM612.1 102.8h-42.8V60.02h42.8z"/><path d="M569.4 102.8h-42.8V60.02h42.8zM526.5 102.8h-42.8V60.02h42.8z"/><path d="M483.8 102.8H441V60.02h42.8zM441 102.8h-42.8V60.02H441zM398.2 102.8h-42.8V60.02h42.8zM355.4 102.8h-42.8V60.02h42.8z"/><path d="M312.6 102.8h-42.8V60.02h42.8z"/><path d="M269.9 102.8h-42.8V60.02h42.8z"/><path d="M227.1 102.8h-42.8V60.02h42.8zM184.3 102.8h-42.8V60.02h42.8zM141.5 102.8H98.7V60.02h42.8zM98.7 102.8H55.9V60.02h42.8z"/><path d="M56 102.8H13.2V60.02H56zM13.2 102.8h-42.8V60.02h42.8z"/></g></g><path stroke="#000" d="M2333.2 222.5l117.3-68.9-11.6 106.5 155.1-86.3-14.5 78.2 130.8-39.5-19.4 85.5 143.5-71-30.8 69.4 90.2-23.8-23.9 35.5 91.5-11.7-67.2 63.6 77.3-7.4-26.1 43.4 86.9-11-24.4 35.1 69.2-6.9-20.2 35.3-747.8-4z"/><path d="M988.3 469.6l1079-.8V84.9a27.6 27.6 0 0 0-9.1-20.5c-14.4-13-42.7-34.5-61.4-23.4-10.4 6.2-9.4 18.9 2.6 37.5-37.7-23.6-84.7-49-104.5-43.3-29.9 8.6 26.3 80.5 29.4 85.8-5.5-1.2-92-45.5-138.8-39.5-51.2 6.6 5.1 95.6 36.7 120-25.4-16.7-59.7-27.5-80.2-13.1-14.3 10.1 10.9 35.4 21.9 48.6-19.2-8.9-33.5-25.4-54.7-25.4-36.1 0-73.4 19.8-73.4 55.3 0 17.7 9.3 36.3 25.7 51.1-36-27-177.9-62.5-198.2-34.5-17.2 23.8 69 69.6 90.2 91.2-18.8-10.4-48.8-19-75.2-19-29.1 0-53.7 10.5-53.7 41 0 9.5 2 20.1 7.9 28.2-38.3-21.8-80.4-40.4-127.1-40.4-23.9 0-63 6.5-63 25.6 0 6.4 4.6 13.8 15.6 22.3-15.5-5.6-74.6-19.2-95.7-19.2-37.6 0-30.5 35.3-27.5 39.3 0 0-92.7-29.2-110.3-20.2-12.8 6.5-6.7 24.5-6.7 24.5s-52-7.2-85.5 12.8h56z" fill="#FFF" fill-rule="nonzero"/><g transform="translate(932 34)"><mask id="f" fill="#fff"><use xlink:href="#e"/></mask></g><path d="M988.3 469.6l1079-.8V84.9a27.6 27.6 0 0 0-9.1-20.5c-14.4-13-42.7-34.5-61.4-23.4-10.4 6.2-9.4 18.9 2.6 37.5-37.7-23.6-84.7-49-104.5-43.3-29.9 8.6 26.3 80.5 29.4 85.8-5.5-1.2-92-45.5-138.8-39.5-51.2 6.6 5.1 95.6 36.7 120-25.4-16.7-59.7-27.5-80.2-13.1-14.3 10.1 10.9 35.4 21.9 48.6-19.2-8.9-33.5-25.4-54.7-25.4-36.1 0-73.4 19.8-73.4 55.3 0 17.7 9.3 36.3 25.7 51.1-36-27-177.9-62.5-198.2-34.5-17.2 23.8 69 69.6 90.2 91.2-18.8-10.4-48.8-19-75.2-19-29.1 0-53.7 10.5-53.7 41 0 9.5 2 20.1 7.9 28.2-38.3-21.8-80.4-40.4-127.1-40.4-23.9 0-63 6.5-63 25.6 0 6.4 4.6 13.8 15.6 22.3-15.5-5.6-74.6-19.2-95.7-19.2-37.6 0-30.5 35.3-27.5 39.3 0 0-92.7-29.2-110.3-20.2-12.8 6.5-6.7 24.5-6.7 24.5s-52-7.2-85.5 12.8h56z" stroke="#000"/><path d="M2000.1 299.5c-79.7-51.1-149.4-71.3-173.7-71.3-10.9 0-18.7 2.6-18.7 12 0 22.8 49.3 61.5 72.9 88.7-16.6-11.5-36.5-22.4-58.7-22.4-9.6 0-19.3 2.1-19.3 10.4s13.2 23 23.5 28.3c-12.7-5.7-27.2-9.5-40.1-9.5-18.9 0-34.1 8.3-34.1 30.8 0 1.4 0 2.9.1 4.4" fill="#FFF" fill-rule="nonzero"/><path d="M1999.8 300a606.1 606.1 0 0 0-72.3-40c-12.5-5.8-25.2-11.2-38.2-15.9a316.2 316.2 0 0 0-39.5-12.1l-10.1-2a88.6 88.6 0 0 0-10.2-1.2 49.5 49.5 0 0 0-10.2.4 27.2 27.2 0 0 0-4.9 1.3 12.6 12.6 0 0 0-4 2.8c-2.2 2.5-2.5 6.1-2 9.4a34.2 34.2 0 0 0 3.3 9.6 101.7 101.7 0 0 0 11.8 16.8c8.9 10.5 18.7 20.2 28.5 29.9s19.9 19.2 29 29.6l2.7 3-3.4-2.3a156.2 156.2 0 0 0-27.3-15.5 80.2 80.2 0 0 0-30.5-6.8 51.1 51.1 0 0 0-7.8.5 20.8 20.8 0 0 0-7.3 2.3 8.1 8.1 0 0 0-2.8 2.4 7.3 7.3 0 0 0-1.4 3.4 12.9 12.9 0 0 0 1.4 7.4 37.5 37.5 0 0 0 4 6.6 73.1 73.1 0 0 0 5.2 5.9 57 57 0 0 0 12.6 9.3l-.5.9a110.8 110.8 0 0 0-23.2-7.7c-8-1.6-16.2-2.4-24.2-1.3a35.3 35.3 0 0 0-11.6 3.4 23.4 23.4 0 0 0-9.2 7.6 26.1 26.1 0 0 0-4.6 11 45.3 45.3 0 0 0-.6 12.2h-1a47 47 0 0 1 .6-12.4 28.7 28.7 0 0 1 4.8-11.4 25.1 25.1 0 0 1 9.5-7.9 36.2 36.2 0 0 1 11.9-3.5 72.6 72.6 0 0 1 24.6 1.4 112.3 112.3 0 0 1 23.4 7.6l-.4 1a56.7 56.7 0 0 1-12.8-9.5 75.7 75.7 0 0 1-5.3-6 36.2 36.2 0 0 1-4.1-6.8 14.7 14.7 0 0 1-1.5-8 8 8 0 0 1 1.6-3.8 10.1 10.1 0 0 1 3.1-2.7 21 21 0 0 1 7.7-2.4 52.4 52.4 0 0 1 7.9-.5 80 80 0 0 1 30.9 6.9 155.7 155.7 0 0 1 27.5 15.6l-.7.8c-18.2-20.6-39.6-38.4-57.5-59.5a100 100 0 0 1-11.8-17.1 31.1 31.1 0 0 1-3.5-9.8 15.7 15.7 0 0 1 0-5.3 10.1 10.1 0 0 1 2.3-4.9 11 11 0 0 1 4.3-3.1 24.2 24.2 0 0 1 5.1-1.4 52.7 52.7 0 0 1 10.5-.4c3.4.2 6.9.7 10.3 1.2l10.2 2.1a327.8 327.8 0 0 1 39.6 12c12.9 4.8 25.7 10.2 38.2 16a607.4 607.4 0 0 1 72.4 40l-.5.9z" fill="#000" fill-rule="nonzero"/><path d="M1781.2 468.8c-6-13.3-11.3-24.4-4.4-37.4s25.5-22 43.2-21.8c17.7.2 34.5 7.7 47.3 18.2-4.3-6.2-8.7-12.5-9.1-20a15 15 0 0 1 1.7-7.7c5.6-10.2 20.4-10.3 32.2-8.3a177.6 177.6 0 0 1 71.6 28.2 94.8 94.8 0 0 1-16.7-44.8c-1-11 1-23.7 11.6-30 10.6-6.3 26.8-2.7 39.1 2.7a2.5 2.5 0 0 0 1.7 0h0a1.5 1.5 0 0 0 .9-2.2c-6.4-12.6-14.7-25-15.2-38.8-.1-4.3.2-8.8 2.2-12.8a16.2 16.2 0 0 1 10.8-8.7c6-1.3 12.4 1.2 16.7 5 4.3 3.8 6.9 8.7 9.4 13.5l43.1 56.1v108.8" stroke="#000" fill="#FFF" fill-rule="nonzero"/><path d="M2011.5 164.8a113 113 0 0 0-47.4-22.7c-6.2-1.3-13-2.2-19-.1-9.4 3.2-14 12.7-13.4 21.3.6 8.6 5.4 16.6 10 24.2a53.2 53.2 0 0 0-40.9.7c-12.6 5.7-21.7 16.7-23.9 28.7" stroke="#000"/><path d="M1744.7 409.8c-16.2-18-54.1-49.8-80.8-49.8-25 0-44.6 22.7-44.6 43.8a30.2 30.2 0 0 0 3.9 15.2c-12.6-6.4-30-11.5-46.4-11.5s-32.4 5.3-40.7 19.9" fill="#FFF" fill-rule="nonzero"/><path d="M1744.3 410.2a187.2 187.2 0 0 0-16.2-15.9 201.6 201.6 0 0 0-17.7-14 166.8 166.8 0 0 0-19.3-11.9c-6.7-3.3-13.8-6.2-21.2-7.4a40.2 40.2 0 0 0-21.9 2.8 44.9 44.9 0 0 0-17.8 13.3 44 44 0 0 0-9.7 20 25.7 25.7 0 0 0-.6 5.5 34.6 34.6 0 0 0 .2 5.6 29.6 29.6 0 0 0 3.5 10.5l.8 1.5-1.5-.8a102.8 102.8 0 0 0-22.3-8.2 93.7 93.7 0 0 0-23.5-3.2c-7.9 0-15.9 1.1-23.2 4.3a35 35 0 0 0-17.4 15.4l-.8-.5a34.5 34.5 0 0 1 7.6-9.4 37.6 37.6 0 0 1 10.2-6.5c7.4-3.2 15.6-4.3 23.6-4.3a96.1 96.1 0 0 1 23.8 3.2 114.8 114.8 0 0 1 22.5 8.3l-.7.7a29.2 29.2 0 0 1-3.6-10.9 36.2 36.2 0 0 1-.2-5.7 27.6 27.6 0 0 1 .6-5.7 45.1 45.1 0 0 1 9.9-20.5 47.9 47.9 0 0 1 8.3-7.9 46.3 46.3 0 0 1 9.9-5.7 42.1 42.1 0 0 1 22.5-2.8c7.6 1.2 14.7 4.1 21.5 7.5a173.6 173.6 0 0 1 19.4 11.9 221.501 221.501 0 0 1 17.8 14.2 188 188 0 0 1 16.3 15.9l-.8.7z" fill="#000" fill-rule="nonzero"/><path d="M3146.9 469.6l-1080-.8V117.9l-.5-32.7c-.1-8 4.3-15.7 10.2-21 14.7-12.9 43.1-34.3 61.8-23.2 10.3 6.2 9.3 18.9-2.7 37.5 37.7-23.6 84.7-49 104.5-43.3 29.9 8.6-26.3 80.5-29.3 85.8 5.4-1.2 92-45.5 138.7-39.5 51.2 6.6-5.1 95.6-36.7 120 25.5-16.7 59.7-27.5 80.2-13.1 14.3 10.1-10.9 35.4-21.9 48.6 19.2-8.9 33.5-25.4 54.8-25.4 36 0 73.3 19.8 73.3 55.3 0 17.7-9.3 36.3-25.7 51.1 36-27 177.9-62.5 198.2-34.5 17.2 23.8-68.9 69.6-90.2 91.2 18.8-10.4 48.8-19 75.2-19 29.1 0 53.7 10.5 53.7 41 0 9.5-2 20.1-7.9 28.2 38.4-21.8 80.4-40.4 127.2-40.4 23.8 0 62.9 6.5 62.9 25.6 0 6.4-4.6 13.8-15.6 22.3 15.5-5.6 74.7-19.2 95.8-19.2 37.5 0 30.5 35.3 27.5 39.3 0 0 92.6-29.2 110.2-20.2 12.8 6.5 6.8 24.5 6.8 24.5s52-7.2 85.5 12.8h-56z" fill="#FFF" fill-rule="nonzero"/><g transform="translate(2066 34)"><mask id="h" fill="#fff"><use xlink:href="#g"/></mask></g><path d="M3146.9 469.6l-1080-.8V117.9l-.5-32.7c-.1-8 4.3-15.7 10.2-21 14.7-12.9 43.1-34.3 61.8-23.2 10.3 6.2 9.3 18.9-2.7 37.5 37.7-23.6 84.7-49 104.5-43.3 29.9 8.6-26.3 80.5-29.3 85.8 5.4-1.2 92-45.5 138.7-39.5 51.2 6.6-5.1 95.6-36.7 120 25.5-16.7 59.7-27.5 80.2-13.1 14.3 10.1-10.9 35.4-21.9 48.6 19.2-8.9 33.5-25.4 54.8-25.4 36 0 73.3 19.8 73.3 55.3 0 17.7-9.3 36.3-25.7 51.1 36-27 177.9-62.5 198.2-34.5 17.2 23.8-68.9 69.6-90.2 91.2 18.8-10.4 48.8-19 75.2-19 29.1 0 53.7 10.5 53.7 41 0 9.5-2 20.1-7.9 28.2 38.4-21.8 80.4-40.4 127.2-40.4 23.8 0 62.9 6.5 62.9 25.6 0 6.4-4.6 13.8-15.6 22.3 15.5-5.6 74.7-19.2 95.8-19.2 37.5 0 30.5 35.3 27.5 39.3 0 0 92.6-29.2 110.2-20.2 12.8 6.5 6.8 24.5 6.8 24.5s52-7.2 85.5 12.8h-56z" stroke="#000"/><path d="M2135.1 299.5c79.6-51.1 149.3-71.3 173.6-71.3 10.9 0 18.8 2.6 18.8 12 0 22.8-49.4 61.5-73 88.7 16.6-11.5 36.5-22.4 58.7-22.4 9.7 0 19.3 2.1 19.3 10.4s-13.2 23-23.5 28.3c12.7-5.7 27.3-9.5 40.1-9.5 18.9 0 34.2 8.3 34.2 30.8 0 1.4-.1 2.9-.2 4.4" fill="#FFF" fill-rule="nonzero"/><path d="M2134.8 299.1a607.4 607.4 0 0 1 72.4-40c12.5-5.8 25.3-11.2 38.2-16a323.9 323.9 0 0 1 39.7-12c3.3-.8 6.7-1.5 10.1-2.1 3.4-.6 6.9-1 10.4-1.2a52 52 0 0 1 10.4.4 24.2 24.2 0 0 1 5.1 1.4 12.2 12.2 0 0 1 4.4 3.1 9.9 9.9 0 0 1 2.2 4.9 15.7 15.7 0 0 1 0 5.3 33.5 33.5 0 0 1-3.4 9.8 106.6 106.6 0 0 1-11.9 17.1c-17.9 21.1-39.2 38.9-57.5 59.5l-.7-.8a155.7 155.7 0 0 1 27.5-15.6 80.4 80.4 0 0 1 30.9-6.9 54.6 54.6 0 0 1 8 .5 21.1 21.1 0 0 1 7.6 2.4 11.8 11.8 0 0 1 3.2 2.7 8.9 8.9 0 0 1 1.5 3.8 14.7 14.7 0 0 1-1.5 8 31.6 31.6 0 0 1-4.1 6.8 59.9 59.9 0 0 1-5.3 6 56.7 56.7 0 0 1-12.8 9.5l-.4-1a112.3 112.3 0 0 1 23.4-7.6 72.6 72.6 0 0 1 24.6-1.4 35.5 35.5 0 0 1 11.9 3.5 25.1 25.1 0 0 1 9.5 7.9 28.7 28.7 0 0 1 4.8 11.4 47 47 0 0 1 .6 12.4h-1a49.7 49.7 0 0 0-.5-12.2 27.6 27.6 0 0 0-4.7-11 23.1 23.1 0 0 0-9.1-7.6 36.8 36.8 0 0 0-11.6-3.4c-8.1-1.1-16.3-.3-24.3 1.3a110.8 110.8 0 0 0-23.2 7.7l-.4-.9a56.4 56.4 0 0 0 12.5-9.3 57.8 57.8 0 0 0 5.2-5.9 32.3 32.3 0 0 0 4-6.6 12.9 12.9 0 0 0 1.4-7.4 6.4 6.4 0 0 0-1.4-3.4 8.1 8.1 0 0 0-2.8-2.4 20.1 20.1 0 0 0-7.3-2.3 51.1 51.1 0 0 0-7.8-.5 80.6 80.6 0 0 0-30.5 6.8 156.2 156.2 0 0 0-27.3 15.5l-3.4 2.3 2.7-3c9.1-10.4 19.2-19.9 29-29.6 9.8-9.7 19.6-19.4 28.5-29.9a101.7 101.7 0 0 0 11.8-16.8 34.2 34.2 0 0 0 3.3-9.6c.6-3.3.2-6.9-2-9.4a12.6 12.6 0 0 0-4-2.8 27.2 27.2 0 0 0-4.9-1.3 49.5 49.5 0 0 0-10.2-.4 88.6 88.6 0 0 0-10.2 1.2l-10.1 2a321.4 321.4 0 0 0-39.5 12.1c-13 4.7-25.7 10.1-38.2 15.9a614 614 0 0 0-72.3 40l-.5-.9z" fill="#000" fill-rule="nonzero"/><path d="M2353.9 468.8c6-13.3 11.3-24.4 4.4-37.4s-25.5-22-43.2-21.8c-17.7.2-34.5 7.7-47.3 18.2 4.3-6.2 8.8-12.5 9.1-20a15 15 0 0 0-1.7-7.7c-5.6-10.2-20.3-10.3-32.2-8.3a178.2 178.2 0 0 0-71.6 28.2 93.7 93.7 0 0 0 16.7-44.8c1.1-11-.9-23.7-11.6-30-10.7-6.3-26.7-2.7-39.1 2.7a2.2 2.2 0 0 1-1.6 0h0a1.6 1.6 0 0 1-1-2.2c6.4-12.6 14.7-25 15.2-38.8.1-4.3-.2-8.8-2.2-12.8a16.2 16.2 0 0 0-10.8-8.7c-6-1.3-12.3 1.2-16.6 5-4.3 3.8-6.9 8.7-9.5 13.5l-43 56.1v108.8" stroke="#000" fill="#FFF" fill-rule="nonzero"/><path d="M2123.6 164.8a113 113 0 0 1 47.4-22.7c6.2-1.3 13-2.2 19-.1 9.4 3.2 14 12.7 13.4 21.3-.6 8.6-5.4 16.6-10 24.2a53.5 53.5 0 0 1 41 .7c12.5 5.7 21.6 16.7 23.8 28.7" stroke="#000"/><path d="M2390.4 409.8c16.2-18 54.1-49.8 80.8-49.8 25 0 44.6 22.7 44.6 43.8a31.2 31.2 0 0 1-3.8 15.2c12.5-6.4 29.9-11.5 46.3-11.5s32.4 5.3 40.7 19.9" fill="#FFF" fill-rule="nonzero"/><path d="M2390 409.5a188 188 0 0 1 16.3-15.9c5.7-5 11.7-9.8 17.8-14.2a183.2 183.2 0 0 1 19.4-11.9c6.8-3.4 14-6.3 21.5-7.5a42.1 42.1 0 0 1 22.5 2.8 47 47 0 0 1 10 5.7 51.1 51.1 0 0 1 8.2 7.9 45.1 45.1 0 0 1 9.9 20.5 37 37 0 0 1 .7 5.7 27.3 27.3 0 0 1-.3 5.7 29.2 29.2 0 0 1-3.6 10.9l-.7-.7a114.8 114.8 0 0 1 22.5-8.3 96.1 96.1 0 0 1 23.8-3.2c8 0 16.2 1.1 23.6 4.3a37.6 37.6 0 0 1 10.2 6.5 34.5 34.5 0 0 1 7.6 9.4l-.8.5a35 35 0 0 0-17.4-15.4c-7.2-3.2-15.3-4.3-23.2-4.3a93.7 93.7 0 0 0-23.5 3.2 104.7 104.7 0 0 0-22.3 8.2l-1.5.8.8-1.5a29.6 29.6 0 0 0 3.5-10.5 26 26 0 0 0 .3-5.6 34.5 34.5 0 0 0-.7-5.5 46.4 46.4 0 0 0-27.5-33.3 40 40 0 0 0-21.9-2.8c-7.4 1.2-14.5 4.1-21.2 7.4a166.8 166.8 0 0 0-19.3 11.9c-6.1 4.3-12 9.1-17.7 14a187.2 187.2 0 0 0-16.2 15.9l-.8-.7z" fill="#000" fill-rule="nonzero"/><path d="M1087.9 623.9c-1.6-4.6-5.9-8.5-11.2-8.5-2.8 0-4.9 1.3-4.9 3.9 0 6.2 9 9.2 12.9 9.2 2 0 3.5-.8 3.5-2.7a6.8 6.8 0 0 0-.3-1.9z" fill="#FFF" fill-rule="nonzero"/><path d="M1087.4 624.1a12.5 12.5 0 0 0-7.5-7.7 7.6 7.6 0 0 0-2.7-.5 5.7 5.7 0 0 0-2.6.3 3.5 3.5 0 0 0-2 1.5 5.3 5.3 0 0 0-.3 1.2c0 .4.1.9.1 1.3a6.9 6.9 0 0 0 2.9 4.4 15.7 15.7 0 0 0 5 2.5 12.9 12.9 0 0 0 5.4.8c.9-.2 1.7-.6 1.9-1.3a3.7 3.7 0 0 0-.2-2.5zm1-.3a4.7 4.7 0 0 1 .1 3.1 2.6 2.6 0 0 1-1.1 1.4 3.9 3.9 0 0 1-1.5.6 14.6 14.6 0 0 1-5.9-.8 17.7 17.7 0 0 1-5.3-2.7 8.3 8.3 0 0 1-3.3-5 8.1 8.1 0 0 1-.1-1.6 3.8 3.8 0 0 1 .5-1.5 3.9 3.9 0 0 1 2.4-2 6.7 6.7 0 0 1 3.1-.4 8 8 0 0 1 3 .6 13.1 13.1 0 0 1 8.1 8.3z" fill="#000" fill-rule="nonzero"/><path d="M1041.7 619.4c-1.2-2.3-3.9-3.7-6-2.1a3.7 3.7 0 0 0-1.6 3.1c0 3 2.8 6.6 5.1 6.6s5-2.7 2.5-7.6z" fill="#FFF" fill-rule="nonzero"/><path d="M1041.3 619.6a5.6 5.6 0 0 0-2.4-2.2 3 3 0 0 0-3 .3 3.2 3.2 0 0 0-1.3 2.8 6.3 6.3 0 0 0 1 3.2 8.8 8.8 0 0 0 2.3 2.4 2.8 2.8 0 0 0 1.5.4 4.2 4.2 0 0 0 1.3-.7 4.4 4.4 0 0 0 1.4-2.9 8 8 0 0 0-.8-3.3zm.8-.4a8 8 0 0 1 1 3.8 5.3 5.3 0 0 1-1.7 3.5 4.4 4.4 0 0 1-1.9 1 3.6 3.6 0 0 1-2.1-.5 9 9 0 0 1-2.7-2.8 8 8 0 0 1-1.1-3.7 4.5 4.5 0 0 1 .4-2 3.6 3.6 0 0 1 1.4-1.6 4.1 4.1 0 0 1 1.9-.8 4.5 4.5 0 0 1 2 .4 5.3 5.3 0 0 1 2.8 2.7z" fill="#000" fill-rule="nonzero"/><path stroke="#FFF032" fill="#000" fill-rule="nonzero" d="M2887.7 60.4l-30.5 13.2v23.1l22.3-23.1zM2365.8 17.4l-20.1 15.9 3.6 9.6 18.7-9.6zM1397.3 80.3l-4.5 25.2 9.1 4.8 7.6-19.6zM1707.9 76.2l1.4 12.3 13.5 13.9-3.1-19.6zM1096.4 150.6l18.3 28.6 9.1 4.8-5-17z"/></g></svg>