<svg height="168" width="800" xmlns="http://www.w3.org/2000/svg"><path d="M-1-3h803l-1 108.073c-10.388 0-19.809-8.564-19.809-19.128v-4.1c0-8.402-6.699-15.214-14.962-15.214s-14.962 6.812-14.962 15.214v22.496c0 8.141-6.49 14.74-14.494 14.74-8.005 0-14.494-6.599-14.494-14.74V60.222c0-6.814-5.387-12.363-12.087-12.449-6.822-.088-12.398 5.51-12.398 12.449v7.897c0 8.654-6.9 15.671-15.411 15.671h-.353c-8.511 0-15.411-7.017-15.411-15.671v-6.7c0-8.845-7.206-15.978-15.973-15.662-8.351.303-14.85 7.54-14.85 16.037v67.959c0 7.079-5.767 12.788-12.784 12.535-6.684-.242-11.885-6.034-11.885-12.836v-82.12c0-8.051-6.56-14.545-14.54-14.256-7.602.275-13.518 6.863-13.518 14.598v56.674c0 7.118-5.673 12.886-12.672 12.886h-2.461c-7 0-12.672-5.768-12.672-12.886V78.167c0-10.755-8.72-19.439-19.36-19.142-10.257.286-18.302 9.106-18.302 19.54v-.497c0 10.505-8.516 18.987-18.91 18.697-10.019-.28-17.877-8.894-17.877-19.086v-7.587c0-9.615-7.793-17.378-17.307-17.113-9.17.256-16.362 8.14-16.362 17.469l-.382-.027V91.58c0 10.563-8.42 19.128-18.81 19.128-10.388 0-18.809-8.565-18.809-19.128v-4.1c0-8.403-6.699-15.215-14.962-15.215s-14.962 6.812-14.962 15.215v22.496c0 8.141-6.489 14.74-14.494 14.74-8.005 0-14.494-6.599-14.494-14.74v-44.12c0-6.813-5.387-12.361-12.087-12.448-6.821-.088-12.398 5.51-12.398 12.449v7.896c0 8.655-6.9 15.672-15.411 15.672h-.353c-8.511 0-15.411-7.017-15.411-15.672v-6.7c0-8.845-7.206-15.978-15.973-15.66-8.351.301-14.85 7.539-14.85 16.036v67.958c0 7.08-5.767 12.789-12.784 12.535-6.684-.241-11.885-6.034-11.885-12.835v-82.12c0-8.051-6.559-14.545-14.54-14.256-7.602.274-13.517 6.863-13.517 14.598v56.674c0 7.117-5.674 12.886-12.673 12.886h-2.461c-7 0-12.672-5.769-12.672-12.886V83.8c0-10.754-8.72-19.438-19.36-19.142-10.257.286-18.302 9.107-18.302 19.54v32.775c0 10.505-8.516 18.987-18.91 18.697-10.019-.279-17.877-8.894-17.877-19.086v-7.588c0-9.615-7.794-17.377-17.307-17.113-9.17.256-16.361 8.141-16.361 17.469v44.669c0 7.89-6.428 14.253-14.248 13.97-7.45-.27-13.246-6.725-13.246-14.305v-96.78c0-7.933-6.446-14.363-14.399-14.363-7.952 0-14.398 6.43-14.398 14.363v29.04c0 10.563-9.42 19.127-19.81 19.127V-3z" fill="#fff240" fill-rule="evenodd"/></svg>