<svg xmlns="http://www.w3.org/2000/svg" viewBox="0 0 440 440"><ellipse cx="221.32" cy="230.56" rx="209" ry="208.89" fill="#ffd45a" stroke="#000" stroke-linejoin="round" stroke-width=".74"/><circle cx="221.32" cy="211.1" r="209" fill="#ffff85" stroke="#000" stroke-miterlimit="10" stroke-width="1.02"/><ellipse cx="221.32" cy="211.1" rx="152.02" ry="151.94" fill="#ffd45a" stroke="#000" stroke-linejoin="round" stroke-width=".73"/><ellipse cx="221.32" cy="211.1" rx="144.85" ry="144.77" fill="#fff294" stroke="#000" stroke-linejoin="round" stroke-width="1.01"/><ellipse cx="153.74" cy="282.76" rx="25.9" ry="25.89" fill="#fffbe3"/><ellipse cx="312.93" cy="242.29" rx="30.68" ry="30.66" fill="#fffbe3"/><ellipse cx="143.94" cy="177.95" rx="30.68" ry="30.66" fill="#fffbe3"/><ellipse cx="166.07" cy="213.14" rx="30.68" ry="30.66" fill="#fffbe3"/><path d="M193.81 229a28.85 28.85 0 0 0-2.61 11.11c0 5.87 2.84 9.33 6.78 9.33 3.1 0 5.28-1.56 8.3-9.11l8.07-15.12-20.12-2z" fill="#ffef57"/><path d="M194.3 229.11c-.33.82-.62 1.51-.88 2.24s-.5 1.45-.71 2.2a26.88 26.88 0 0 0-.9 4.51 16.81 16.81 0 0 0 .1 4.54 9.35 9.35 0 0 0 1.63 4.1 5.48 5.48 0 0 0 3.6 2.16 5.21 5.21 0 0 0 4.05-1 11.27 11.27 0 0 0 2.69-3.55 41.32 41.32 0 0 0 1.93-4.22l8.1-15.09.39.73-20.12-2 .55-.46zm-1-.24l.41-5.71a.5.5 0 0 1 .54-.47l20.12 2a.5.5 0 0 1 .45.55.6.6 0 0 1-.06.19l-8.07 15.12v-.05a43 43 0 0 1-2 4.32 12.31 12.31 0 0 1-3 3.86 6.53 6.53 0 0 1-9.07-1.38 10.25 10.25 0 0 1-1.82-4.54 18 18 0 0 1-.11-4.81 27.44 27.44 0 0 1 .94-4.69c.21-.77.46-1.52.73-2.27s.69-1.49.96-2.12z"/><path d="M191.84 235c2-1.55 2.22-2.37 3.4-2.76 5.63-1.89 8.74 4.66 8.52 12.47 4.19-1 5.56-12.47 7.39-15.7 3.17-5.59-4.71-9.09-10.55-9.09-7 0-8.38 1.71-8.38 8.3 0 .65-.41 6.14-.38 6.78z"/><path d="M192.05 234.55a.24.24 0 0 0-.15-.22c-.07 0 .1-.08.16-.15s.34-.29.51-.44c.33-.3.64-.62 1-1a4.14 4.14 0 0 1 1.27-.93 7.9 7.9 0 0 1 1.46-.39 5.26 5.26 0 0 1 3 .41 6.22 6.22 0 0 1 2.3 1.91 13.18 13.18 0 0 1 2.22 5.29 24.37 24.37 0 0 1 .46 5.65l-.61-.51a4.11 4.11 0 0 0 2.24-2 18.19 18.19 0 0 0 1.42-3.06c.79-2.14 1.37-4.38 2-6.61a24.85 24.85 0 0 1 1.17-3.36l.39-.78a5.1 5.1 0 0 0 .3-.73 4 4 0 0 0 .17-1.52 4.33 4.33 0 0 0-1.49-2.66 9.87 9.87 0 0 0-2.79-1.74 16.85 16.85 0 0 0-6.57-1.34 22.14 22.14 0 0 0-3.38.23 5.4 5.4 0 0 0-2.89 1.21 5 5 0 0 0-1.29 2.82 22.23 22.23 0 0 0-.23 3.38c0 1.21-.13 2.34-.19 3.51l-.11 1.73v1.4a.31.31 0 0 0-.37-.1zm-.42.91a.83.83 0 0 1-.25-.37.57.57 0 0 1 0-.22v-1.63l.11-1.74c.07-1.15.17-2.33.2-3.44a22.53 22.53 0 0 1 .24-3.55 5.88 5.88 0 0 1 1.59-3.38 6.34 6.34 0 0 1 3.41-1.47 21.33 21.33 0 0 1 3.55-.24 17.8 17.8 0 0 1 7 1.42 10.84 10.84 0 0 1 3.07 1.92 5.33 5.33 0 0 1 1.81 3.3 6 6 0 0 1-1 3.56 24.22 24.22 0 0 0-1.1 3.21c-.65 2.21-1.23 4.47-2.05 6.68a18.26 18.26 0 0 1-1.51 3.24 5 5 0 0 1-2.86 2.45.5.5 0 0 1-.61-.35.66.66 0 0 1 0-.14 23.83 23.83 0 0 0-.44-5.41 12.43 12.43 0 0 0-2-4.89 5.28 5.28 0 0 0-1.93-1.6 4.21 4.21 0 0 0-2.43-.33 5.9 5.9 0 0 0-1.22.32 3 3 0 0 0-1 .71c-.32.32-.66.67-1 1l-.54.47c-.12.08-.13.12-.38.29a1.73 1.73 0 0 1-.66.19z"/><path d="M189.66 294.7c0 3.54 1.46 7.3 3.66 10.93 9 14.88 26.79 21.89 43.79 18.25a114 114 0 0 0 57.07-191.73c-2.38.56-10.79 3.64-14.45-2.46-3-5 0-10-.41-10.18a113.61 113.61 0 0 0-66.24-21.17h.76A93.56 93.56 0 0 0 163 116.2c0-.58 1 5.45-2 9.47-4 4-10.06 2-10.34 1.65-9.53 10.66-15.45 23.56-15.45 37.48a64.92 64.92 0 0 0 64.89 64.95 66.57 66.57 0 0 0 7.24-.4 78.69 78.69 0 0 0-1.1 9.46 36.24 36.24 0 0 0 20.25 32.53s-36.83 12.71-36.83 23.36z" fill="#ffef57" stroke="#000" stroke-linejoin="round" stroke-width="1.01"/><path d="M226.53 271.34c4.83 2.38 34.16 11.27 41.71-6.85M259.93 190.08a65 65 0 0 1-52.55 39.27" fill="none" stroke="#000" stroke-miterlimit="10" stroke-width="1.01"/><path d="M281 199.28a54.28 54.28 0 0 0-3.41 17.47c0 8.7 5.89 13.48 10.23 13.48 5.81 0 12.07-12.07 12.07-31.17"/><path d="M281.44 199.44a54.33 54.33 0 0 0-3.39 17.45 15 15 0 0 0 2.38 8.26 9.88 9.88 0 0 0 6.92 4.56 5.05 5.05 0 0 0 3.75-1.41 13.57 13.57 0 0 0 2.74-3.35 32.38 32.38 0 0 0 3.35-8.18 68 68 0 0 0 2.16-17.71h1a68.7 68.7 0 0 1-2.19 18 33.65 33.65 0 0 1-3.46 8.44 14.87 14.87 0 0 1-2.95 3.59 6.06 6.06 0 0 1-4.47 1.64 9.27 9.27 0 0 1-4.42-1.66 12.48 12.48 0 0 1-3.26-3.34 15.9 15.9 0 0 1-2.55-8.81 55.3 55.3 0 0 1 3.44-17.79zM177.4 195.62c1.86 5.63 4.59 10.8 8.59 14a4.53 4.53 0 0 1-5.63 7.09 31 31 0 0 1-7.24-8.54 49.88 49.88 0 0 1-4.29-9.65 4.53 4.53 0 1 1 8.59-2.87zM200.31 193.58c1.39 5.76 3.69 11.14 7.42 14.64a4.52 4.52 0 1 1-6.19 6.6 30.66 30.66 0 0 1-6.52-9.1 49.69 49.69 0 0 1-3.48-10 4.53 4.53 0 1 1 8.79-2.16z"/><path d="M230.44 125.92h-.2c-7.81 0-13.35 9.6-13.35 16.55 0 5.87 4.64 11.9 10.54 11.9 7.56 0 11.57-8.89 11.57-16.48 0-6.21-2.67-11.89-8.56-11.97z" fill="#f4c356"/><path d="M230.43 126.43a11 11 0 0 0-8.27 4.08 19.71 19.71 0 0 0-4.35 8.56 13.68 13.68 0 0 0-.32 4.76 12.45 12.45 0 0 0 1.5 4.51 10.37 10.37 0 0 0 7.36 5.45 8.42 8.42 0 0 0 4.59-.69 10.1 10.1 0 0 0 3.65-2.95 20.52 20.52 0 0 0 2.84-18.41 9.13 9.13 0 0 0-2.68-3.82 7.19 7.19 0 0 0-4.32-1.49zm0-1a8.34 8.34 0 0 1 4.93 1.71 10.23 10.23 0 0 1 3 4.24 21.5 21.5 0 0 1-3 19.41 11.16 11.16 0 0 1-4 3.24 9.32 9.32 0 0 1-5.13.76 11.37 11.37 0 0 1-8.11-5.95 13.54 13.54 0 0 1-1.62-4.87 14.9 14.9 0 0 1 .34-5.12 20.64 20.64 0 0 1 4.58-9 12.06 12.06 0 0 1 9.03-4.43z"/><path d="M247.65 249.73l-.06.09c-2.3 3.38.22 8.61 3.23 10.66 2.54 1.73 6.52 1.5 8.26-1.05 2.23-3.27-.44-7.63-3.72-9.87-2.69-1.83-5.92-2.34-7.71.17z" fill="#f4c356"/><path d="M248.06 250a5.54 5.54 0 0 0-.63 4.58 10 10 0 0 0 2.37 4.3 7 7 0 0 0 1.9 1.5 6.33 6.33 0 0 0 2.3.65 5.19 5.19 0 0 0 4.33-1.5 4.44 4.44 0 0 0 .81-4.41 10.53 10.53 0 0 0-7-6.49 4.66 4.66 0 0 0-2.32 0 3.56 3.56 0 0 0-1.76 1.37zm-.82-.59a4.58 4.58 0 0 1 2.32-1.71 5.59 5.59 0 0 1 2.84 0 10.71 10.71 0 0 1 4.72 2.66 10.6 10.6 0 0 1 3 4.52 6 6 0 0 1 .22 2.81 5.08 5.08 0 0 1-1.24 2.56 6.17 6.17 0 0 1-5.16 1.83 7.23 7.23 0 0 1-2.68-.76 8 8 0 0 1-2.18-1.7 11.07 11.07 0 0 1-2.61-4.74 6.56 6.56 0 0 1 .77-5.44z"/><path d="M301.61 170.91c-4.85.14-10.63 1.25-10.63 6.11 0 3.66 3.29 7.35 7 7.35 3.87 0 6.45-4.3 6.45-8.24a6.65 6.65 0 0 0-1.73-4.73 2 2 0 0 0-1-.5z" fill="#f4c356"/><path d="M301.63 171.42a24 24 0 0 0-5 .6 7.76 7.76 0 0 0-4.2 2.27 4.86 4.86 0 0 0-.65 4.47 7.67 7.67 0 0 0 2.75 3.9 5.51 5.51 0 0 0 4.47 1.08 6 6 0 0 0 3.63-2.91 9.51 9.51 0 0 0 1.28-4.68 6.22 6.22 0 0 0-1.57-4.4l.6.09a.49.49 0 0 1-.51 0c-.43-.27-.68-.45-.8-.42zm0-1a1.53 1.53 0 0 1 .82.24c.21.12.36.25.5.34h-.52a.5.5 0 0 1 .6.09 7.17 7.17 0 0 1 1.87 5.1 10.58 10.58 0 0 1-1.43 5.2 7 7 0 0 1-4.26 3.37 6.5 6.5 0 0 1-5.3-1.25 8.75 8.75 0 0 1-3.12-4.43 5.88 5.88 0 0 1 .84-5.38 8.66 8.66 0 0 1 4.74-2.61 25.2 25.2 0 0 1 5.23-.68z"/><path d="M280 194.25a54.11 54.11 0 0 0-3.42 17.47c0 8.71 3.47 13.36 7.82 13.36 5.81 0 13.19-8.32 15.92-26.38" fill="#ffef57"/><path d="M280.43 194.42a56.11 56.11 0 0 0-3.37 16.39 23.15 23.15 0 0 0 1.07 8.18 10.23 10.23 0 0 0 1.95 3.51 7 7 0 0 0 1.49 1.29 5.53 5.53 0 0 0 1.8.68 6.12 6.12 0 0 0 3.81-.58 11.5 11.5 0 0 0 3.29-2.36 24.45 24.45 0 0 0 4.67-6.82 58.06 58.06 0 0 0 4.64-16.09l1 .15a59.49 59.49 0 0 1-4.73 16.38 25.32 25.32 0 0 1-4.88 7.1 12.31 12.31 0 0 1-3.57 2.55 7.06 7.06 0 0 1-4.42.66 6.42 6.42 0 0 1-2.14-.82 7.78 7.78 0 0 1-1.71-1.47 11.59 11.59 0 0 1-2.15-3.84 24.64 24.64 0 0 1-1.13-8.54 57.36 57.36 0 0 1 3.43-16.71zM259.93 190.08a65 65 0 0 1-52.55 39.27s-.25 2.31-.33 3.77a29.75 29.75 0 0 0 10 1.66c18.45 0 41.43-13 42.83-45"/><path d="M353.7 108.15c-20.05.26-31.6.41-38.24 6.74-9 8.6-9 28.58-9 75.7 0-46 0-66.17-8.41-75.09-6.54-6.93-18.18-7.08-38.86-7.35 20.34 0 31.93 0 38.53-6.56 8.74-8.69 8.74-28.9 8.74-75.87 0 41.22 0 61.83 5.91 72.13s17.7 10.3 41.33 10.3z" fill="#fff"/><path fill="none" stroke="#000" stroke-linejoin="round" stroke-width=".73" d="M222.32 439.36v-19.03M261.49 435.89v-19.7M296.84 424.91v-19.48M326.8 410.35v-19.08M352.8 393.45v-19.67M374.96 371.81v-18.89M395.64 346.05v-18.89M411.95 317.16v-18.91M422.96 282.93v-17.12M180.8 435.44v-19.7M145.45 425.47V406M115.5 409.91v-19.09M89.49 393v-19.67M67.33 371.36v-18.89M46.66 344.6v-18.88M30.34 314.71V295.8M19.33 281.48v-17.12"/></svg>