<svg xmlns="http://www.w3.org/2000/svg" viewBox="0 0 173.58 830.85"><path d="M34.29 36.43H139.3v753.71H34.29z"/><path d="M153.63 804.07H20.76V20.36h132.87zM21.83 803h130.73V21.43H21.83z"/><path d="M153.63 810.5H20.76V26.79h132.87zm-131.8-1.08h130.73V27.86H21.83z"/><path d="M21.43 27.86H0V6.43h21.43zM1.07 26.79h19.29V7.5H1.07zM173.58 27.86h-21.43V6.43h21.43zm-20.35-1.07h19.28V7.5h-19.28z"/><path d="M167.16 21.43h-15V0h15zm-13.93-1.07h12.85V1.07h-12.85zM21.43 21.43h-15V0h15zM7.5 20.36h12.86V1.07H7.5zM173.58 830.85h-21.43v-21.43h21.43zm-20.35-1.07h19.28V810.5h-19.28zM21.43 830.85H0v-21.43h21.43zm-20.36-1.07h19.29V810.5H1.07z"/><path d="M21.43 824.43h-15V803h15zM7.5 823.35h12.86v-19.28H7.5zM167.16 824.43h-15V803h15zm-13.93-1.08h12.85v-19.28h-12.85zM145.73 36.43h1.07v754.78h-1.07zM26.79 36.43h1.07v754.78h-1.07z"/><path d="M98 391.54c1-1.69.63-3.7-.75-4.49s-3.32-.05-4.25 1.64l-17.31 26.14c-1.47 2.59-1 5.65 1.15 6.86s5 .08 6.48-2.5z" fill="#fff"/><path d="M78.7 422.7a4.25 4.25 0 0 1-2.12-.56c-2.35-1.34-3-4.74-1.34-7.57l17.29-26.17a4.5 4.5 0 0 1 2.21-1.95 3 3 0 0 1 4.26 2.42 4.49 4.49 0 0 1-.56 2.92l-14.65 27.64a6.61 6.61 0 0 1-3.28 2.92 5.14 5.14 0 0 1-1.81.35zM96 387.26a2.45 2.45 0 0 0-.87.17 3.33 3.33 0 0 0-1.7 1.52l-17.3 26.17c-1.31 2.3-.89 5.06 1 6.11a3.44 3.44 0 0 0 3 .14 5.43 5.43 0 0 0 2.74-2.44l14.63-27.65a3.42 3.42 0 0 0 .44-2.24 2.07 2.07 0 0 0-1-1.53 1.82 1.82 0 0 0-.94-.25z"/><path d="M79.61 385.92c-1.28-1.47-3.28-1.81-4.48-.78s-1.14 3.08.14 4.55l18.94 24.95c2 2.25 5 2.78 6.85 1.2s1.74-4.7-.21-6.95z" fill="#fff"/><path d="M98.5 417.27a6.32 6.32 0 0 1-4.68-2.27l-19-25a4.42 4.42 0 0 1-1.1-2.73 3.13 3.13 0 0 1 1-2.52 3.1 3.1 0 0 1 2.64-.67 4.53 4.53 0 0 1 2.64 1.49l21.23 23c2.15 2.47 2.22 5.92.17 7.69a4.38 4.38 0 0 1-2.9 1.01zm-21.7-32.2a2 2 0 0 0-1.33.47 2.11 2.11 0 0 0-.68 1.7 3.43 3.43 0 0 0 .87 2.1l19 25c1.73 2 4.47 2.51 6.09 1.11s1.49-4.18-.26-6.21l-21.25-23a3.33 3.33 0 0 0-2-1.15 2.28 2.28 0 0 0-.44-.02z"/><path d="M114.79 372.73c6.63-9.22 10.49-8.6 10.49-8.6l-3.55-2.55 3.26-3c-7.4-3.17-12.59-.45-16.35 3.3-3.34 3.31-14 19.5-14 19.5a5.68 5.68 0 0 0 9.22 6.63z" fill="#fff"/><path d="M99.22 390.78a6.12 6.12 0 0 1-5-9.69c.43-.65 10.74-16.25 14.07-19.56 5-5 10.53-6.1 16.85-3.39l.63.27-3.36 3.13 4.63 3.33-1.86-.3s-3.74-.36-10 8.42l-11 15.25a6.1 6.1 0 0 1-4.96 2.54zm19.57-33.17c-3.53 0-6.78 1.51-9.84 4.55-3.27 3.25-13.86 19.27-14 19.43a5.24 5.24 0 0 0 1.18 7.32 5.25 5.25 0 0 0 7.3-1.19l11-15.25c4.62-6.43 8-8.18 9.67-8.64l-3.07-2.2 3.15-2.93a14.76 14.76 0 0 0-5.39-1.09z"/><path d="M68.2 364.07c13 9.12 18.22 14.15 8.15 23.17-6.88 6.17-13.85 5.44-21.65-9.26-5.76-10.84-7-22.09-6.16-22.82.29-.25 10.08 2.16 19.66 8.91z" fill="#fff"/><path d="M68.54 391.35a9.1 9.1 0 0 1-1.46-.13c-4.36-.78-8.54-5-12.78-13-5.67-10.7-7.24-22.34-6-23.37.67-.58 11 2.37 20.21 8.89 7.78 5.48 13.31 9.73 13.59 14.56.17 2.89-1.54 5.85-5.4 9.31-2.87 2.49-5.54 3.74-8.16 3.74zm-19.75-35.76c-.45 1.46.83 11.87 6.3 22.18 4.1 7.73 8.08 11.84 12.15 12.57 2.8.5 5.68-.62 8.81-3.43 3.64-3.26 5.27-6 5.11-8.59-.25-4.42-5.88-8.72-13.22-13.88-8.69-6.13-17.63-8.67-19.15-8.85zM79.145 395.236l5.707-4.928.582.674-5.707 4.927z"/><path d="M106.07 113.1v-.49c-.21-2-.63-2.64-3.41-2.64H92.07v26.12c0 2.71.7 3.13 2.65 3.34h.48l.42 1.67H95c-1.12 0-2.51-.14-3.35-.14h-8.84c-.84 0-2.23.14-3.35.14h-.62l.41-1.67h.49c2-.21 2.58-.63 2.58-3.34V110H71.73c-2.71 0-3.13.69-3.34 2.64v.49l-1.67.42v-.63c0-1.11.14-2.5.14-3.34v-8.88c0-.83-.14-2.22-.14-3.34v-.56l1.67.35v.49c.21 2 .63 2.65 3.34 2.65h30.93c2.78 0 3.2-.7 3.41-2.65v-.49l1.67-.35v.56c0 1.12-.14 2.51-.14 3.34v8.85c0 .84.14 2.23.14 3.34v.63zM104.85 214.68c-1.11 0-2.51-.14-3.34-.14h-8.85c-.83 0-2.23.14-3.34.14h-.63l.42-1.67h.49c2-.21 2.65-.63 2.65-3.35v-12.53h-10.1v12.53c0 2.72.69 3.14 2.64 3.35h.49l.35 1.67h-.56c-1.11 0-2.51-.14-3.34-.14h-8.92c-.83 0-2.23.14-3.34.14h-.56l.35-1.67h.49c2-.21 2.64-.63 2.64-3.35v-30.92c0-2.72-.69-3.13-2.64-3.34h-.49l-.35-1.68h.56c1.11 0 2.51.14 3.34.14h8.92c.83 0 2.23-.14 3.34-.14h.56l-.35 1.68h-.49c-2 .21-2.64.62-2.64 3.34v10.93h10.1v-10.93c0-2.72-.7-3.13-2.65-3.34h-.49l-.42-1.68h.63c1.11 0 2.51.14 3.34.14h8.85c.83 0 2.23-.14 3.34-.14h.63l-.35 1.68h-.56c-1.95.21-2.57.62-2.57 3.34v30.92c0 2.72.62 3.14 2.57 3.35h.56l.35 1.67zM100.08 291.25v-.49c-.21-1.95-.7-2.64-3.41-2.64H84l-7.8 7V272c-2.51.07-3 .7-3.2 2.65v.48l-1.68.35v-.56c0-1.11.14-2.5.14-3.34V264c0-.84-.14-2.23-.14-3.34v-.63l1.68.35v.62c.21 1.88.69 2.51 3.2 2.58v-16.14h20.47c2.71 0 3.2-.69 3.41-2.65v-.48l1.67-.35v.56c0 1.11-.21 2.5-.21 3.34v8.08c0 .63.14 1.53.14 2.44l-1.81-.49c-.35-1.12-1.11-1.46-3.2-1.46H85.94v7.1h10.73c2.71 0 3.2-1 3.41-2a1.3 1.3 0 0 0 0-.56l1.67-.34v.62c0 1.12-.21 2.51-.21 3.35v7c0 .84.21 1.67.21 2.79v.55l-1.67-.34a1 1 0 0 0 0-.49c-.21-1.33-.7-2.09-3.41-2.09H85.94v7.17h10.73c2.09 0 2.85-.35 3.2-1.46l1.81-.49c0 .91-.14 1.81-.14 2.44v8.08c0 .84.21 2.23.21 3.34v.56zM85 519.13c-3.07 0-6.69-.28-6.69-.28H72.5c-.84 0-2.23.14-3.34.14h-.56l.35-1.67h.48c1.95-.21 2.65-.63 2.65-3.34v-30.93c0-2.72-.7-3.13-2.65-3.34H69l-.4-1.71h.56c1.11 0 2.5.13 3.34.13h4.74s4.8-.27 7.8-.27a20.62 20.62 0 0 1 0 41.23zm-.84-32.95h-2.33v24.66h2.37a12.33 12.33 0 0 0 0-24.66zM111.75 553.29h-.56c-2 .2-2.58.62-2.58 3.34v15.46a21.42 21.42 0 0 1-42.83 0v-15.46c0-2.72-.63-3.14-2.58-3.34h-.49l-.41-1.68h.62c1.12 0 2.51.14 3.35.14h8.91c.84 0 2.23-.14 3.34-.14h.63l-.42 1.68h-.48c-2 .2-2.65.62-2.65 3.34V572a11.6 11.6 0 1 0 23.19 0v-15.37c0-2.72-.69-3.14-2.64-3.34h-.49l-.35-1.68h.56c1.11 0 2.5.14 3.34.14h8.92c.83 0 2.22-.14 3.34-.14h.63zM100.08 669.14v-.49c-.21-1.95-.7-2.64-3.41-2.64H84l-7.8 7v-23.16c-2.51.07-3 .69-3.2 2.64v.51l-1.68.35v-.56c0-1.11.14-2.5.14-3.34v-7.52c0-.84-.14-2.23-.14-3.35v-.62l1.68.35v.55c.21 1.88.69 2.51 3.2 2.58v-16.11h20.47c2.71 0 3.2-.7 3.41-2.65v-.48l1.67-.35v.56c0 1.11-.21 2.5-.21 3.34v8.08c0 .62.14 1.53.14 2.44l-1.81-.49c-.35-1.12-1.11-1.46-3.2-1.46H85.94v7.1h10.73c2.71 0 3.2-1 3.41-2a1.3 1.3 0 0 0 0-.56l1.67-.35v.63c0 1.12-.21 2.51-.21 3.34v7c0 .84.21 1.67.21 2.79v.55l-1.67-.35a1 1 0 0 0 0-.48c-.21-1.33-.7-2.09-3.41-2.09H85.94v7.1h10.73c2.09 0 2.85-.35 3.2-1.46l1.81-.49c0 .91-.14 1.81-.14 2.44v8.08c0 .83.21 2.23.21 3.34v.56zM101.4 742.72v-.49c-.21-2-.69-2.65-3.41-2.65H85.24l-7.8 7v-42.8c0-2.71-.69-3.13-2.64-3.34h-.49l-.31-1.67h.56c1.11 0 2.51.14 3.34.14h8.92c.83 0 2.23-.14 3.34-.14h.56l-.35 1.67h-.49c-2 .21-2.64.63-2.64 3.34v26.05H98c2.72 0 3.2-.69 3.41-2.64v-.49l1.68-.35v.56c0 1.11-.14 2.51-.14 3.34v8.92c0 .83.14 2.22.14 3.34v.56z" fill="#fff"/></svg>