<svg width="224" height="207" xmlns="http://www.w3.org/2000/svg"><g fill="none" fill-rule="evenodd"><path fill="#000" fill-rule="nonzero" d="M25.059 24.73h174.678v160.177H25.059z"/><path stroke="#000" d="M14.104 13.854h197.09v175.338H14.104z"/><path stroke="#000" d="M14.104 17.809h197.09v175.338H14.104zM1.33 5.285h12.524v12.524H1.33zm209.614 0h12.524v12.524h-12.524z"/><path stroke="#000" d="M210.944 1.33h8.569v12.524h-8.569zm-205.659 0h8.569v12.524H5.285zm218.183 204.34h-12.524v-12.523h12.524zm-209.615 0H1.33v-12.523h12.524z"/><path stroke="#000" d="M13.853 201.716H5.284v-12.524h8.57zm205.66 0h-8.57v-12.524h8.57zM206.989 23.412V181.61M17.809 23.412V181.61"/><path d="M117.56 105.88a1.358 1.358 0 1 0-2.307-1.319l-7.99 12.09c-.658 1.192-.44 2.636.535 3.17.975.534 2.313.04 2.999-1.154l6.763-12.787z" stroke="#000" stroke-width=".97" fill="#FFF" fill-rule="nonzero"/><path d="M109.103 103.282a1.358 1.358 0 1 0-2.01 1.74l8.76 11.543c.903 1.035 2.32 1.318 3.17.547.85-.771.804-2.169-.099-3.21l-9.821-10.62z" stroke="#000" stroke-width=".97" fill="#FFF" fill-rule="nonzero"/><path d="M125.345 97.179c3.065-4.259 4.851-3.955 4.851-3.955l-1.641-1.18 1.51-1.398c-3.422-1.463-5.821-.204-7.568 1.53-1.53 1.502-6.48 9.017-6.48 9.017a2.637 2.637 0 1 0 4.259 3.065l5.069-7.08zm-21.515-4.002c5.985 4.22 8.424 6.54 3.763 10.712-3.183 2.854-6.4 2.518-10.012-4.278-2.637-5.016-3.23-10.217-2.841-10.547.105-.125 4.627.99 9.09 4.113z" stroke="#000" stroke-width=".83" fill="#FFF" fill-rule="nonzero"/><path d="M109.004 107.738l2.637-2.28" stroke="#000" stroke-width=".83"/><path d="M93.995 58.492v-.303c-.125-1.2-.382-1.628-2.096-1.628h-6.526v16.07c0 1.668.428 1.925 1.628 2.057h.297l.257 1.028h-.382c-.66 0-1.543-.085-2.057-.085H79.67c-.514 0-1.37.085-2.056.085h-.383l.257-1.028h.297c1.2-.132 1.589-.389 1.589-2.057v-16.07h-6.526c-1.674 0-1.931.428-2.057 1.628v.303l-1.028.257v-.402c0-.659.086-1.542.086-2.056v-5.425c0-.514-.086-1.371-.086-2.057v-.35l1.028.212v.303c.126 1.2.383 1.628 2.057 1.628h19.05c1.714 0 1.977-.428 2.096-1.628v-.303l1.028-.211v.343c0 .659-.086 1.542-.086 2.056v5.445c0 .514.086 1.37.086 2.056v.39l-1.028-.258zm29.992 17.224c-.66 0-1.543-.085-2.057-.085h-5.438c-.514 0-1.37.085-2.056.085h-.39l.258-1.028h.303c1.2-.132 1.628-.389 1.628-2.057V64.94h-6.216v7.712c0 1.668.429 1.925 1.628 2.057h.303l.211 1.028h-.342c-.66 0-1.543-.086-2.057-.086h-5.484c-.514 0-1.371.086-2.057.086h-.369l.218-1.028h.296c1.2-.132 1.628-.39 1.628-2.057V53.608c0-1.674-.428-1.931-1.628-2.057h-.296l-.218-1.028h.343c.659 0 1.542.086 2.056.086h5.511c.514 0 1.371-.086 2.057-.086h.342l-.21 1.028h-.304c-1.2.126-1.628.383-1.628 2.057v6.717h6.216v-6.717c0-1.674-.428-1.931-1.628-2.057h-.303l-.257-1.028h.389c.659 0 1.542.086 2.056.086h5.438c.514 0 1.371-.086 2.057-.086h.389l-.218 1.028h-.343c-1.2.126-1.582.383-1.582 2.057V72.63c0 1.668.383 1.925 1.582 2.057h.343l.218 1.028h-.39zm26.268 1.846v-.303c-.132-1.2-.429-1.628-2.103-1.628h-7.798l-4.799 4.33v-14.27c-1.542.039-1.839.428-1.977 1.627v.297l-1.029.218v-.343c0-.66.086-1.543.086-2.057V60.82c0-.514-.086-1.37-.086-2.056v-.416l1.029.218v.343c.131 1.153.428 1.542 1.977 1.582v-9.888h12.597c1.674 0 1.977-.428 2.103-1.628v-.303l1.034-.211v.343c0 .659-.131 1.542-.131 2.056v4.97c0 .383.085.943.085 1.497l-1.12-.297c-.211-.66-.66-.903-1.978-.903h-6.591v4.37h6.591c1.674 0 1.978-.6 2.103-1.24a.864.864 0 0 0 0-.342l1.028-.217v.389c0 .659-.132 1.542-.132 2.056v4.285c0 .514.132 1.028.132 1.714v.342l-1.028-.217a.66.66 0 0 0 0-.297c-.132-.817-.429-1.318-2.103-1.318h-6.591v4.41h6.591c1.286 0 1.76-.211 1.978-.897l1.114-.303c0 .56-.086 1.114-.086 1.503v4.97c0 .514.132 1.371.132 2.057v.342l-1.028-.171zm-85.197 81.295c-1.886 0-4.114-.172-4.114-.172h-3.599c-.514 0-1.37.086-2.063.086h-.336l.21-1.028h.304c1.2-.132 1.628-.39 1.628-2.057v-19.023c0-1.675-.428-1.932-1.628-2.057h-.303l-.211-1.028h.336c.692 0 1.55.085 2.063.085h2.914s2.953-.171 4.799-.171c7.004 0 12.682 5.678 12.682 12.682 0 7.005-5.678 12.683-12.682 12.683zm-.515-20.27h-1.456v15.161h1.456a7.587 7.587 0 0 0 0-15.16zm51.54-3.981h-.342c-1.2.125-1.582.382-1.582 2.057v9.511c0 7.281-5.903 13.184-13.184 13.184-7.28 0-13.183-5.903-13.183-13.184v-9.511c0-1.675-.382-1.932-1.582-2.057h-.303l-.257-1.028h.382c.66 0 1.543.085 2.057.085h5.484c.514 0 1.371-.085 2.057-.085h.382l-.257 1.028h-.297c-1.2.125-1.628.382-1.628 2.057v9.426a7.132 7.132 0 1 0 14.264 0v-9.426c0-1.675-.428-1.932-1.628-2.057h-.296l-.218-1.028h.343c.659 0 1.542.085 2.056.085h5.485c.514 0 1.37-.085 2.056-.085h.39l-.199 1.028zm25.833 26.011v-.304c-.125-1.2-.422-1.628-2.096-1.628h-7.798l-4.799 4.33v-14.27c-1.542.04-1.845.428-1.977 1.628v.297l-1.028.217v-.342c0-.66.085-1.543.085-2.057v-4.614c0-.514-.085-1.371-.085-2.057v-.415l1.028.217v.343c.125 1.154.428 1.543 1.977 1.582v-9.887h12.597c1.674 0 1.977-.429 2.096-1.628v-.304l1.035-.21v.342c0 .66-.132 1.543-.132 2.057v4.97c0 .382.086.943.086 1.496l-1.114-.296c-.211-.66-.66-.903-1.978-.903h-6.591v4.37h6.591c1.675 0 1.978-.6 2.096-1.24a.738.738 0 0 0 0-.342l1.035-.218v.39c0 .658-.131 1.542-.131 2.056v4.284c0 .514.131 1.029.131 1.714v.343l-1.035-.218a.58.58 0 0 0 0-.296c-.125-.818-.421-1.319-2.096-1.319h-6.591v4.41h6.591c1.319 0 1.76-.21 1.978-.896l1.114-.303c0 .56-.086 1.114-.086 1.502v4.97c0 .515.132 1.372.132 2.057v.343l-1.035-.171zm26.907 0v-.304c-.125-1.2-.428-1.628-2.096-1.628h-7.844l-4.799 4.33V136.65c0-1.674-.428-1.931-1.628-2.056h-.297l-.217-1.029h.343c.659 0 1.542.086 2.056.086h5.518c.514 0 1.37-.086 2.056-.086h.343l-.211 1.029h-.303c-1.2.125-1.628.382-1.628 2.056v16.025h6.644c1.668 0 1.977-.429 2.096-1.629v-.303l1.028-.21v.342c0 .66-.085 1.543-.085 2.057v5.484c0 .514.085 1.371.085 2.057v.342l-1.06-.197z" fill="#FFF" fill-rule="nonzero"/></g></svg>