<svg viewBox="0 0 250 350" xmlns="http://www.w3.org/2000/svg"><path d="M115 242.48l6.66 17.74c6.13-7.12 11.25-20.16 20.82-22.72 14.21-3.8 45.39 7.05 45.39 7.05l-1.29-4.33-36.8-58.36-33.52-3.52M115 242.48l-6.65 17.74c-6.14-7.12-11.26-20.16-20.83-22.72-14.21-3.8-45.35 7.05-45.35 7.05l3.94-6L99 183.05l16-4.71M126.12 125S142 102.55 147 99.53c0 0-.62-2.44-25.48-2.44h0C96.59 97.09 96 99.53 96 99.53c5 3 20.85 25.45 20.85 25.45z" stroke="#000" stroke-linejoin="round"/><path d="M126 308.04h18.39l7.69-134.84-.4-26.7H92.54l-.18 27.12 6.19 134.42h18.4l6.91-113.08z" fill="#ff506e"/><g stroke="#000"><path d="M134.59 191.94s-3.59 2.9-10.64 2.9h0" fill="none" stroke-linejoin="round"/><path d="M126 308.04h18.39l7.69-134.84-.4-26.7H92.54l-.18 27.12 6.19 134.42h18.4l6.91-113.08z" fill="none" stroke-linejoin="round"/><path d="M124.54 19.18l5 17.66-34.17 4.31V23.84a.79.79 0 0 1 .11-.39h0a.35.35 0 0 1 .28-.17h0a.4.4 0 0 1 .29.12l3.66 3.83s3.55 3.77 7.09 0a53.32 53.32 0 0 0 3.83-5.49c1.37-2 2.86-2.26 4.23-1.94a8.21 8.21 0 0 1 3.14 2.14c4.15 3.82 4.21 3.35 4.51 2.59a19.65 19.65 0 0 0 .61-2l1.06-3.35a.38.38 0 0 1 .18-.05.44.44 0 0 1 .18.05z" fill="#fff" stroke-miterlimit="10"/><path d="M122.86 23.46a6.71 6.71 0 0 1-.36 1.07c-.3.76-.36 1.23-4.51-2.59a8.21 8.21 0 0 0-3.09-2.17c-1.37-.32-2.86-.05-4.23 1.94a53.32 53.32 0 0 1-3.83 5.49c-3.54 3.79-7.09 0-7.09 0L98.53 6.41s-.31-4.33 1.22-4.5 2.65.6 5 2.79 17.85 18.57 17.85 18.57z" fill="#ff506e" stroke-miterlimit="10"/><path d="M99.75 27.22s3.55 3.77 7.09 0a53.32 53.32 0 0 0 3.83-5.49c1.37-2 2.86-2.26 4.23-1.94a8.21 8.21 0 0 1 3.1 2.15c4.15 3.82 4.21 3.35 4.51 2.59a19.65 19.65 0 0 0 .61-2" fill="none" stroke-linecap="round" stroke-linejoin="round"/><ellipse cx="112.49" cy="39.21" rx="17.22" ry="2.42" stroke-miterlimit="10" transform="rotate(-7.07 112.38 39.197)"/><g stroke-linejoin="round"><path d="M140.55 49.73l-7.17 1.46a2.36 2.36 0 0 0-1.76 1.5l-11.29 31.16 12.41-.85z" fill="#f4aa4a"/><path d="M120.69 100.62C109.79 99 102.15 95 97.75 90.2a.91.91 0 0 1-.19-.59 3.56 3.56 0 0 0-1.88-3.1 1.8 1.8 0 0 1-.72-.62 28.68 28.68 0 0 1-3-10.74 48.46 48.46 0 0 1 0-9.1h0a3.17 3.17 0 0 0 1.89-4.54 4.06 4.06 0 0 0-.44-.65 23.94 23.94 0 0 1 14.06-14.77 24.19 24.19 0 0 1 2.87-.85l7.25-1.71 6.75 57.37z" fill="#f4aa4a"/><path d="M140.55 49.73a31.93 31.93 0 0 1 11 20.9c1.6 16.08-9.35 28.6-22.57 30.35-15.65 2.08-27.06-10.53-29-25.84-1.91-14.76 6.25-28.63 17.62-31.62a.7.7 0 0 1 .83.47l11.34 36.38z" fill="#ffef57"/><path d="M134.09 62.11a6.83 6.83 0 0 0 .64 3.49s2.25-2.15 2.63-3.67a7.72 7.72 0 0 0-.18-3.42s-2.93 1.62-3.09 3.6z" fill="#e0913b"/></g></g><path d="M109.88 73.62a2.84 2.84 0 0 1-.07-.72v-1.29a2.79 2.79 0 1 1 5.57.15v1.3a2.77 2.77 0 0 1-.51 1.52 12.71 12.71 0 0 0-4.99-.96zM143.48 74.79c-.34.26-.49-.72-.53-1.18l-.17-1.9a2 2 0 0 1 1.69-2.24 2 2 0 0 1 2.22 1.78l.17 2a2.06 2.06 0 0 1-.26 0 6.66 6.66 0 0 0-3.12 1.54z"/><path d="M136.44 83.12a6.58 6.58 0 0 0-4.16 2.61M147.35 73.25a6.6 6.6 0 0 0-4.35 2.21M108.78 73.92a11 11 0 0 1 7.84 1.54" fill="none" stroke="#000" stroke-linecap="round" stroke-miterlimit="10" stroke-width="1.7"/><path d="M115.81 73.79a2.11 2.11 0 0 1-1.19-.37l-7.14-4.93a2.08 2.08 0 0 1 2.37-3.43L117 70a2.08 2.08 0 0 1 .53 2.9 2.06 2.06 0 0 1-1.72.89zM141.44 74.52a2.09 2.09 0 0 1-1.25-3.76l5.38-4a2.08 2.08 0 1 1 2.48 3.35l-5.38 4a2.09 2.09 0 0 1-1.23.41z"/><path d="M128.21 84.59s3.4-4.68 7.44-4.81c3.14-.1 2.75 2.25 2.75 2.25" fill="none" stroke="#000" stroke-linecap="round" stroke-miterlimit="10" stroke-width="1.5"/><path d="M146.32 119.27a16.76 16.76 0 0 0-11.92-3.86l-1.77 4c-.17.07-2.5 0-8.18-.25l-3.75-4.07h-.21l-13.69.27a17.84 17.84 0 0 0-11.92 3.86c-8 6.41-38.8 93.45-52.68 125.28 60.47-31.24 41.35-48.05 87.81-22.63 3 1.63 6.59-.65 6.87-3.95.31 3.37 4.42 5.8 6.92 3.5 26.54-24.38 12.7-8.75 44.1 23.08-9.15-31.62-34.26-118.69-41.58-125.23z" fill="#fff"/><path d="M146.32 119.27a16.76 16.76 0 0 0-11.92-3.86l-1.77 4c-.17.07-2.5 0-8.18-.25l-3.75-4.07h-.21l-13.69.27a17.84 17.84 0 0 0-11.92 3.86c-8 6.41-38.8 93.45-52.68 125.28 60.47-31.24 41.35-48.05 87.81-22.63 3 1.63 6.59-.65 6.87-3.95.31 3.37 4.42 5.8 6.92 3.5 26.54-24.38 12.7-8.75 44.1 23.08-9.15-31.62-34.26-118.69-41.58-125.23z" fill="none" stroke="#000" stroke-linejoin="round"/><path d="M164.55 212.6l-4.62-14.01M91.7 211.84l6.77-13.25" fill="none" stroke="#000" stroke-miterlimit="10"/><path d="M134 102.82l-3.79 13.84-5.5-13.84S101 102.55 96 99.53l7.78 16.13c2.11.24 14.33-1.77 16 11.44 1.06 7.08 3.92 16.78 14.71 15.48 11.42-1.38 1.56-26.17 4.78-26.92L147 99.53c-5 3.02-13 3.29-13 3.29z" fill="#ff506e"/><path d="M134 102.82l-3.79 13.84-5.5-13.84S101 102.55 96 99.53l7.78 16.13c2.11.24 14.33-1.77 16 11.44 1.06 7.08 3.92 16.78 14.71 15.48 11.42-1.38 1.56-26.17 4.78-26.92L147 99.53c-5 3.02-13 3.29-13 3.29zM136.88 218s-.56-53.4-3-75.33" fill="none" stroke="#000" stroke-linejoin="round"/><ellipse cx="131.09" cy="122.56" fill="#fff" rx="4.74" ry="6.23" transform="rotate(-5.11 131.058 122.5)"/><ellipse cx="131.09" cy="122.56" fill="none" rx="4.74" ry="6.23" stroke="#000" stroke-linejoin="round" transform="rotate(-5.11 131.058 122.5)"/><path d="M122.33 308.4l1.51 40.09H157.11l-10.18-8.19-.09-33.98z" fill="#fff"/><path d="M122.33 308.4l1.51 40.09H157.11l-10.18-8.19-.09-33.98z" fill="none" stroke="#000" stroke-linejoin="round"/><path d="M146.84 316.99h-24.01l-.38-9.93 24.39-.74z" stroke="#000" stroke-linejoin="round"/><path d="M122.6 303.66l24.29.19a4.3 4.3 0 0 1 4.27 4.28v5.29l-5.81.1-2.75-6.25-3.36 6.35-20.92.36-.07-6a4.3 4.3 0 0 1 4.35-4.32z" fill="#ff4848"/><path d="M122.6 303.66l24.29.19a4.3 4.3 0 0 1 4.27 4.28v5.29l-5.81.1-2.75-6.25-3.36 6.35-20.92.36-.07-6a4.3 4.3 0 0 1 4.35-4.32z" fill="none" stroke="#000" stroke-linejoin="round"/><path d="M95.43 308.4l1.51 40.09h34.28l-11.19-8.19-.08-33.98z" fill="#fff"/><path d="M95.43 308.4l1.51 40.09h34.28l-11.19-8.19-.08-33.98z" fill="none" stroke="#000" stroke-linejoin="round"/><path d="M119.95 316.99H95.94l-.39-9.93 24.4-.74z" stroke="#000" stroke-linejoin="round"/><path d="M95.7 303.66l24.3.19a4.3 4.3 0 0 1 4.27 4.28v5.29l-5.81.1-2.75-6.25-3.35 6.35-20.92.38-.07-6a4.3 4.3 0 0 1 4.33-4.34z" fill="#ff4848"/><path d="M95.7 303.66l24.3.19a4.3 4.3 0 0 1 4.27 4.28v5.29l-5.81.1-2.75-6.25-3.35 6.35-20.92.38-.07-6a4.3 4.3 0 0 1 4.33-4.34z" fill="none" stroke="#000" stroke-linejoin="round"/><path d="M62.75 201.67c-1-2.1-1.61-8-1.61-8 1-1.63 9-3.88 16.08-2.38 7.39 1.58 11.07 6.39 10.67 8.13 0 0-3.54 4.56-4.2 4.93" fill="#ff506e"/><path d="M73.38 197.79a16.3 16.3 0 0 1 9.5 5.4l.25.3a12.51 12.51 0 0 1 1.75 3.59 19.51 19.51 0 0 0 .61 2l1 4.15 1.38 4.57-.53 1.48a4.52 4.52 0 0 1-2 2.3 4.2 4.2 0 0 1-2 .21 8 8 0 0 1-1.92 2.71 3.67 3.67 0 0 1-2.46.77 3.86 3.86 0 0 1-3.52-2.86c-.57 3-2.75 3.73-3.46 3.73a5 5 0 0 1-3.43-.94 5.71 5.71 0 0 1-1-3.49l-.36.71a3.08 3.08 0 0 1-1 1.34l-.68.35a9.67 9.67 0 0 1-2.51-1.25c-1.18-.73-2.07-4-2.23-5.28a30.81 30.81 0 0 1 1.54-14.24 7.61 7.61 0 0 1 3.08-4.15 15.41 15.41 0 0 1 7.99-1.4z" fill="#fff"/><g stroke="#000" fill="none" stroke-linecap="round" stroke-linejoin="round"><path d="M62.75 201.67c-1-2.1-1.61-8-1.61-8 1-1.63 9-3.88 16.08-2.38 7.39 1.58 11.07 6.39 10.67 8.13 0 0-3.39 4.52-4 4.88"/><path d="M83.67 204.25a15.92 15.92 0 0 0-10.34-6.45 15.41 15.41 0 0 0-8 1.4 7.59 7.59 0 0 0-3.07 4.15c-1.3 3.18-1.81 7.29-1.66 12.33.09 3.2 1.06 6.23 2.39 7.18 1.51 1 3.26 2.42 4.57-1.16M83.22 211.85c1.11 5.3 1 10-1.35 12.23a3.79 3.79 0 0 1-6.47-1.94"/><path d="M75.4 220.24c.34 3.73-1.26 5.25-2.83 5.74a4.64 4.64 0 0 1-4.14-.88 7.8 7.8 0 0 1-.68-5.4M83.75 204.29c1.92 3.76 2.36 9.11 4 13 .26.64-.3 1.65-.57 2.29M83.32 221.72h1c1.25 0 1.73-.45 2.43-1.48l.42-.63"/></g><path d="M202.39 192.71a5.5 5.5 0 0 0 2.84.59 3.58 3.58 0 0 0 2.8-3.24 5.19 5.19 0 0 0-1.74-4.1 9.84 9.84 0 0 0-4-2.15c-.5-.15-.81-.27-1.32-.4l-.12.1.44-1.25c.75-2.28-1.87-5-1.87-5-2.38-2-12.35-2-12.35-2s-6 1.79-9.4 12.86a3.7 3.7 0 0 0 .74 2.94c1.79 2.33 5.12 5.93 9.53 6.7.11 0 .13.11.2.11 0 .18.32.44.38.61.41 1.36 1.78 2.12 2.89 3.16a7.93 7.93 0 0 0 4.69 2.13 5.83 5.83 0 0 0 1.87-.42c1.45-.5 2.06-2.68 1.63-4.16l-.06-.37a3.18 3.18 0 0 0 1.67.13c1-.22 1.25-.12 1.71-1a5.15 5.15 0 0 0-.53-5.24zm-10.33.24" fill="#fff"/><path d="M187.54 175.46a19.27 19.27 0 0 0-4.18-3c-1.76.11-7.08 3.12-8.89 8.52-1.9 5.67-1.22 11 .38 11.34 0 0 4.86 1.57 5.34 1.56l.32-.46-.69-.7c-1.29-1.06-2.71-4.13-.63-9.15 2-4.77 6-8.44 7.78-8.41z" fill="#ff506e"/><path d="M188 197.63c-3.23-.16-5.77-2.34-7.8-4.48 0 0-3.53-3-1-9.54 1.85-4.81 6.27-8.33 8-8.3" fill="none" stroke="#000" stroke-linecap="round" stroke-linejoin="round"/><path d="M187.73 175.35a17.19 17.19 0 0 0-4.37-2.85c-1.76.11-7.08 3.12-8.89 8.52-1.9 5.67-1.22 11 .38 11.34 0 0 5.23 1.43 5.71 1.41" fill="none" stroke="#000" stroke-linecap="round" stroke-linejoin="round"/><path d="M228 143.11l4.66 3.34-3 4.18a5 5 0 0 1-2.56-.34l-2.31 3s.93 3.19.45 4.54l-4.49 1.33-.4.56-31.47 44-3.6 2a1.08 1.08 0 0 1 0 .16l-2.52 5.62-4.41 2.16a3 3 0 0 1-.77-.31 2.91 2.91 0 0 1-.54-.62l.62-4.88 4.51-4.2.14-.06.77-4.06 31.47-44 .39-.55-.18-4.69c1.11-.89 4.44-1 4.44-1l2.11-3.16a4.94 4.94 0 0 1-1.15-2.31l3-4.18 4.66 3.34z" fill="#96543c"/><path d="M185.29 205.75a1.08 1.08 0 0 1 0 .16l-2.52 5.62-4.41 2.16a3 3 0 0 1-.77-.31 2.91 2.91 0 0 1-.54-.62l.62-4.88 4.51-4.2.14-.06-.57 3.24.38.27.37.26z" fill="#ccc"/><path d="M228 143.11l4.66 3.34-3 4.18a5 5 0 0 1-2.56-.34l-2.31 3s.93 3.19.45 4.54l-4.49 1.33-.4.56-31.47 44-3.6 2a1.08 1.08 0 0 1 0 .16l-2.52 5.62-4.41 2.16a3 3 0 0 1-.77-.31h0a2.91 2.91 0 0 1-.54-.62l.62-4.88 4.51-4.2.14-.06.77-4.06 31.47-44 .39-.55-.18-4.69c1.11-.89 4.44-1 4.44-1l2.11-3.16a4.94 4.94 0 0 1-1.15-2.31l3-4.18 4.66 3.34z" fill="none" stroke="#000" stroke-linecap="round" stroke-linejoin="round"/><ellipse cx="231.5" cy="137.95" fill="#ccc" rx="9.05" ry="8.64" transform="rotate(-54.41 231.508 137.954)"/><ellipse cx="218.82" cy="155.77" fill="#ccc" rx="4.53" ry="4.32" transform="rotate(-54.41 218.83 155.774)"/><ellipse cx="231.5" cy="137.95" fill="none" rx="9.05" ry="8.64" stroke="#000" stroke-linecap="round" stroke-linejoin="round" transform="rotate(-54.41 231.508 137.954)"/><ellipse cx="218.77" cy="155.74" fill="none" rx="4.59" ry="4.38" stroke="#000" stroke-linecap="round" stroke-linejoin="round" transform="rotate(-54.41 218.787 155.739)"/><path d="M185.29 205.75l-2.54 1.47a.63.63 0 0 1-.6 0l-.1-.07M182.23 203.56l-.57 2.88a.65.65 0 0 0 .21.56l.1.07M221.23 146.09a14 14 0 0 0 2.49 2.5l.22.15a13.58 13.58 0 0 0 3.17 1.55" fill="none" stroke="#000" stroke-linecap="round" stroke-linejoin="round"/><path d="M183.34 178.59a7 7 0 0 0 1.44 5c1.85 2.33 5.82 2.26 8.65 1.62l-.9 3.15a4.24 4.24 0 0 0 .49 2.06s-1.51.15-1.44 2.65v.14s-1.52-1-2.83 1.18-1 3.45.1 4.73a43.46 43.46 0 0 0 3.88 3.51 6.75 6.75 0 0 0 3.29 1c2 .12 4.3-1.6 3.56-5 0 0 2.87.81 3.83-1.31s-1-4.68-1-4.68 4 2 5.32-1.47c0 0 1.33-3.22-2-5.86a14.26 14.26 0 0 0-4.83-2s2.42-4.94-3.55-7.31a60.43 60.43 0 0 0-9.61-.68l-1.06.4a5.73 5.73 0 0 0-2.9 2.29z" fill="#fff"/><path d="M187.23 175.33a65.43 65.43 0 0 1 10.28.83 5.8 5.8 0 0 1 3 2.16 5.36 5.36 0 0 1 .8 3.94s-1.47 3.83-2.88 6.58c0 0-2 5.26-4.69 2.47a3.43 3.43 0 0 1-1-3.56l1.5-4.54" fill="none" stroke="#000" stroke-linecap="round" stroke-linejoin="round"/><path d="M200.94 183.41c.51.13.82.25 1.32.4a9.84 9.84 0 0 1 4 2.15 5.19 5.19 0 0 1 1.74 4.1 3.58 3.58 0 0 1-2.8 3.24 6 6 0 0 1-3.75-1.11l-3.65-2" fill="none" stroke="#000" stroke-linecap="round" stroke-linejoin="round"/><path d="M193 190.44a1.32 1.32 0 0 0-1 .79c-1.76 3 1.77 4.49 1.77 4.49l3.64 2a6 6 0 0 0 3.76 1.11 2.56 2.56 0 0 0 2.4-2.61 5.38 5.38 0 0 0-1.14-3.51" fill="none" stroke="#000" stroke-linecap="round" stroke-linejoin="round"/><path d="M199.56 198.85a5.08 5.08 0 0 1 0 2.39 3.57 3.57 0 0 1-3.49 2.48 6.79 6.79 0 0 1-3.91-1.45c-.88-.82-2.19-2-3.06-2.83a3.7 3.7 0 0 1-.11-5.3 2.13 2.13 0 0 1 2.59-.87M193.54 185.24s-8.79 2.15-10-4.11" fill="none" stroke="#000" stroke-linecap="round" stroke-linejoin="round"/></svg>