<svg data-name="Layer 1" xmlns="http://www.w3.org/2000/svg" viewBox="0 0 440 440"><defs><clipPath id="a"><rect data-name="&lt;Rectangle&gt;" x="86.9" y="76.9" width="266.4" height="266.4" rx="133.2" ry="133.2" fill="#ffef57" stroke="#000" stroke-linejoin="round" stroke-width="1.01"/></clipPath><clipPath id="b"><path data-name="&lt;Clipping Path&gt;" d="M236.5 283.4L190.2 213l16.4-13.3 56.3 74.9a8.6 8.6 0 0 1-6.9 13.8h-10.3a11.1 11.1 0 0 1-9.2-5z" fill="#ffef57" stroke="#000" stroke-linejoin="round"/></clipPath><clipPath id="c"><path data-name="&lt;Clipping Path&gt;" d="M201.9 285.8l45.5-71.1-15.6-12.6-56.3 74.9a8.6 8.6 0 0 0 6.9 13.8h10.3a11.1 11.1 0 0 0 9.2-5z" fill="#ffef57" stroke="#000" stroke-linejoin="round"/></clipPath></defs><circle cx="220.1" cy="210.1" r="209.4" fill="#ffff85" stroke="#000" stroke-miterlimit="10" stroke-width="1.01"/><circle cx="220.1" cy="210.1" r="154.1" fill="#ffd45a" stroke="#000" stroke-linejoin="round" stroke-width=".73"/><circle cx="220.1" cy="210.1" r="146.9" stroke="#000" stroke-linejoin="round"/><path fill="none" stroke="#000" stroke-miterlimit="10" d="M284.6 78.7L155.8 341.4M89.1 145.3L351 273.7M158.6 77.2l123.1 265.5M87.3 271L352 148.3M220.2 63.6v292.6M74 209.4h291.7"/><rect x="74.5" y="64.5" width="291.2" height="291.23" rx="145.6" ry="145.6" fill="#fff" stroke="#000" stroke-miterlimit="10"/><path d="M400.9 231.9v6.3h.7v-6.3a6.4 6.4 0 0 1 6.4-6.4h6.4v-.8H408a6.4 6.4 0 0 1-6.4-6.4v-5.7h-.7v5.7a6.4 6.4 0 0 1-6.4 6.4h-5.7v.8h5.7a6.4 6.4 0 0 1 6.4 6.4zM37.5 231.7v6.1h.7v-6.1a6.3 6.3 0 0 1 6.2-6.2h6.2v-.8h-6.2a6.3 6.3 0 0 1-6.2-6.2v-5.6h-.7v5.6a6.3 6.3 0 0 1-6.2 6.2h-5.6v.8h5.6a6.3 6.3 0 0 1 6.2 6.2z"/><path fill="none" stroke="#000" stroke-miterlimit="10" d="M220.1 64.5v24.8M117.1 107.1l17.6 17.6M74.5 210.1h24.8M117.1 313l17.6-17.5M220.1 355.7v-24.8M323.1 313l-17.6-17.5M365.7 210.1h-24.8M323.1 107.1l-17.6 17.6M220.1 86.9v11.5"/><rect data-name="&lt;Rectangle&gt;" x="86.9" y="76.9" width="266.4" height="266.4" rx="133.2" ry="133.2" fill="#ffef57"/><g clip-path="url(#a)" stroke="#000"><path fill="#3f3f3f" stroke-linejoin="round" d="M1.1-8.9h73v73h-73zM74.1-8.9h73v73h-73zM147.1-8.9h73v73h-73zM220.1-8.9h73v73h-73zM293.1-8.9h73v73h-73zM366.1-8.9h73v73h-73zM1.1 64.1h73v73h-73zM74.1 64.1h73v73h-73zM147.1 64.1h73v73h-73zM220.1 64.1h73v73h-73zM293.1 64.1h73v73h-73zM366.1 64.1h73v73h-73zM1.1 137.1h73v73h-73zM74.1 137.1h73v73h-73zM147.1 137.1h73v73h-73zM220.1 137.1h73v73h-73zM293.1 137.1h73v73h-73zM366.1 137.1h73v73h-73zM1.1 210.1h73v73h-73zM74.1 210.1h73v73h-73zM147.1 210.1h73v73h-73zM220.1 210.1h73v73h-73zM293.1 210.1h73v73h-73zM366.1 210.1h73v73h-73zM1.1 283.1h73v73h-73zM74.1 283.1h73v73h-73zM147.1 283.1h73v73h-73zM220.1 283.1h73v73h-73zM293.1 283.1h73v73h-73zM366.1 283.1h73v73h-73zM1.1 356.1h73v73h-73zM74.1 356.1h73v73h-73zM147.1 356.1h73v73h-73zM220.1 356.1h73v73h-73zM293.1 356.1h73v73h-73zM366.1 356.1h73v73h-73z"/><path fill="#ffff85" stroke-miterlimit="10" stroke-width="1.01" d="M45.7 289.6l28.8-46.9 36.7-60.3 36.3 60.3 36.1-60.3 37 60.3 35.4-60.3 37.6 60.3 34.8-60.3 38.3 60.3 9.9 72.8-310 48.9-20.9-74.8z"/><path fill="#fff" stroke-miterlimit="10" stroke-width="1.01" d="M45.7 317.5l28.8-46.9 36.7-60.3 36.3 60.3 36.1-60.3 37 60.3 35.4-60.3 37.6 60.3 34.8-60.3 38.3 60.3 9.9 72.7-310 49-20.9-74.8z"/></g><rect data-name="&lt;Rectangle&gt;" x="86.9" y="76.9" width="266.4" height="266.4" rx="133.2" ry="133.2" fill="none" stroke="#000" stroke-linejoin="round" stroke-width="1.01"/><path fill="#ffd45a" stroke="#000" stroke-linejoin="round" stroke-width=".73" d="M120.1 121.6l11.3-11.2v11.4h-10.9M320.5 121.7h-10.9v-11.5l10.6 11.5M120.1 298.5l11.3 11.2v-11.4h-10.9M320.5 298.4h-10.9v11.5l10.6-11.5"/><path d="M162.7 307.5h-3.5v10.6h-1.7v-10.6H154V306h8.6v1.5zM172.4 312.1v6.1h-1.7v-5.9a1.4 1.4 0 0 0-1.5-1.7c-1.4 0-2.4 1.3-2.4 3v4.6h-1.7v-13.1h1.7v5.6a2.9 2.9 0 0 1 2.8-1.6c1.8 0 2.8 1.1 2.8 3zM176.6 314.2c.1 1.8 1.1 2.8 2.7 2.8a2.9 2.9 0 0 0 2.5-1.3l1.1.9a4.3 4.3 0 0 1-3.7 1.8c-2.7 0-4.4-1.8-4.4-4.6s1.6-4.7 4.2-4.7 4 1.8 4 4.7v.4h-6.4zm0-1.3h4.7c-.2-1.5-1-2.3-2.3-2.3a2.4 2.4 0 0 0-2.3 2.3zM203.6 318.2h-1.5v-1.7a2.8 2.8 0 0 1-2.9 2c-2.5 0-3.9-2.2-3.9-6.3s1.5-6.3 4.3-6.3a3.6 3.6 0 0 1 3.7 2.8l-1.5.5a2.3 2.3 0 0 0-2.3-1.8c-1.8 0-2.6 1.6-2.6 4.8s.8 4.7 2.6 4.7 2.3-1.1 2.3-3.2v-.6h-2.3v-1.5h3.9v6.5zM213.6 312.4v5.8H212v-1.6a3.1 3.1 0 0 1-3.1 1.8c-2 0-3.2-1.1-3.2-2.8s1.2-2.7 3.3-2.7h2.9v-.4c0-1.3-.7-2-2.1-2a3.1 3.1 0 0 0-2.6 1.1l-1.1-1a4.6 4.6 0 0 1 3.8-1.6c2.4.1 3.7 1.2 3.7 3.4zm-1.7 1.9h-2.8c-1.1 0-1.7.5-1.7 1.4s.6 1.4 1.7 1.4a2.6 2.6 0 0 0 2.8-2.9zM224.5 316.5a3.7 3.7 0 0 1-3.4 1.9 2.8 2.8 0 0 1-3-3.1v-4.6h-2.3v-1.5h2.2l.3-3.2h1.3v3.2h4v1.5h-4v4.4a1.4 1.4 0 0 0 1.5 1.7 2.3 2.3 0 0 0 2-1.3zM234.1 312.1v6.1h-1.7v-5.9a1.4 1.4 0 0 0-1.5-1.7c-1.4 0-2.4 1.3-2.4 3v4.6h-1.7v-13.1h1.7v5.6a2.9 2.9 0 0 1 2.8-1.6c1.8 0 2.8 1.1 2.8 3zM238.3 314.2c.1 1.8 1.1 2.8 2.7 2.8a2.9 2.9 0 0 0 2.5-1.3l1.1.9a4.3 4.3 0 0 1-3.7 1.8c-2.7 0-4.4-1.8-4.4-4.6s1.6-4.7 4.2-4.7 4 1.8 4 4.7v.4h-6.4zm0-1.3h4.7c-.2-1.5-1-2.3-2.3-2.3a2.4 2.4 0 0 0-2.3 2.3zM255.2 311.2l-1.4.7a1.9 1.9 0 0 0-1.9-1.3c-1.6 0-2.7 1.3-2.7 3.4v4.2h-1.7v-8.9h1.6v1.9a3.1 3.1 0 0 1 3-2.1 3 3 0 0 1 3.1 2.1zM265.2 316.7v1.5h-7.9v-1.5h3.1v-5.9h-2.8v-1.5h4.5v7.4h3.1zm-5.4-10.7a1.3 1.3 0 1 1 1.3 1.3 1.3 1.3 0 0 1-1.3-1.3zM275.2 312.1v6.1h-1.7v-5.9a1.4 1.4 0 0 0-1.5-1.7c-1.4 0-2.4 1.3-2.4 3v4.6H268v-8.9h1.5v1.6a2.9 2.9 0 0 1 2.9-1.8c1.8 0 2.8 1.1 2.8 3zM285.7 309.3v9c0 2.5-1.5 3.9-4.1 3.9a4.1 4.1 0 0 1-3.8-1.8l1.2-.9a2.8 2.8 0 0 0 2.6 1.2c1.7 0 2.5-.8 2.5-2.6v-1.4a2.9 2.9 0 0 1-2.8 1.6c-2.3 0-3.7-1.8-3.7-4.6s1.5-4.6 3.7-4.6a2.9 2.9 0 0 1 2.9 1.9v-1.6h1.5zm-1.7 4.6v-.3c0-1.7-1-3-2.5-3s-2.3 1.2-2.3 3.1.9 3.1 2.3 3.1 2.5-1.2 2.5-2.9z"/><path d="M258.4 113.5c-4.7 0-7.4.1-9 1.3s-2.1 5.3-2.1 13.9c0-8.8 0-12.5-2.2-14s-4.3-1.1-8.8-1.2c4.4 0 7.1 0 8.7-1s2.4-5.1 2.4-14.2c0 8.4 0 12.2 1.9 13.8s4.2 1.4 9.1 1.4zM242.2 138.3c-3.9 0-6.1 0-7.3.8s-1.7 3.4-1.7 8.8c0-5.6 0-7.9-1.8-8.9s-3.5-.7-7.2-.7c3.6 0 5.8 0 7-.6s2-3.2 2-9c0 5.4 0 7.7 1.5 8.8s3.5.8 7.5.8zM208.4 118.3c-5.6.1-8.8.1-10.6 1.5s-2.4 6.2-2.4 16.4c0-10.4 0-14.8-2.6-16.6s-5-1.3-10.5-1.4c5.2 0 8.4 0 10.3-1.1s2.8-6 2.8-16.8c0 10 0 14.4 2.2 16.4s5 1.6 10.8 1.6z" fill="#fff" stroke="#fff" stroke-miterlimit="10"/><path d="M258.5 218.8a6.3 6.3 0 0 0 .9-5.1h0a6.3 6.3 0 0 1 .9-5.1l26.9-38.6a10.9 10.9 0 0 1 12.2-4.1l11.8 5-.3-17.4 20.4-7.2-31.5-22.1a27.6 27.6 0 0 0-19.6-4.9 21.4 21.4 0 0 0-15.7 10.1C253.4 147 220.4 186 220.4 186l-21-29.3a113.3 113.3 0 0 0-19.7-21.4c-10.9-9.1-23.4-15.9-36.6-16.6 0 0-9.5 92.4 25.3 101l11.5.3a8.2 8.2 0 0 1 6.6 3.7l5.7 8.8a8.2 8.2 0 0 1-.3 9.3l-24.8 33.7a11.6 11.6 0 0 0-2.2 8.3c.7 5.2 3.8 12.3 16.1 12.3h15.9a15.5 15.5 0 0 0 12.7-6.7l9.2-13.2 11.7 14.2a15.5 15.5 0 0 0 12 5.6h16.6s17-4.1 15.1-17.7c-1.6-11.9-21.2-35.7-26.2-41.5a2.3 2.3 0 0 1-.1-2.8z" fill="#fff" stroke="#000" stroke-miterlimit="10"/><path d="M208.7 183.5c1.1 1.6-14.2 4.6-1.5 21-22.2 9.3-33.2 14.8-45.4-2.7s-11.5-73.1-11.5-73.1 24.6 1.8 58.4 54.8z" fill="#fff" stroke="#000" stroke-linejoin="round" stroke-width="1.01"/><path data-name="&lt;Clipping Path&gt;" d="M236.5 283.4L190.2 213l16.4-13.3 56.3 74.9a8.6 8.6 0 0 1-6.9 13.8h-10.3a11.1 11.1 0 0 1-9.2-5z" fill="#ffef57"/><g clip-path="url(#b)"><path d="M219.5 213.2l-17.8 24.7 20.4 28.8 19-29.1-21.6-24.4zM199.6 227.3s-2.8-5.1 0-8.3 15.9-11.2 15.9-11.2l-3.9-6.8-22.4 13.6z"/></g><path data-name="&lt;Clipping Path&gt;" d="M236.5 283.4L190.2 213l16.4-13.3 56.3 74.9a8.6 8.6 0 0 1-6.9 13.8h-10.3a11.1 11.1 0 0 1-9.2-5z" fill="none" stroke="#000" stroke-linejoin="round"/><rect x="186.8" y="202.7" width="26.4" height="11.71" rx="2.6" ry="2.6" transform="rotate(-35 199.926 208.614)" fill="#ffd45a" stroke="#000" stroke-linejoin="round"/><circle cx="244.7" cy="272" r="3.6" transform="rotate(-35 244.659 271.884)" stroke="#000" stroke-miterlimit="10"/><circle cx="214.8" cy="231" r="3.6" transform="rotate(-35 214.857 230.93)" fill="#fff" stroke="#000" stroke-miterlimit="10"/><path data-name="&lt;Clipping Path&gt;" d="M201.9 285.8l45.5-71.1-15.6-12.6-56.3 74.9a8.6 8.6 0 0 0 6.9 13.8h10.3a11.1 11.1 0 0 0 9.2-5z" fill="#ffef57"/><g clip-path="url(#c)"><path d="M227.6 213.2c-4.9.1-5.8 2.5-10.3 4.3-8.1 3.2-21.1 12.6-29.3 15.9a235.1 235.1 0 0 0 33.8-34.2c1.5-1.9 3.1-3.8 5.3-4.7a11.8 11.8 0 0 1 4.7-.6c6.4.1 13 1.9 17.8 6.1s7.3 11.4 4.9 17.3a18.7 18.7 0 0 1-5 6.6c-2.2 2-2.5 1.3-5.2-.3-5.3-3-10.5-10.5-16.7-10.4z" stroke="#000" stroke-linejoin="round"/></g><path data-name="&lt;Clipping Path&gt;" d="M201.9 285.8l45.5-71.1-15.6-12.6-56.3 74.9a8.6 8.6 0 0 0 6.9 13.8h10.3a11.1 11.1 0 0 0 9.2-5z" fill="none" stroke="#000" stroke-linejoin="round"/><circle cx="219.3" cy="239" r="3.6" transform="rotate(-55 219.374 238.962)" stroke="#000" stroke-miterlimit="10"/><circle cx="192.2" cy="274.4" r="3.6" transform="rotate(-55 192.159 274.358)" stroke="#000" stroke-miterlimit="10"/><path d="M245.9 212.7l-11.9-8.3c.1-.1 10.7-14.1.7-20.3l35.3-46.6a20.5 20.5 0 0 1 28.6-5l17 11.9a1.1 1.1 0 0 1-.5 2l-12.9.9 3.2 13.5a1.1 1.1 0 0 1-1.7 1.1l-8.8-6.2a7.4 7.4 0 0 0-10.3 1.8L246.4 212z" fill="#fff" stroke="#000" stroke-linejoin="round" stroke-width="1.01"/><rect x="225.1" y="202.7" width="26.4" height="11.71" rx="2.6" ry="2.6" transform="rotate(-145 238.263 208.58)" fill="#ffd45a" stroke="#000" stroke-linejoin="round"/><circle cx="174.7" cy="188.8" r="7.8" stroke="#000" stroke-linejoin="round" stroke-width=".75"/><circle cx="168.2" cy="169.9" r="6.4" stroke="#000" stroke-linejoin="round" stroke-width=".75"/><circle cx="163.2" cy="153.5" r="5" stroke="#000" stroke-linejoin="round" stroke-width=".75"/><circle cx="251.7" cy="182.1" r="4.3" stroke="#000" stroke-linejoin="round" stroke-width=".75"/><circle cx="262.1" cy="167.8" r="4.3" stroke="#000" stroke-linejoin="round" stroke-width=".75"/><circle cx="273.3" cy="153.5" r="4.3" stroke="#000" stroke-linejoin="round" stroke-width=".75"/></svg>