<svg height="380" width="641" xmlns="http://www.w3.org/2000/svg"><mask id="a" fill="#fff"><path d="M0 343.223h639.791V.388H0z" fill-rule="evenodd"/></mask><g fill="none" fill-rule="evenodd"><path d="M347.05 296.006l-10.968 7.539h-18.507l-15.764 9.594h-26.047l-21.249 13.258v16.21l-9.597 6.167v19.873l17.822 10.965h17.82l17.823-9.594h31.53l8.226-5.483h49.352l13.946-8.317h17.112l41.6-24.576v-12.336l-16.4-9.593h-48.032l-21.25-13.707z" fill="#fff"/><path d="M251.871 37.584l-23.733 14.154v12.07l13.49 8.244v15.985l-18.361 10.99H177.09l-13.782 8.616h-38.972l-23.983-14.236H33.527L1.334 113.03v46.416l.438-.058 22.198 14.077-13.634 7.9v8.94L37.5 206.308v7.07l11.642 6.786v11.087l21.9 13.856h46.847l16.91 9.423v6.651l24.948 15.52v18.847l32.433 19.122h36.314l23.284-13.858V282.8l26.612-14.135h31.88l15.245 13.58h34.651l12.72-8.826.07.335 32.505 20.143h38.684l28.207 17.726h55.609l30.625-18.263v-20.413l-41.102-23.634v-21.487l18.805-11.012h26.595l37.342 22.56h28.475l12.09-6.982v-16.383l-22.835-13.161v-24.172L587.87 160.95h-18l-17.73-11.012h-47.013l-35.191-22.024V113.41l-21.24-12.753.028-.218-.358-.01-28.78-17.137h-38.307l-10.743-5.995V62.311l-29.062-17.608h-42.137l-11.241-7.119z" fill="#fff"/><path d="M273.45 187.924l38.486-22.834h37.338l13.62 8.438-13.62 8.27v15.288l-23.47 15.287-15.517-9.243h-12.755z" fill="#fff339"/><g stroke="#000"><path d="M301.186 312.052h-25.984l-21.197 13.226v16.17l-9.573 6.152v19.826l17.778 10.938h17.778l17.779-9.571h31.454l8.206-5.47h49.231l13.913-8.296h17.07l41.499-24.517v-12.306l-16.36-9.57h-47.916l-21.197-13.673h-27.352l-10.94 7.52h-18.462zM273.896 188.37l38.487-22.834h37.337l13.62 8.439-13.62 8.27v15.288l-23.47 15.287-15.517-9.244h-12.754z"/><path d="M349.72 165.536l10.112-6.645-11.524-7.77 54.134-33.224h15.812l29.371-17.865 21.279 12.775v14.468l35.106 21.97h46.898l17.687 10.986h17.955l30.016 17.682v24.114l22.779 13.129v16.343l-12.06 6.967H598.88l-37.251-22.506h-26.53l-18.76 10.985v21.435l41.002 23.577v20.363l-30.55 18.219h-55.475l-28.139-17.683h-38.59L372.16 272.76"/><path d="M273.77 188.438L246 171.473h-61.645l-56.465-34.006H37.24L1.743 158.59l22.276 14.128-13.601 7.88v8.918l27.1 15.964v7.053l11.614 6.77v11.06l21.846 13.823h46.734l16.869 9.4v6.635l24.888 15.482v18.8l32.354 19.077h36.226l23.229-13.824v-17.97l26.546-14.1h31.802l15.21 13.547H359.4l12.759-8.853v-8.574l-74.233-44.744v-15.866"/><path d="M447.545 99.951l-28.87-17.19H380.46l-10.716-5.98v-14.95l-28.992-17.565h-42.035l-11.214-7.1h-36.136l-23.676 14.118v12.042l13.458 8.223v15.946l-18.317 10.963h-46.064l-13.748 8.596h-38.878l-23.925-14.202H33.553L1.438 112.428v46.304M284.902 347.338v-43.967"/></g><path d="M326.005 318.558s-2.396 3.478-9.866 3.478c-7.471 0-13.744-4.162-10.779-2.452 2.966 1.71-5.474-3.534-12.09-3.534-6.615 0-9.352 2.508-9.352 2.508v-36.006s4.676-2.623 10.721-2.623 7.87 2.281 10.493 3.65c2.623 1.368 6.387 2.964 10.95 2.964 6.786 0 9.923-3.99 9.923-3.99z" fill="#ff8d8d"/><path d="M326.005 318.558s-2.396 3.478-9.866 3.478c-7.471 0-13.744-4.162-10.779-2.452 2.966 1.71-5.474-3.534-12.09-3.534-6.615 0-9.352 2.508-9.352 2.508v-36.006s4.676-2.623 10.721-2.623 7.87 2.281 10.493 3.65c2.623 1.368 6.387 2.964 10.95 2.964 6.786 0 9.923-3.99 9.923-3.99z" stroke="#000"/><path d="M304.961 308.866c-4.074 0-7.39-3.315-7.39-7.388 0-.986.194-1.95.569-2.846l3.328 2.658 3.54-6.053 3.889 6.112 2.897-2.69c.367.887.557 1.842.557 2.819 0 4.073-3.315 7.388-7.39 7.388m8.198-12.915l-.816-1.207-2.948 2.737-4.479-7.036-4.147 7.093-3.308-2.642-.754 1.14a9.84 9.84 0 0 0-1.632 5.442c0 5.45 4.435 9.885 9.886 9.885 5.452 0 9.887-4.435 9.887-9.885 0-1.98-.584-3.892-1.69-5.527" fill="#fff"/><path d="M305.66 301.78l-.697-.472-.699.47c-2.19 1.476-2.949 3.904-3.056 4.287h2.66a5.794 5.794 0 0 1 1.095-1.633c.414.39.92.955 1.262 1.633h2.67c-.726-2.565-3.132-4.216-3.234-4.285" fill="#fff"/><path d="M221.212 146.995v-43.967" stroke="#000"/><path d="M262.315 118.215s-2.395 3.478-9.865 3.478c-7.471 0-13.744-4.162-10.78-2.452 2.967 1.71-5.473-3.534-12.089-3.534-6.616 0-9.353 2.508-9.353 2.508V82.21s4.677-2.623 10.722-2.623 7.87 2.28 10.493 3.65c2.623 1.368 6.387 2.964 10.95 2.964 6.785 0 9.922-3.99 9.922-3.99z" fill="#ac87f8"/><path d="M262.315 118.215s-2.395 3.478-9.865 3.478c-7.471 0-13.744-4.162-10.78-2.452 2.967 1.71-5.473-3.534-12.089-3.534-6.616 0-9.353 2.508-9.353 2.508V82.21s4.677-2.623 10.722-2.623 7.87 2.28 10.493 3.65c2.623 1.368 6.387 2.964 10.95 2.964 6.785 0 9.922-3.99 9.922-3.99zM87.62 222.318V178.35" stroke="#000"/><path d="M128.723 193.538s-2.395 3.478-9.866 3.478c-7.47 0-13.743-4.162-10.779-2.452 2.967 1.71-5.474-3.534-12.089-3.534-6.616 0-9.353 2.508-9.353 2.508v-36.006s4.677-2.623 10.722-2.623 7.87 2.28 10.493 3.649c2.623 1.369 6.387 2.965 10.949 2.965 6.786 0 9.923-3.99 9.923-3.99z" fill="#55d58e"/><path d="M128.723 193.538s-2.395 3.478-9.866 3.478c-7.47 0-13.743-4.162-10.779-2.452 2.967 1.71-5.474-3.534-12.089-3.534-6.616 0-9.353 2.508-9.353 2.508v-36.006s4.677-2.623 10.722-2.623 7.87 2.28 10.493 3.649c2.623 1.369 6.387 2.965 10.949 2.965 6.786 0 9.923-3.99 9.923-3.99zM468.203 236.295V192.33" stroke="#000"/><path d="M509.306 207.515s-2.396 3.478-9.866 3.478c-7.471 0-13.744-4.162-10.779-2.452 2.966 1.71-5.474-3.534-12.09-3.534-6.615 0-9.352 2.508-9.352 2.508V171.51s4.676-2.623 10.721-2.623 7.87 2.28 10.493 3.648c2.623 1.37 6.387 2.965 10.95 2.965 6.786 0 9.923-3.99 9.923-3.99z" fill="#6cceda"/><path d="M509.306 207.515s-2.396 3.478-9.866 3.478c-7.471 0-13.744-4.162-10.779-2.452 2.966 1.71-5.474-3.534-12.09-3.534-6.615 0-9.352 2.508-9.352 2.508V171.51s4.676-2.623 10.721-2.623 7.87 2.28 10.493 3.648c2.623 1.37 6.387 2.965 10.95 2.965 6.786 0 9.923-3.99 9.923-3.99z" stroke="#000"/><path d="M324.168 90.018c.04.205 1.14 2.605 3.786 4.274 2.645 1.668 3.419 5.167 3.377 5.86-.04.691-.325 3.825-3.092 6.062-2.769 2.238-3.664 1.588-3.99 4.233l-.163-5.25s1.181-.244 2.483-1.79c1.303-1.547 1.506-5.168-.366-6.551-1.873-1.385-2.035-1.792-2.035-1.792zM306.259 95.39s-3.216 1.994-3.175 4.517c.04 2.523.285 3.663 2.93 5.168l.407.163-.162 5.25s0-2.075-2.524-3.622-4.03-3.581-4.192-6.348c-.163-2.768 1.71-5.576 3.093-6.308 1.384-.732 3.42-2.482 3.785-4.435zM305.99 82.239l9.264-13.189 9.265 13.189" fill="#fff"/><path d="M305.99 82.239l9.264-13.189 9.265 13.189" stroke="#000"/><path d="M343.62 163.368l-4.938-10.444h-46.915l-5.508 11.013.19 4.748 55.842.38.749-2.505" fill="#fff"/><path d="M343.62 163.368l-4.938-10.444h-46.915l-5.508 11.013.19 4.748 55.842.38.749-2.505" stroke="#000"/><path d="M285.592 148.165h56.448v-17.993h-56.448z" fill="#fff" mask="url(#a)" transform="translate(1 36.388)"/><path d="M285.592 148.165h56.448v-17.993h-56.448z" mask="url(#a)" stroke="#000" transform="translate(1 36.388)"/><path d="M305.316 150.592h17.877V45.475h-17.877z" fill="#fff" mask="url(#a)" transform="translate(1 36.388)"/><path d="M305.316 150.592h17.877V45.475h-17.877z" mask="url(#a)" stroke="#000" transform="translate(1 36.388)"/><g mask="url(#a)" transform="translate(1 36.388)"><path d="M298.012 123.652l-5.278-13.169c-.033-.08-.235-.08-.268 0l-5.244 13.084" fill="#fff"/><path d="M298.012 123.652l-5.278-13.169c-.033-.08-.235-.08-.268 0l-5.244 13.084" stroke="#000"/></g><g mask="url(#a)" transform="translate(1 36.388)"><path d="M341.233 123.652l-5.279-13.169c-.032-.08-.234-.08-.267 0l-5.245 13.084" fill="#fff"/><path d="M341.233 123.652l-5.279-13.169c-.032-.08-.234-.08-.267 0l-5.245 13.084" stroke="#000"/></g><g mask="url(#a)" transform="translate(1 36.388)"><path d="M300.893 125.51l-2.241-4.882-2.24 4.881" fill="#fff"/><path d="M300.893 125.51l-2.241-4.882-2.24 4.881" stroke="#000"/></g><path d="M296.562 149.776h4.292v-24.037h-4.292z" fill="#fff" mask="url(#a)" transform="translate(1 36.388)"/><path d="M296.174 150.164h5.068V125.35h-5.068zm.777-.776h3.514v-23.262h-3.514z" fill="#000" mask="url(#a)" transform="translate(1 36.388)"/><g mask="url(#a)" transform="translate(1 36.388)"><path d="M288.462 125.51l-2.24-4.885-2.241 4.884" fill="#fff"/><path d="M288.462 125.51l-2.24-4.885-2.241 4.884" stroke="#000"/></g><path d="M284.121 149.776h4.291v-24.037h-4.29z" fill="#fff" mask="url(#a)" transform="translate(1 36.388)"/><path d="M283.733 150.164h5.068V125.35h-5.068zm.777-.776h3.514v-23.262h-3.514z" fill="#000" mask="url(#a)" transform="translate(1 36.388)"/><g mask="url(#a)" transform="translate(1 36.388)"><path d="M331.608 125.51l-2.204-4.882-2.204 4.881" fill="#fff"/><path d="M331.608 125.51l-2.204-4.882-2.204 4.881" stroke="#000"/></g><path d="M327.292 149.776h4.29v-24.037h-4.29z" fill="#fff" mask="url(#a)" transform="translate(1 36.388)"/><path d="M326.903 150.164h5.068V125.35h-5.068zm.777-.776h3.515v-23.262h-3.515z" fill="#000" mask="url(#a)" transform="translate(1 36.388)"/><g mask="url(#a)" transform="translate(1 36.388)"><path d="M344.183 125.51l-2.24-4.882-2.24 4.881" fill="#fff"/><path d="M344.183 125.51l-2.24-4.882-2.24 4.881" stroke="#000"/></g><path d="M339.732 149.776h4.291v-24.037h-4.291z" fill="#fff" mask="url(#a)" transform="translate(1 36.388)"/><path d="M339.344 150.164h5.068V125.35h-5.068zm.776-.776h3.515v-23.262h-3.515z" fill="#000" mask="url(#a)" transform="translate(1 36.388)"/><g stroke="#000"><path d="M312.262 117.713v-4.935c0-1.475.802-2.763 1.993-3.451a3.981 3.981 0 0 1 1.992 3.451v4.935zM312.262 96.913v-4.936c0-1.474.802-2.762 1.993-3.45a3.981 3.981 0 0 1 1.992 3.45v4.936zM312.262 66.502v-4.935c0-1.474.802-2.762 1.993-3.452a3.983 3.983 0 0 1 1.992 3.452v4.935zM311.283 150.376v-16.834a5.94 5.94 0 0 1 2.971-5.146 5.939 5.939 0 0 1 2.971 5.146v16.834z" mask="url(#a)" transform="translate(1 36.388)"/><path d="M309.393 129.536c0-2.566 1.955-4.806 4.862-6.004 2.906 1.198 4.862 3.438 4.862 6.004M305.599 96.81h17.312M305.599 66.513h17.312M305.599 117.674h17.312M310.802 82.344a1.545 1.545 0 1 1-3.09 0 1.545 1.545 0 0 1 3.09 0zM321.11 82.344a1.545 1.545 0 1 1-3.09 0 1.545 1.545 0 0 1 3.09 0z" mask="url(#a)" transform="translate(1 36.388)"/><path d="M314.099 29.156c-2.554 0-4.625-.529-4.625-1.18 0-.652 2.071-1.18 4.625-1.18s4.624.528 4.624 1.18c0 .651-2.07 1.18-4.624 1.18zM310.217 41.709s1.085-2.285 3.985-2.285 3.984 2.285 3.984 2.285" mask="url(#a)" stroke-width=".75" transform="translate(1 36.388)"/><path d="M310.217 41.518s.879 1.61 3.985 1.61 3.984-1.61 3.984-1.61" mask="url(#a)" stroke-width=".75" transform="translate(1 36.388)"/></g><path d="M314.202 42.384c-.712 0-1.29-.473-1.29-1.057s.578-1.059 1.29-1.059 1.29.475 1.29 1.059-.578 1.057-1.29 1.057" fill="#000" mask="url(#a)" transform="translate(1 36.388)"/><path d="M305.34 39.982l-7.345-2.206M307.874 36.17l-2.435-1.834M322.046 39.982l7.345-2.206M319.512 36.17l2.435-1.834" mask="url(#a)" stroke="#000" transform="translate(1 36.388)"/><path d="M298.433 47.837h30.923v-2.404h-30.923z" fill="#fff" mask="url(#a)" transform="translate(1 36.388)"/><path d="M298.433 47.837h30.923v-2.404h-30.923zM305.286 74.897c.073-.605.29-2.631-2.248-4.184-2.856-1.747-4.533-3.965-4.533-6.842v-.089" mask="url(#a)" stroke="#000" transform="translate(1 36.388)"/><path d="M305.302 52.737c-.03 1.043-.143 2.653-2.379 4.18-2.578 1.76-4.418 3.989-4.418 6.866M305.35 68.838a4.619 4.619 0 0 0-.233-.151c-1.985-1.215-3.15-2.757-3.15-4.758v-.061M305.251 58.934c-.068.053-.14.108-.213.16-1.769 1.26-3.072 2.774-3.072 4.774M323.187 74.998c0-.804-.021-2.732 2.517-4.285 2.856-1.747 4.533-3.965 4.533-6.842v-.088M323.217 52.766c0 .805.328 2.533 2.602 4.15 2.543 1.811 4.418 3.99 4.418 6.867M323.366 68.77c1.986-1.214 3.41-2.84 3.41-4.84v-.062M323.49 58.934c.068.053-.198-.201-.124-.148 1.768 1.26 3.41 3.082 3.41 5.082" mask="url(#a)" stroke="#000" transform="translate(1 36.388)"/><path d="M228.871 71.564c0-.077-.005-.152-.005-.23 0-7.324 5.26-13.282 11.726-13.282 6.465 0 11.726 5.958 11.726 13.282 0 .078-.004.153-.006.23h2.774c.001-.077.005-.152.005-.23 0-8.853-6.504-16.056-14.5-16.056-7.994 0-14.5 7.203-14.5 16.056 0 .078.005.153.006.23z" fill="#fff" mask="url(#a)" transform="translate(1 36.388)"/><path d="M233.868 71.564c-.002-.077-.01-.152-.01-.23 0-4.245 3.02-7.699 6.734-7.699s6.734 3.454 6.734 7.699c0 .078-.009.153-.011.23h2.78c.001-.077.004-.152.004-.23 0-5.774-4.264-10.472-9.507-10.472-5.243 0-9.508 4.698-9.508 10.472 0 .078.003.153.005.23z" fill="#fff" mask="url(#a)" transform="translate(1 36.388)"/><path d="M238.948 71.564c-.007-.077-.019-.15-.019-.23 0-1.117.746-2.025 1.663-2.025.916 0 1.663.908 1.663 2.025 0 .08-.012.153-.02.23h2.783c.003-.077.011-.152.011-.23 0-2.646-1.99-4.8-4.437-4.8s-4.437 2.154-4.437 4.8c0 .078.007.153.01.23zM492.744 159.172c-.14-.078-.284-.163-.437-.251-2.018-1.178-5.775-3.37-10.793.352-2.502 1.855-5.326.341-6.898-.84v3.46c1.309.683 2.814 1.177 4.374 1.177 1.417 0 2.878-.406 4.273-1.44 3.462-2.57 5.737-1.243 7.565-.176.167.097.327.191.478.277 1.857 1.042 4.577 2.012 8.274.067v-3.452c-3.63 2.622-5.68 1.475-6.836.826M492.744 152.4c-.139-.078-.284-.163-.437-.251-2.019-1.177-5.776-3.369-10.793.352-2.502 1.856-5.326.342-6.899-.838v3.458c1.31.684 2.814 1.178 4.375 1.178 1.416 0 2.877-.406 4.272-1.44 3.463-2.57 5.738-1.243 7.566-.176.167.097.326.191.478.276 1.856 1.043 4.578 2.012 8.273.068v-3.452c-3.628 2.622-5.679 1.475-6.835.825M492.744 145.63l-.437-.252c-2.019-1.178-5.776-3.369-10.793.352-2.502 1.856-5.326.341-6.899-.84v3.46c1.31.684 2.814 1.177 4.375 1.177 1.416 0 2.877-.406 4.272-1.44 3.463-2.569 5.738-1.242 7.566-.176.167.098.326.191.478.277 1.856 1.042 4.578 2.012 8.273.067v-3.451c-3.628 2.622-5.679 1.474-6.835.825M116.319 128.903h-4.25a12.246 12.246 0 0 1 1.627 1.775c2.38 3.18 3.16 7.237 2.139 11.132-1.832 6.995-8.146 8.092-11.588 7.634-3.861-.51-8.293-3.218-8.073-9.166.09-2.419.889-4.323 2.373-5.663 1.79-1.614 4.263-2.081 5.491-2 1.855.122 3.373.84 4.39 2.077.977 1.186 1.415 2.806 1.203 4.443-.299 2.306-2.268 3.638-4.006 3.578-2.753-.083-2.753-1.645-2.753-2.234 0-.85.352-1.176.617-1.348.253-.164.58-.26.923-.29v-3.168c-.95.04-1.882.306-2.643.798-1.332.86-2.065 2.284-2.065 4.008 0 3.222 2.232 5.29 5.825 5.4 3.144.093 6.714-2.25 7.244-6.338.324-2.5-.368-5-1.897-6.861-1.565-1.902-3.919-3.047-6.63-3.226-1.628-.105-5.11.364-7.822 2.809-2.113 1.907-3.294 4.639-3.416 7.899-.28 7.555 5.235 11.683 10.823 12.423.61.081 1.236.121 1.87.121 5.386 0 11.336-2.984 13.199-10.094 1.253-4.784.31-9.77-2.581-13.71" fill="#fff" mask="url(#a)" transform="translate(1 36.388)"/></g></svg>