<svg viewBox="0 0 250 350" xmlns="http://www.w3.org/2000/svg"><g stroke="#000"><g stroke-linejoin="round"><path d="M117.25 222l8.31 17c7.67-8.9 14.07-21.85 26-25 17.76-4.75 38.11-15.29 38.11-15.29l-8.66-3.74-43.79-26.25h-20"/><path d="M117.25 222l-8.32 17c-7.67-8.9-14.07-21.85-26-25-17.76-4.75-32.56-15.29-32.56-15.29l3.11-3.74 43.79-26.25h20M128.71 125s15.87-22.43 20.85-25.45c0 0-.62-2.44-25.48-2.44h0c-24.86 0-25.48 2.44-25.48 2.44 5 3 20.85 25.45 20.85 25.45z"/><path d="M128.58 308.04h18.4l7.69-134.84-.4-26.7H95.13l-.18 27.12 6.19 134.42h18.39l6.91-113.08z" fill="#8f5ce0"/><path d="M137.18 191.94s-3.6 2.9-10.65 2.9h0" fill="none"/><path d="M128.58 308.04h18.4l7.69-134.84-.4-26.7H95.13l-.18 27.12 6.19 134.42h18.39l6.91-113.08z" fill="none"/></g><path d="M127.12 19.18l5 17.66L98 41.15V23.84a.71.71 0 0 1 .12-.39h0a.37.37 0 0 1 .28-.17h0a.4.4 0 0 1 .29.12l3.66 3.83s3.55 3.77 7.09 0a53.32 53.32 0 0 0 3.83-5.49c1.36-2 2.86-2.26 4.23-1.94a8.12 8.12 0 0 1 3.08 2.17c4.16 3.82 4.22 3.35 4.52 2.59a19.65 19.65 0 0 0 .61-2l1.06-3.35a.33.33 0 0 1 .18-.05.38.38 0 0 1 .17.02z" fill="#fff" stroke-miterlimit="10"/><path d="M125.44 23.46a5.66 5.66 0 0 1-.35 1.07c-.3.76-.36 1.23-4.52-2.59a8.12 8.12 0 0 0-3.08-2.17c-1.37-.32-2.87-.05-4.23 1.94a53.32 53.32 0 0 1-3.83 5.49c-3.54 3.79-7.09 0-7.09 0l-1.22-20.79s-.32-4.33 1.22-4.5 2.64.6 5 2.79 17.83 18.57 17.83 18.57z" fill="#8f5ce0" stroke-linejoin="round"/><path d="M102.34 27.22s3.55 3.77 7.09 0a53.32 53.32 0 0 0 3.83-5.49c1.36-2 2.86-2.26 4.23-1.94a8.12 8.12 0 0 1 3.08 2.17c4.16 3.82 4.22 3.35 4.52 2.59a19.65 19.65 0 0 0 .61-2" fill="none" stroke-linecap="round" stroke-linejoin="round"/><ellipse cx="115.07" cy="39.21" rx="17.22" ry="2.42" stroke-miterlimit="10" transform="rotate(-7.07 114.98 39.195)"/><path d="M107.43 114.63a33.92 33.92 0 0 1 6.21-.22L109.79 94a36.23 36.23 0 0 1 4.15-1.19c2.67-2.66 1.78-9.78-3.86-7.41-2.83-9.5-4.57-28.47-5.33-33.8-.4-2.77 4.15-1.19 4.15-1.19s6.42 3.15 9.49.6c3.56-3 2.07-7.42 2.15-7.42.78-.1-3 .71-4 .9 0 0 1.51 5.8-3.55 6.46-3.27.43-3.23-3.8-3.23-4.69-.93-.79-5.77.8-6.39 0L96.46 48a290.82 290.82 0 0 1 5.61 38.5c1.86 0 5.5.66 6.53.49a11.58 11.58 0 0 1 0-1.67c1.74 0 2.92 1.24 2.87 3.5.07 2.64-.79 4-2.44 4.37a1.17 1.17 0 0 0-.2-.92s-5.43.16-6.35.21q2.52 11.04 4.95 22.15zM143.71 76.73a17.45 17.45 0 0 1 4-.26c-1.67-1.86-2.76-1.63-3.34-1.2a1.85 1.85 0 0 0-.62.93c-.04.25-.11.54-.04.53z" fill="#f4aa4a" stroke-linejoin="round"/><path d="M118.73 73.05a9.69 9.69 0 0 0 1.8.1c5.84-.25 6.9-6.58 6.9-6.58l-4.87-1.37c.58 2.26.5 5.61-3.83 7.85zM143.33 61.11l-3.47 1.65c.45 1.61.68 3.76-.56 5.28a6.16 6.16 0 0 0 .77-.24c3.34-1.32 3.26-6.69 3.26-6.69zM139.75 82.11a5.72 5.72 0 0 0-6.75-.91c1.22.2 2.55.67 2.34 2z" fill="#f4aa4a" stroke-linecap="round" stroke-linejoin="round"/><path d="M147.74 76.47c1-8 1.76-19.56 1.86-26.79a4.44 4.44 0 0 1-3.68-4.46h0a151.7 151.7 0 0 0-25.34-1.67s1.12 7.17-4 7.71-6.71-3.12-6.34-5.45c-3.92 0-4-.47-6.85.42 2 11.67 3.27 25.16 5.2 40.8 2.86-3.3 6.83-2.17 6.73 1.62.07 4.36-2.93 5.32-6.5 3.66q2.48 11.07 4.8 22.18c6.74.32 13.45.66 20.14 1 3.45-2.35 6.95-4.64 10.49-6.84 1.25-9.46 2.47-18.21 3.3-26.14 0 0-3.84-1.73-3.91-4.92-.06-2.95 2.36-2.86 4.1-1.12zm-27.21-3.32c-5.84.24-10.28-4.63-7.83-10.71l14.73 4.13s-1.06 6.33-6.9 6.58zm7.83 11.67s6.24-7.53 11.39-2.71zm11.71-17c-3.34 1.32-5.82-1-6.11-2.23l9.37-4.46s.08 5.35-3.26 6.67z" fill="#ffef57" stroke-linejoin="round"/></g><path d="M149 119.64c-1.47-3-5.49-4-8.88-4h-4.33l-1.53.78-1.51.61-3-1.39h-24.18c-3.39 0-7 1.14-8.88 4-10.09 15.52-36.6 59.72-46.34 79 0 0 17.43.62 27.08-2.31 17.54-5.31 16.43.37 28 4.13 5.56 1.81 17.12 6.06 21.74 7a4.34 4.34 0 0 0 4.65-2.11l5.63-10.06 5.55 10.07a4.32 4.32 0 0 0 4.65 2.11c5.19-1.12 10.87-4.74 14.09-7.19s8.11-7.64 13.44-5.49c9.35 3.75 14.5 3.87 14.5 3.87-9.68-19.3-24.39-45.07-40.68-79.02z" fill="#fff"/><path d="M149 119.64c-1.47-3-5.49-4-8.88-4l-7.29 1.58-10-1.58h-17.27c-3.39 0-7 1.14-8.88 4-10.09 15.52-36.6 59.72-46.34 79 0 0 17.43.62 27.08-2.31 17.54-5.31 16.43.37 28 4.13 5.56 1.81 17.12 6.06 21.74 7a4.34 4.34 0 0 0 4.65-2.11l5.63-10.06 5.56 10.07a4.32 4.32 0 0 0 4.65 2.11c5.19-1.12 10.87-4.74 14.09-7.19s8.11-7.64 13.44-5.49c9.35 3.75 14.5 3.87 14.5 3.87-9.68-19.3-24.39-45.07-40.68-79.02z" fill="none" stroke="#000" stroke-linejoin="round"/><path d="M136.57 102.82l-3.79 13.84-5.5-13.84s-23.74-.27-28.72-3.29l7.78 16.13c2.11.24 14.33-1.77 16 11.44 1.06 7.08 3.91 16.78 14.71 15.48 11.42-1.38 1.55-26.17 4.78-26.92l7.78-16.13c-5.03 3.02-13.04 3.29-13.04 3.29z" fill="#8f5ce0"/><path d="M136.57 102.82l-3.79 13.84-5.5-13.84s-23.74-.27-28.72-3.29l7.78 16.13c2.11.24 14.33-1.77 16 11.44 1.06 7.08 3.91 16.78 14.71 15.48 11.42-1.38 1.55-26.17 4.78-26.92l7.78-16.13c-5.03 3.02-13.04 3.29-13.04 3.29zM137.41 195.3s1.5-30.73-1-52.66" fill="none" stroke="#000" stroke-linejoin="round"/><ellipse cx="133.68" cy="122.56" fill="gray" rx="4.74" ry="6.23" transform="rotate(-5.11 133.64 122.503)"/><ellipse cx="133.68" cy="122.56" fill="#fff" rx="4.74" ry="6.23" stroke="#000" stroke-miterlimit="10" transform="rotate(-5.11 133.64 122.503)"/><path d="M124.92 308.4l1.51 40.09H159.7l-10.18-8.19-.09-33.98z" fill="#fff"/><path d="M124.92 308.4l1.51 40.09H159.7l-10.18-8.19-.09-33.98z" fill="none" stroke="#000" stroke-linejoin="round"/><path d="M149.43 316.99h-24.01l-.39-9.93 24.4-.74z" stroke="#000" stroke-linejoin="round"/><path d="M125.19 303.66l24.29.19a4.3 4.3 0 0 1 4.27 4.28v5.29l-5.82.1-2.74-6.25-3.36 6.35-20.92.36-.07-6a4.3 4.3 0 0 1 4.35-4.32z" fill="#ff88f9"/><path d="M125.19 303.66l24.29.19a4.3 4.3 0 0 1 4.27 4.28v5.29l-5.82.1-2.74-6.25-3.36 6.35-20.92.36-.07-6a4.3 4.3 0 0 1 4.35-4.32z" fill="none" stroke="#000" stroke-linejoin="round"/><path d="M98.02 308.4l1.51 40.09h34.28l-11.19-8.19-.09-33.98z" fill="#fff"/><path d="M98.02 308.4l1.51 40.09h34.28l-11.19-8.19-.09-33.98z" fill="none" stroke="#000" stroke-linejoin="round"/><path d="M122.53 316.99H98.52l-.38-9.93 24.39-.74z" stroke="#000" stroke-linejoin="round"/><path d="M98.29 303.66l24.29.19a4.3 4.3 0 0 1 4.27 4.28v5.29l-5.81.1-2.75-6.25-3.29 6.35-21 .38v-6a4.3 4.3 0 0 1 4.29-4.34z" fill="#ff88f9"/><path d="M98.29 303.66l24.29.19a4.3 4.3 0 0 1 4.27 4.28v5.29l-5.81.1-2.75-6.25-3.29 6.35-21 .38v-6a4.3 4.3 0 0 1 4.29-4.34z" fill="none" stroke="#000" stroke-linejoin="round"/><path d="M65.34 201.67c-1-2.1-1.61-8-1.61-8 1-1.63 9-3.88 16.07-2.38 7.4 1.58 11.08 6.39 10.67 8.13 0 0-3.54 4.56-4.2 4.93" fill="#8f5ce0"/><path d="M76 197.79a16.25 16.25 0 0 1 9.5 5.4l.26.3a12.73 12.73 0 0 1 1.74 3.59 19.68 19.68 0 0 0 .62 2l1 4.15 1.38 4.57-.53 1.48a4.49 4.49 0 0 1-2 2.3 4.14 4.14 0 0 1-2 .21 8 8 0 0 1-1.97 2.72 3.67 3.67 0 0 1-2.46.77 3.86 3.86 0 0 1-3.54-2.86c-.57 3-2.75 3.73-3.46 3.73a5.1 5.1 0 0 1-3.44-.94 5.64 5.64 0 0 1-1-3.49l-.36.71a3.08 3.08 0 0 1-1 1.34l-.69.35a9.78 9.78 0 0 1-2.53-1.26c-1.18-.73-2.07-4-2.23-5.28a30.68 30.68 0 0 1 1.54-14.24 7.61 7.61 0 0 1 3.08-4.15 15.4 15.4 0 0 1 8.09-1.4z" fill="#fff"/><g fill="none" stroke="#000" stroke-linecap="round" stroke-linejoin="round"><path d="M65.34 201.67c-1-2.1-1.61-8-1.61-8 1-1.63 9-3.88 16.07-2.38 7.4 1.58 11.08 6.39 10.67 8.13 0 0-3.38 4.52-4 4.88"/><path d="M86.26 204.25a15.94 15.94 0 0 0-10.35-6.45 15.4 15.4 0 0 0-8 1.4 7.58 7.58 0 0 0-3.08 4.15c-1.29 3.18-1.81 7.29-1.66 12.33.1 3.2 1.07 6.23 2.4 7.18 1.51 1 3.25 2.42 4.57-1.16M85.8 211.85c1.11 5.3 1 10-1.34 12.23a3.8 3.8 0 0 1-6.46-1.94"/><path d="M78 220.24c.34 3.73-1.26 5.25-2.83 5.74a4.63 4.63 0 0 1-4.17-.88 7.8 7.8 0 0 1-.69-5.4M86.34 204.29c1.92 3.76 2.36 9.11 4 13 .27.64-.29 1.65-.57 2.29M85.91 221.72h1c1.25 0 1.73-.45 2.43-1.48l.42-.63"/></g><path d="M205 192.71a5.5 5.5 0 0 0 2.84.59 3.57 3.57 0 0 0 2.79-3.24 5.22 5.22 0 0 0-1.73-4.1 9.88 9.88 0 0 0-4-2.15c-.49-.15-.8-.27-1.31-.4l-.12.1c.26-.77.44-1.25.44-1.25.74-2.28-1.88-5-1.88-5-2.38-2-12.34-2-12.34-2s-6 1.79-9.4 12.86A3.7 3.7 0 0 0 181 191c1.78 2.33 5.11 5.93 9.53 6.7.11 0 .13.11.19.11 0 .18.33.44.38.61.41 1.36 1.79 2.12 2.9 3.16a7.9 7.9 0 0 0 4.69 2.13 5.71 5.71 0 0 0 1.86-.42c1.46-.5 2.07-2.68 1.64-4.16l-.06-.37a3.18 3.18 0 0 0 1.67.13c1-.22 1.25-.12 1.71-1a5.15 5.15 0 0 0-.51-5.18zm-10.34.24" fill="#fff"/><path d="M190.13 175.46a19.27 19.27 0 0 0-4.18-3c-1.76.11-7.09 3.12-8.89 8.52-1.91 5.67-1.23 11 .37 11.34 0 0 4.87 1.57 5.34 1.56l.33-.46-.69-.7c-1.29-1.06-2.71-4.13-.64-9.15 2-4.77 6-8.44 7.78-8.41z" fill="#8f5ce0"/><path d="M190.58 197.63c-3.24-.16-5.77-2.34-7.8-4.48 0 0-3.54-3-1-9.54 1.86-4.81 6.27-8.33 8-8.3" fill="none" stroke="#000" stroke-linecap="round" stroke-linejoin="round"/><path d="M190.32 175.35a17.37 17.37 0 0 0-4.32-2.85c-1.76.11-7.09 3.12-8.89 8.52-1.91 5.67-1.23 11 .37 11.34 0 0 5.24 1.43 5.72 1.41" fill="none" stroke="#000" stroke-linecap="round" stroke-linejoin="round"/><path d="M230.59 143.11l4.66 3.34-3 4.18a4.94 4.94 0 0 1-2.55-.34l-2.31 3s.93 3.19.45 4.54l-4.5 1.33-.4.56-31.46 44-3.6 2a1.08 1.08 0 0 1 0 .16l-2.52 5.62-4.42 2.16a3 3 0 0 1-.76-.31 2.66 2.66 0 0 1-.53-.62l.62-4.88 4.5-4.2.15-.06.77-4.06 31.46-44 .4-.55-.19-4.69c1.12-.89 4.45-1 4.45-1l2.11-3.16a4.94 4.94 0 0 1-1.15-2.31l3-4.18 4.66 3.34z" fill="#96543c"/><path d="M187.88 205.75a1.08 1.08 0 0 1 0 .16l-2.52 5.62-4.42 2.16a3 3 0 0 1-.76-.31 2.66 2.66 0 0 1-.53-.62l.62-4.88 4.5-4.2.15-.06-.57 3.24.37.27.38.26z" fill="#ccc"/><path d="M230.59 143.11l4.66 3.34-3 4.18a4.94 4.94 0 0 1-2.55-.34l-2.31 3s.93 3.19.45 4.54l-4.5 1.33-.4.56-31.46 44-3.6 2a1.08 1.08 0 0 1 0 .16l-2.52 5.62-4.42 2.16a3 3 0 0 1-.76-.31h0a2.66 2.66 0 0 1-.53-.62l.62-4.88 4.5-4.2.15-.06.77-4.06 31.46-44 .4-.55-.19-4.69c1.12-.89 4.45-1 4.45-1l2.11-3.16a4.94 4.94 0 0 1-1.15-2.31l3-4.18 4.66 3.34z" fill="none" stroke="#000" stroke-linecap="round" stroke-linejoin="round"/><ellipse cx="234.08" cy="137.95" fill="#ccc" rx="9.05" ry="8.64" transform="rotate(-54.41 234.105 137.949)"/><ellipse cx="221.4" cy="155.77" fill="#ccc" rx="4.53" ry="4.32" transform="rotate(-54.41 221.423 155.778)"/><ellipse cx="234.08" cy="137.95" fill="none" rx="9.05" ry="8.64" stroke="#000" stroke-linecap="round" stroke-linejoin="round" transform="rotate(-54.41 234.105 137.949)"/><ellipse cx="221.36" cy="155.74" fill="none" rx="4.59" ry="4.38" stroke="#000" stroke-linecap="round" stroke-linejoin="round" transform="rotate(-54.41 221.37 155.738)"/><path d="M187.88 205.75l-2.54 1.47a.63.63 0 0 1-.6 0l-.1-.07M184.82 203.56l-.57 2.88a.63.63 0 0 0 .21.56l.1.07M223.82 146.09a13.67 13.67 0 0 0 2.49 2.5l.21.15a13.83 13.83 0 0 0 3.17 1.55" fill="none" stroke="#000" stroke-linecap="round" stroke-linejoin="round"/><path d="M185.92 178.59a7.07 7.07 0 0 0 1.45 5c1.85 2.33 5.82 2.26 8.65 1.62l-.9 3.15a4.12 4.12 0 0 0 .49 2.06s-1.51.15-1.44 2.65v.14s-1.51-1-2.82 1.18-1 3.45.1 4.73a43.8 43.8 0 0 0 3.87 3.51 6.8 6.8 0 0 0 3.29 1c2 .12 4.31-1.6 3.56-5 0 0 2.88.81 3.83-1.31s-1-4.68-1-4.68 4 2 5.31-1.47c0 0 1.34-3.22-2-5.86a14.26 14.26 0 0 0-4.83-2s2.42-4.94-3.55-7.31a60.43 60.43 0 0 0-9.61-.68l-1.07.4a5.82 5.82 0 0 0-2.9 2.29z" fill="#fff"/><path d="M189.82 175.33a65.52 65.52 0 0 1 10.28.83 5.84 5.84 0 0 1 3 2.16 5.36 5.36 0 0 1 .8 3.94s-1.48 3.83-2.89 6.58c0 0-2 5.26-4.68 2.47a3.41 3.41 0 0 1-1-3.56l1.5-4.54" fill="none" stroke="#000" stroke-linecap="round" stroke-linejoin="round"/><path d="M203.53 183.41c.51.13.82.25 1.31.4a9.88 9.88 0 0 1 4 2.15 5.22 5.22 0 0 1 1.73 4.1 3.57 3.57 0 0 1-2.79 3.24 6.09 6.09 0 0 1-3.76-1.11l-3.64-2" fill="none" stroke="#000" stroke-linecap="round" stroke-linejoin="round"/><path d="M195.56 190.44a1.32 1.32 0 0 0-1 .79c-1.76 3 1.76 4.49 1.76 4.49l3.65 2a6 6 0 0 0 3.75 1.11 2.56 2.56 0 0 0 2.4-2.61 5.37 5.37 0 0 0-1.13-3.51" fill="none" stroke="#000" stroke-linecap="round" stroke-linejoin="round"/><path d="M202.15 198.85a5 5 0 0 1 0 2.39 3.56 3.56 0 0 1-3.48 2.48 6.84 6.84 0 0 1-3.92-1.45c-.87-.82-2.18-2-3.06-2.83a3.7 3.7 0 0 1-.11-5.3 2.15 2.15 0 0 1 2.6-.87M196.13 185.24s-8.79 2.15-10-4.11" fill="none" stroke="#000" stroke-linecap="round" stroke-linejoin="round"/></svg>