<svg height="149" width="73" xmlns="http://www.w3.org/2000/svg"><mask id="a" fill="#fff"><path d="M0 .155h72.877v148.68H0z" fill-rule="evenodd"/></mask><g fill="none" fill-rule="evenodd"><path d="M2.218 148.97h69.82v-7.972H2.219z" fill="#000"/><path d="M2.218 148.834h69.82v-7.972H2.219z" mask="url(#a)" stroke="#000" transform="translate(0 .136)"/><path d="M47.33 32.358c.05.244 1.366 3.125 4.538 5.128 3.172 2.002 4.099 6.2 4.05 7.032-.048.83-.39 4.59-3.708 7.275-3.318 2.686-4.392 1.905-4.783 5.08l-.194-6.3s1.415-.293 2.976-2.149c1.562-1.856 1.806-6.202-.439-7.862-2.245-1.66-2.44-2.15-2.44-2.15zM25.86 38.804s-3.854 2.393-3.805 5.42c.048 3.028.341 4.395 3.513 6.202l.488.195-.195 6.3s0-2.49-3.026-4.346c-3.025-1.856-4.83-4.298-5.025-7.618-.196-3.32 2.048-6.69 3.708-7.57 1.659-.878 4.099-2.978 4.538-5.322z" fill="#fff" mask="url(#a)" transform="translate(0 .136)"/><g mask="url(#a)" transform="translate(0 .136)"><path d="M25.539 23.022L36.645 7.195l11.107 15.827" fill="#fff"/><path d="M25.539 23.022L36.645 7.195l11.107 15.827" stroke="#000"/></g><g mask="url(#a)" transform="translate(0 .136)"><path d="M70.65 120.378l-5.92-12.533H8.488l-6.603 13.217.228 5.696 66.944.456.897-3.006" fill="#fff"/><path d="M70.65 120.378l-5.92-12.533H8.488l-6.603 13.217.228 5.696 66.944.456.897-3.006" stroke="#000"/></g><path d="M2.284 145.8h67.67v-21.592H2.283z" fill="#fff" mask="url(#a)" transform="translate(0 .136)"/><path d="M2.284 145.8h67.67v-21.592H2.283z" mask="url(#a)" stroke="#000" transform="translate(0 .136)"/><path d="M25.929 148.713h21.432V22.571H25.929z" fill="#fff" mask="url(#a)" transform="translate(0 .136)"/><path d="M25.929 148.713h21.432V22.571H25.929z" mask="url(#a)" stroke="#000" transform="translate(0 .136)"/><g mask="url(#a)" transform="translate(0 .136)"><path d="M17.174 116.385l-6.329-15.803c-.038-.097-.281-.097-.32 0l-6.288 15.7" fill="#fff"/><path d="M17.174 116.385l-6.329-15.803c-.038-.097-.281-.097-.32 0l-6.288 15.7" stroke="#000"/></g><g mask="url(#a)" transform="translate(0 .136)"><path d="M68.987 116.385l-6.328-15.803c-.04-.097-.282-.097-.32 0l-6.288 15.7" fill="#fff"/><path d="M68.987 116.385l-6.328-15.803c-.04-.097-.282-.097-.32 0l-6.288 15.7" stroke="#000"/></g><g mask="url(#a)" transform="translate(0 .136)"><path d="M20.627 118.614l-2.686-5.858-2.686 5.858" fill="#fff"/><path d="M20.627 118.614l-2.686-5.858-2.686 5.858" stroke="#000"/></g><path d="M15.358 147.81h5.299v-29h-5.299z" fill="#fff" mask="url(#a)" transform="translate(0 .136)"/><path d="M14.97 148.2h6.075v-29.778H14.97zm.776-.778h4.522v-28.223h-4.522z" fill="#000" mask="url(#a)" transform="translate(0 .136)"/><g mask="url(#a)" transform="translate(0 .136)"><path d="M5.725 118.614l-2.686-5.861-2.686 5.861" fill="#fff"/><path d="M5.725 118.614l-2.686-5.861-2.686 5.861" stroke="#000"/></g><path d="M.443 147.81h5.3v-29h-5.3z" fill="#fff" mask="url(#a)" transform="translate(0 .136)"/><path d="M.056 148.2H6.13v-29.778H.056zm.777-.778h4.522v-28.223H.833z" fill="#000" mask="url(#a)" transform="translate(0 .136)"/><g mask="url(#a)" transform="translate(0 .136)"><path d="M57.449 118.614l-2.643-5.858-2.643 5.858" fill="#fff"/><path d="M57.449 118.614l-2.643-5.858-2.643 5.858" stroke="#000"/></g><path d="M52.197 147.81h5.298v-29h-5.298z" fill="#fff" mask="url(#a)" transform="translate(0 .136)"/><path d="M51.808 148.2h6.076v-29.778h-6.076zm.777-.778h4.522v-28.223h-4.522z" fill="#000" mask="url(#a)" transform="translate(0 .136)"/><g mask="url(#a)" transform="translate(0 .136)"><path d="M72.523 118.614l-2.685-5.858-2.686 5.858" fill="#fff"/><path d="M72.523 118.614l-2.685-5.858-2.686 5.858" stroke="#000"/></g><path d="M67.11 147.81h5.299v-29H67.11z" fill="#fff" mask="url(#a)" transform="translate(0 .136)"/><path d="M66.722 148.2h6.075v-29.778h-6.075zm.777-.778h4.522v-28.223h-4.522z" fill="#000" mask="url(#a)" transform="translate(0 .136)"/><g stroke="#000"><path d="M34.256 109.258v-5.922c0-1.77.961-3.315 2.39-4.142a4.781 4.781 0 0 1 2.387 4.142v5.922zM34.256 84.297v-5.922c0-1.77.961-3.315 2.39-4.14a4.779 4.779 0 0 1 2.387 4.14v5.922zM34.256 47.804V41.88c0-1.768.961-3.314 2.39-4.14a4.78 4.78 0 0 1 2.387 4.14v5.923zM33.083 148.454v-20.2a7.128 7.128 0 0 1 3.562-6.176 7.127 7.127 0 0 1 3.562 6.175v20.2z" mask="url(#a)" transform="translate(0 .136)"/><path d="M30.816 123.446c0-3.08 2.344-5.768 5.83-7.206 3.484 1.438 5.827 4.127 5.827 7.206M26.268 84.174h20.754M26.268 47.816h20.754M26.268 109.21h20.754M32.506 71.474a1.855 1.855 0 1 1 0 0zM44.863 71.474a1.855 1.855 0 1 1 0 0z" mask="url(#a)" transform="translate(0 .136)"/><path d="M36.458 2.989c-3.061 0-5.543-.635-5.543-1.416 0-.783 2.482-1.418 5.543-1.418s5.543.635 5.543 1.418c0 .781-2.482 1.416-5.543 1.416zM31.805 18.051s1.3-2.74 4.777-2.74c3.477 0 4.777 2.74 4.777 2.74" mask="url(#a)" stroke-width=".75" transform="translate(0 .136)"/><path d="M31.805 17.822s1.054 1.934 4.777 1.934 4.777-1.934 4.777-1.934" mask="url(#a)" stroke-width=".75" transform="translate(0 .136)"/></g><path d="M36.582 18.861c-.854 0-1.546-.568-1.546-1.269 0-.7.692-1.269 1.546-1.269.853 0 1.545.569 1.545 1.27 0 .7-.692 1.268-1.545 1.268" fill="#000" mask="url(#a)" transform="translate(0 .136)"/><path d="M25.958 15.98l-8.805-2.648M28.995 11.405l-2.918-2.201M45.985 15.98l8.806-2.648M42.948 11.405l2.92-2.201" mask="url(#a)" stroke="#000" transform="translate(0 .136)"/><g mask="url(#a)" transform="translate(0 .136)"><path d="M8.764 140.686v-5.58c0-1.038.756-1.879 1.689-1.879s1.69.841 1.69 1.878v5.581" fill="#fff"/><path d="M8.764 140.686v-5.58c0-1.038.756-1.879 1.689-1.879s1.69.841 1.69 1.878v5.581" stroke="#000"/></g><g mask="url(#a)" transform="translate(0 .136)"><path d="M60.551 140.686v-5.58c0-1.038.756-1.879 1.69-1.879s1.69.841 1.69 1.878v5.581" fill="#fff"/><path d="M60.551 140.686v-5.58c0-1.038.756-1.879 1.69-1.879s1.69.841 1.69 1.878v5.581" stroke="#000"/></g><path d="M17.678 25.406h37.07v-2.885h-37.07z" fill="#fff" mask="url(#a)" transform="translate(0 .136)"/><path d="M17.678 25.406h37.07v-2.885h-37.07zM25.894 57.878c.087-.727.348-3.157-2.696-5.02-3.424-2.096-5.434-4.759-5.434-8.211v-.107" mask="url(#a)" stroke="#000" transform="translate(0 .136)"/><path d="M25.913 31.285c-.036 1.251-.173 3.184-2.852 5.016-3.09 2.114-5.297 4.786-5.297 8.24M25.97 50.607a4.917 4.917 0 0 0-.279-.181c-2.38-1.458-3.778-3.309-3.778-5.71v-.074M25.852 38.722a5.793 5.793 0 0 1-.257.192c-2.12 1.511-3.682 3.328-3.682 5.728M47.354 58c0-.966-.027-3.28 3.016-5.142 3.424-2.097 5.434-4.759 5.434-8.212v-.106" mask="url(#a)" stroke="#000" transform="translate(0 .136)"/><path d="M47.39 31.32c0 .966.393 3.039 3.118 4.981 3.048 2.173 5.296 4.786 5.296 8.24M47.568 50.525c2.38-1.458 4.088-3.408 4.088-5.81v-.072M47.717 38.722c.082.065-.238-.241-.149-.178 2.12 1.511 4.088 3.698 4.088 6.098" mask="url(#a)" stroke="#000" transform="translate(0 .136)"/></g></svg>