<svg viewBox="0 0 250 350" xmlns="http://www.w3.org/2000/svg"><path d="M117.55 238.81h16L173 218.3l1.25 2.64s-15 47.17-29.19 51c-9.57 2.56-14.7 7-20.83 14.17l-6.65-17.75-6.66 17.75c-6.13-7.13-12.27-8.43-20.82-14.17-12.22-8.19-30.41-52.38-30.41-52.38l2.81-3.2 39.06 20.3 15.6 2.24zM123.78 125s15.87-22.43 20.85-25.45c0 0-.62-2.44-25.48-2.44h0c-24.86 0-25.48 2.44-25.48 2.44 5 3 20.85 25.45 20.85 25.45z" stroke="#000" stroke-linejoin="round"/><path d="M123.65 308.04h18.4l7.69-134.84-.4-26.7H90.2l-.18 27.12 6.19 134.42h18.4l6.91-113.08z" fill="#3dadea"/><g stroke="#000"><path d="M132.25 191.94s-3.59 2.9-10.64 2.9h0" fill="none" stroke-linejoin="round"/><path d="M123.65 308.04h18.4l7.69-134.84-.4-26.7H90.2l-.18 27.12 6.19 134.42h18.4l6.91-113.08z" fill="none" stroke-linejoin="round"/><path d="M122.19 19.18l5 17.66L93 41.15V23.84a.7.7 0 0 1 .11-.39h0a.35.35 0 0 1 .28-.17h0a.4.4 0 0 1 .29.12l3.66 3.83s3.55 3.77 7.09 0a53.32 53.32 0 0 0 3.83-5.49c1.37-2 2.86-2.26 4.23-1.94a8.21 8.21 0 0 1 3.09 2.17c4.15 3.82 4.21 3.35 4.51 2.59a19.65 19.65 0 0 0 .61-2l1.06-3.35a.33.33 0 0 1 .18-.05.38.38 0 0 1 .25.02z" fill="#fff" stroke-miterlimit="10"/><path d="M120.51 23.46a5.66 5.66 0 0 1-.35 1.07c-.3.76-.36 1.23-4.51-2.59a8.21 8.21 0 0 0-3.09-2.17c-1.37-.32-2.86-.05-4.23 1.94a53.32 53.32 0 0 1-3.83 5.49c-3.54 3.79-7.09 0-7.09 0L96.19 6.41s-.32-4.33 1.22-4.5 2.64.6 5 2.79 17.83 18.57 17.83 18.57z" fill="#3dadea" stroke-linejoin="round"/><path d="M97.41 27.22s3.55 3.77 7.09 0a53.32 53.32 0 0 0 3.83-5.49c1.37-2 2.86-2.26 4.23-1.94a8.21 8.21 0 0 1 3.09 2.17c4.15 3.82 4.21 3.35 4.51 2.59a19.65 19.65 0 0 0 .61-2" fill="none" stroke-linecap="round" stroke-linejoin="round"/><ellipse cx="110.14" cy="39.21" rx="17.22" ry="2.42" stroke-miterlimit="10" transform="rotate(-7.07 110.104 39.22)"/><g stroke-linejoin="round"><path d="M138.21 49.73L131 51.19a2.34 2.34 0 0 0-1.76 1.5L118 83.85l12.4-.85z" fill="#f4aa4a"/><path d="M118.35 100.62C107.45 99 99.81 95 95.41 90.2a.85.85 0 0 1-.19-.59 3.56 3.56 0 0 0-1.88-3.1 1.8 1.8 0 0 1-.72-.62 28.68 28.68 0 0 1-3.05-10.74 48.46 48.46 0 0 1 0-9.1h0a3.17 3.17 0 0 0 1.93-4.55 4.85 4.85 0 0 0-.44-.65 23.94 23.94 0 0 1 14.06-14.77 23.65 23.65 0 0 1 2.87-.85l7.25-1.71 6.76 57.37z" fill="#f4aa4a"/><path d="M138.21 49.73a32 32 0 0 1 11 20.9c1.59 16.08-9.35 28.6-22.58 30.35-15.64 2.08-27-10.53-29-25.84-1.92-14.76 6.25-28.63 17.62-31.62a.7.7 0 0 1 .83.47l11.34 36.38z" fill="#ffef57"/><path d="M131.74 62.11a7 7 0 0 0 .64 3.49s2.26-2.15 2.64-3.67a7.72 7.72 0 0 0-.18-3.42s-2.93 1.62-3.1 3.6z" fill="#e0913b"/></g></g><path d="M107.54 73.62a2.84 2.84 0 0 1-.07-.72v-1.29a2.79 2.79 0 1 1 5.57.15v1.3a2.77 2.77 0 0 1-.51 1.52 12.76 12.76 0 0 0-4.99-.96zM141.14 74.79c-.34.26-.49-.72-.53-1.18l-.17-1.9a2 2 0 0 1 1.69-2.24 2 2 0 0 1 2.22 1.78l.17 2a2.06 2.06 0 0 1-.26 0 6.66 6.66 0 0 0-3.12 1.54z"/><path d="M134.1 83.12a6.58 6.58 0 0 0-4.16 2.61M145 73.25a6.6 6.6 0 0 0-4.38 2.21M106.44 73.92a11 11 0 0 1 7.84 1.54" fill="none" stroke="#000" stroke-linecap="round" stroke-miterlimit="10" stroke-width="1.7"/><path d="M113.47 73.79a2.09 2.09 0 0 1-1.19-.37l-7.14-4.94a2.08 2.08 0 1 1 2.37-3.42l7.14 4.94a2.08 2.08 0 0 1-1.18 3.79zM139.09 74.52a2.09 2.09 0 0 1-1.24-3.76l5.38-4a2.08 2.08 0 0 1 2.48 3.35l-5.38 4a2.09 2.09 0 0 1-1.24.41z"/><path d="M125.87 84.59s3.4-4.68 7.44-4.81c3.14-.1 2.75 2.25 2.75 2.25" fill="none" stroke="#000" stroke-linecap="round" stroke-miterlimit="10" stroke-width="1.5"/><path d="M134.31 115.4c4.35-.19 5.9 1.6 7.06 3 6.5 8 23.7 79.38 32.77 102.48 0 0-5.85 19.64-21.75 35-4.64 4.49-8.73.94-9.83-4.81-.13 7.56-6.22 10.55-13.88 9.43-48.58-7.07-69-41-69-41 14.51-29.6 26.92-94 34.94-100.47a17.9 17.9 0 0 1 11.92-3.86l13.86.11 7.32 2.12z" fill="#fff"/><path d="M134.31 115.4c4.35-.19 5.9 1.6 7.06 3 6.5 8 23.7 79.38 32.77 102.48 0 0-5.85 19.64-21.75 35-4.64 4.49-8.73.94-9.83-4.81v0c-.13 7.56-6.22 10.55-13.88 9.43-48.58-7.07-69-41-69-41 14.51-29.6 26.92-94 34.94-100.47a17.9 17.9 0 0 1 11.92-3.86l13.35.11 8 1.85 3.07-1.79zM142.56 251.08c-.57-11.82-4.88-96-12.32-116.9" fill="none" stroke="#000" stroke-linejoin="round"/><path d="M131.64 102.82l-3.79 13.85-5.5-13.85s-23.74-.27-28.72-3.29l7.78 16.13c2.11.24 14.33-1.77 16 11.44 1.06 7.08 3.91 16.78 14.71 15.48 11.42-1.37 1.55-26.17 4.78-26.92l7.78-16.13c-5.03 3.02-13.04 3.29-13.04 3.29z" fill="#3dadea"/><path d="M131.64 102.82l-3.79 13.85-5.5-13.85s-23.74-.27-28.72-3.29l7.78 16.13c2.11.24 14.33-1.77 16 11.44 1.06 7.08 3.91 16.78 14.71 15.48 11.42-1.37 1.55-26.17 4.78-26.92l7.78-16.13c-5.03 3.02-13.04 3.29-13.04 3.29z" fill="none" stroke="#000" stroke-linejoin="round"/><ellipse cx="128.75" cy="122.56" fill="#fff" rx="4.74" ry="6.23" stroke="#000" stroke-miterlimit="10" transform="rotate(-5.11 128.7 122.508)"/><ellipse cx="128.75" cy="122.56" fill="none" rx="4.74" ry="6.23" stroke="#000" stroke-linejoin="round" transform="rotate(-5.11 128.7 122.508)"/><path d="M119.99 308.4l1.51 40.09H154.77l-10.18-8.19-.09-33.98z" fill="#fff"/><path d="M119.99 308.4l1.51 40.09H154.77l-10.18-8.19-.09-33.98z" fill="none" stroke="#000" stroke-linejoin="round"/><path d="M144.5 316.99h-24.01l-.38-9.93 24.39-.74z" stroke="#000" stroke-linejoin="round"/><path d="M120.26 303.66l24.29.19a4.3 4.3 0 0 1 4.27 4.28v5.29l-5.82.1-2.74-6.25-3.36 6.35-20.9.38-.07-6a4.3 4.3 0 0 1 4.33-4.34z" fill="#6efff8"/><path d="M120.26 303.66l24.29.19a4.3 4.3 0 0 1 4.27 4.28v5.29l-5.82.1-2.74-6.25-3.36 6.35-20.9.38-.07-6a4.3 4.3 0 0 1 4.33-4.34z" fill="none" stroke="#000" stroke-linejoin="round"/><path d="M93.09 308.4l1.51 40.09h34.28l-11.19-8.19-.08-33.98z" fill="#fff"/><path d="M93.09 308.4l1.51 40.09h34.28l-11.19-8.19-.08-33.98z" fill="none" stroke="#000" stroke-linejoin="round"/><path d="M117.61 316.99H93.59l-.38-9.93 24.4-.74z" stroke="#000" stroke-linejoin="round"/><path d="M93.36 303.66l24.29.19a4.29 4.29 0 0 1 4.27 4.28v5.29l-5.81.1-2.75-6.25-3.36 6.35-20.9.38-.1-6a4.3 4.3 0 0 1 4.36-4.34z" fill="#6efff8"/><path d="M93.36 303.66l24.29.19a4.29 4.29 0 0 1 4.27 4.28v5.29l-5.81.1-2.75-6.25-3.36 6.35-20.9.38-.1-6a4.3 4.3 0 0 1 4.36-4.34z" fill="none" stroke="#000" stroke-linejoin="round"/><path d="M60.41 201.67c-1-2.1-1.61-8-1.61-8 1-1.63 9-3.88 16.08-2.38 7.39 1.58 11.07 6.39 10.67 8.13 0 0-3.55 4.56-4.21 4.93" fill="#3dadea"/><path d="M71 197.79a16.3 16.3 0 0 1 9.5 5.4l.25.3a12.77 12.77 0 0 1 1.75 3.59 17.31 17.31 0 0 0 .61 2l1 4.15 1.38 4.57-.49 1.49a4.52 4.52 0 0 1-1.95 2.3 4.2 4.2 0 0 1-2 .21 8 8 0 0 1-1.92 2.71 3.67 3.67 0 0 1-2.46.77 3.86 3.86 0 0 1-3.52-2.86c-.57 3-2.75 3.73-3.46 3.73a5.1 5.1 0 0 1-3.44-.94 5.7 5.7 0 0 1-1-3.49l-.36.71a3.08 3.08 0 0 1-1 1.34l-.69.35a9.78 9.78 0 0 1-2.53-1.26c-1.18-.73-2.07-4-2.23-5.28a30.81 30.81 0 0 1 1.54-14.24 7.61 7.61 0 0 1 3.02-4.15 15.41 15.41 0 0 1 8-1.4z" fill="#fff"/><g stroke="#000" fill="none" stroke-linecap="round" stroke-linejoin="round"><path d="M60.41 201.67c-1-2.1-1.61-8-1.61-8 1-1.63 9-3.88 16.08-2.38 7.39 1.58 11.07 6.39 10.67 8.13 0 0-3.39 4.52-4 4.88"/><path d="M81.33 204.25A15.94 15.94 0 0 0 71 197.8a15.41 15.41 0 0 0-8 1.4 7.58 7.58 0 0 0-3.08 4.15c-1.29 3.18-1.81 7.29-1.65 12.33.09 3.2 1.06 6.23 2.39 7.18 1.51 1 3.26 2.42 4.57-1.16M80.87 211.85c1.12 5.3 1 10-1.34 12.23a3.79 3.79 0 0 1-6.47-1.94"/><path d="M73.06 220.24c.34 3.73-1.26 5.25-2.83 5.74a4.64 4.64 0 0 1-4.14-.88 7.85 7.85 0 0 1-.69-5.4M81.41 204.29c1.92 3.76 2.36 9.11 4 13 .26.64-.3 1.65-.58 2.29M81 221.72h1c1.25 0 1.73-.45 2.43-1.48l.42-.63"/></g><path d="M200.05 192.71a5.5 5.5 0 0 0 2.84.59 3.58 3.58 0 0 0 2.8-3.24A5.19 5.19 0 0 0 204 186a9.9 9.9 0 0 0-4-2.15c-.5-.15-.81-.27-1.32-.4l-.12.1.44-1.25c.75-2.28-1.88-5-1.88-5-2.38-2-12.34-2-12.34-2s-6 1.79-9.4 12.86A3.7 3.7 0 0 0 176 191c1.78 2.33 5.12 5.93 9.53 6.7.11 0 .13.11.19.11 0 .18.33.44.39.61.41 1.36 1.78 2.12 2.89 3.16a7.93 7.93 0 0 0 4.69 2.13 5.83 5.83 0 0 0 1.87-.42c1.45-.5 2.06-2.68 1.63-4.16l-.06-.37a3.18 3.18 0 0 0 1.67.13c1-.22 1.25-.12 1.71-1a5.15 5.15 0 0 0-.46-5.18zm-10.34.24" fill="#fff"/><path d="M185.2 175.46a19.27 19.27 0 0 0-4.18-3c-1.76.11-7.08 3.12-8.89 8.52-1.9 5.67-1.23 11 .37 11.34 0 0 4.87 1.57 5.34 1.56l.33-.46-.69-.7c-1.29-1.06-2.71-4.13-.63-9.15 2-4.77 6-8.44 7.78-8.41z" fill="#3dadea"/><path d="M185.65 197.63c-3.23-.16-5.77-2.34-7.8-4.48 0 0-3.53-3-1-9.54 1.85-4.81 6.27-8.33 8-8.3" fill="none" stroke="#000" stroke-linecap="round" stroke-linejoin="round"/><path d="M185.39 175.35a17.19 17.19 0 0 0-4.39-2.85c-1.76.11-7.08 3.12-8.89 8.52-1.9 5.67-1.23 11 .37 11.34 0 0 5.24 1.43 5.72 1.41" fill="none" stroke="#000" stroke-linecap="round" stroke-linejoin="round"/><path d="M225.66 143.11l4.66 3.34-3 4.18a4.94 4.94 0 0 1-2.55-.34l-2.31 3s.93 3.19.45 4.54l-4.5 1.33-.39.56-31.47 44-3.6 2a1.08 1.08 0 0 1 0 .16l-2.52 5.62-4.43 2.19a3 3 0 0 1-.76-.31 2.91 2.91 0 0 1-.54-.62l.62-4.88 4.51-4.2.14-.06.77-4.06 31.46-44 .4-.55-.18-4.69c1.11-.89 4.44-1 4.44-1l2.11-3.16a4.94 4.94 0 0 1-1.15-2.31l3-4.18 4.66 3.34z" fill="#96543c"/><path d="M183 205.75a1.08 1.08 0 0 1 0 .16l-2.52 5.62-4.48 2.16a3 3 0 0 1-.76-.31 2.91 2.91 0 0 1-.54-.62l.62-4.88 4.51-4.2.14-.06-.57 3.24.38.27.37.26z" fill="#ccc"/><path d="M225.66 143.11l4.66 3.34-3 4.18a4.94 4.94 0 0 1-2.55-.34l-2.31 3s.93 3.19.45 4.54l-4.5 1.33-.39.56-31.47 44-3.6 2a1.08 1.08 0 0 1 0 .16l-2.52 5.62-4.43 2.19a3 3 0 0 1-.76-.31h0a2.91 2.91 0 0 1-.54-.62l.62-4.88 4.51-4.2.14-.06.77-4.06 31.46-44 .4-.55-.18-4.69c1.11-.89 4.44-1 4.44-1l2.11-3.16a4.94 4.94 0 0 1-1.15-2.31l3-4.18 4.66 3.34z" fill="none" stroke="#000" stroke-linecap="round" stroke-linejoin="round"/><ellipse cx="229.15" cy="137.95" fill="#ccc" rx="9.05" ry="8.64" transform="matrix(.58 -.81 .81 .58 -16.38 244.03)"/><ellipse cx="216.48" cy="155.77" fill="#ccc" rx="4.53" ry="4.32" transform="rotate(-54.41 216.493 155.777)"/><ellipse cx="229.15" cy="137.95" fill="none" rx="9.05" ry="8.64" stroke="#000" stroke-linecap="round" stroke-linejoin="round" transform="matrix(.58 -.81 .81 .58 -16.38 244.03)"/><ellipse cx="216.43" cy="155.74" fill="none" rx="4.59" ry="4.38" stroke="#000" stroke-linecap="round" stroke-linejoin="round" transform="rotate(-54.41 216.44 155.737)"/><path d="M183 205.75l-2.54 1.47a.63.63 0 0 1-.6 0l-.1-.07M179.89 203.56l-.57 2.88a.65.65 0 0 0 .21.56l.1.07M218.89 146.09a14 14 0 0 0 2.49 2.5l.21.15a13.77 13.77 0 0 0 3.18 1.55" fill="none" stroke="#000" stroke-linecap="round" stroke-linejoin="round"/><path d="M181 178.59a7 7 0 0 0 1.44 5c1.85 2.33 5.82 2.26 8.65 1.62l-.9 3.15a4.12 4.12 0 0 0 .49 2.06s-1.51.15-1.44 2.65v.14s-1.52-1-2.83 1.18-1 3.45.1 4.73a43.8 43.8 0 0 0 3.87 3.51 6.8 6.8 0 0 0 3.29 1c2 .12 4.31-1.6 3.57-5 0 0 2.87.81 3.82-1.31s-1-4.68-1-4.68 4 2 5.32-1.47c0 0 1.33-3.22-2-5.86a14.26 14.26 0 0 0-4.83-2s2.42-4.94-3.55-7.31a60.43 60.43 0 0 0-9.61-.68l-1.06.4a5.73 5.73 0 0 0-2.9 2.29z" fill="#fff"/><path d="M184.89 175.33a65.43 65.43 0 0 1 10.28.83 5.8 5.8 0 0 1 3 2.16 5.36 5.36 0 0 1 .8 3.94s-1.48 3.83-2.89 6.58c0 0-2 5.26-4.68 2.47a3.41 3.41 0 0 1-1-3.56l1.5-4.54" fill="none" stroke="#000" stroke-linecap="round" stroke-linejoin="round"/><path d="M198.6 183.41c.51.13.82.25 1.32.4a9.9 9.9 0 0 1 4 2.15 5.19 5.19 0 0 1 1.74 4.1 3.58 3.58 0 0 1-2.8 3.24 6 6 0 0 1-3.75-1.11l-3.65-2" fill="none" stroke="#000" stroke-linecap="round" stroke-linejoin="round"/><path d="M190.63 190.44a1.32 1.32 0 0 0-1 .79c-1.76 3 1.77 4.49 1.77 4.49l3.64 2a6 6 0 0 0 3.76 1.11 2.56 2.56 0 0 0 2.39-2.61 5.32 5.32 0 0 0-1.13-3.51" fill="none" stroke="#000" stroke-linecap="round" stroke-linejoin="round"/><path d="M197.22 198.85a5 5 0 0 1 0 2.39 3.56 3.56 0 0 1-3.48 2.48 6.79 6.79 0 0 1-3.91-1.45l-3.07-2.83a3.7 3.7 0 0 1-.1-5.3 2.13 2.13 0 0 1 2.59-.87M191.2 185.24s-8.79 2.15-10-4.11" fill="none" stroke="#000" stroke-linecap="round" stroke-linejoin="round"/></svg>