<svg viewBox="0 0 250 350" xmlns="http://www.w3.org/2000/svg"><g stroke="#000"><g stroke-linejoin="round"><path d="M117.08 163.9l71.92-7.61 11.54 11.8s.18 7.35-20.21 6.23c-22.76-1.24-24.66 9.45-29.24 10.42-13 2.19-16.92 15.3-25.1 24.2l-8.88-31.51M116.27 163.9L46 156.29l-10.17 11.8s7 8.75 24.86 6.23c13.34-1.89 18.88 8.29 31.89 10.42 11.51 1.88 8.68 15.3 15.87 24.2l7.8-31.51M125.6 125s15.87-22.43 20.85-25.45c0 0-.62-2.44-25.48-2.44h0c-24.86 0-25.48 2.44-25.48 2.44 5 3 20.85 25.45 20.85 25.45z"/><path d="M125.47 308.04h18.4l7.69-134.84-.4-26.7H92.02l-.18 27.12 6.19 134.42h18.39l6.91-113.08z" fill="#3fe04b"/><path d="M134.07 191.94s-3.6 2.9-10.65 2.9h0" fill="none"/><path d="M125.47 308.04h18.4l7.69-134.84-.4-26.7H92.02l-.18 27.12 6.19 134.42h18.39l6.91-113.08z" fill="none"/></g><path d="M124 19.18l5 17.66-34.15 4.31V23.84a.79.79 0 0 1 .11-.39h0a.37.37 0 0 1 .28-.17h0a.36.36 0 0 1 .28.12l3.66 3.83s3.56 3.77 7.1 0a54.92 54.92 0 0 0 3.83-5.49c1.36-2 2.86-2.26 4.23-1.94a8.19 8.19 0 0 1 3.08 2.17c4.15 3.82 4.22 3.35 4.52 2.59a18.48 18.48 0 0 0 .6-2l1.07-3.35a.33.33 0 0 1 .18-.05.38.38 0 0 1 .21.02z" fill="#fff" stroke-miterlimit="10"/><path d="M122.33 23.46a5.66 5.66 0 0 1-.35 1.07c-.3.76-.37 1.23-4.52-2.59a8.19 8.19 0 0 0-3.08-2.17c-1.37-.32-2.87-.05-4.23 1.94a54.92 54.92 0 0 1-3.83 5.49c-3.54 3.79-7.1 0-7.1 0L98 6.41s-.32-4.33 1.21-4.5 2.65.6 5 2.79 17.83 18.57 17.83 18.57z" fill="#3fe04b" stroke-linejoin="round"/><path d="M99.22 27.22s3.56 3.77 7.1 0a54.92 54.92 0 0 0 3.83-5.49c1.36-2 2.86-2.26 4.23-1.94a8.19 8.19 0 0 1 3.08 2.17c4.15 3.82 4.22 3.35 4.52 2.59a18.48 18.48 0 0 0 .6-2" fill="none" stroke-linecap="round" stroke-linejoin="round"/><ellipse cx="111.96" cy="39.21" rx="17.22" ry="2.42" stroke-miterlimit="10" transform="rotate(-7.07 111.895 39.167)"/><path d="M140 49.73l-7.17 1.46a2.34 2.34 0 0 0-1.75 1.5L119.8 83.85l12.42-.85z" fill="#f4aa4a" stroke-linejoin="round"/><path d="M120.17 100.62C109.26 99 101.63 95 97.23 90.2a.85.85 0 0 1-.19-.59 3.58 3.58 0 0 0-1.88-3.1 1.74 1.74 0 0 1-.72-.62 28.5 28.5 0 0 1-3-10.74 48.46 48.46 0 0 1 0-9.1h0a3.18 3.18 0 0 0 1.9-4.54 4.06 4.06 0 0 0-.45-.65 24 24 0 0 1 14.07-14.77 23.65 23.65 0 0 1 2.87-.85l7.24-1.71 6.76 57.37z" fill="#f4aa4a" stroke-linejoin="round"/><path d="M140 49.73a31.88 31.88 0 0 1 11 20.9c1.6 16.08-9.34 28.6-22.57 30.35-15.64 2.08-27.06-10.53-29-25.84-1.92-14.76 6.25-28.63 17.61-31.62a.69.69 0 0 1 .83.47l11.34 36.38z" fill="#ffef57" stroke-linejoin="round"/><path d="M133.56 62.11a6.83 6.83 0 0 0 .64 3.49s2.26-2.15 2.64-3.67a7.72 7.72 0 0 0-.18-3.42s-2.93 1.62-3.1 3.6z" fill="#e0913b" stroke-linejoin="round"/></g><path d="M109.36 73.62a2.45 2.45 0 0 1-.07-.72v-1.29a2.79 2.79 0 1 1 5.57.15v1.3a2.76 2.76 0 0 1-.5 1.52 12.8 12.8 0 0 0-5-.96zM143 74.79c-.33.26-.49-.72-.53-1.18l-.16-1.9a2 2 0 0 1 1.69-2.24 2 2 0 0 1 2.22 1.78l.17 2a2.06 2.06 0 0 1-.26 0 6.74 6.74 0 0 0-3.13 1.54z"/><path d="M135.91 83.12a6.59 6.59 0 0 0-4.15 2.61M146.83 73.25a6.6 6.6 0 0 0-4.38 2.21M108.26 73.92a11 11 0 0 1 7.84 1.54" fill="none" stroke="#000" stroke-linecap="round" stroke-miterlimit="10" stroke-width="1.7"/><path d="M115.28 73.79a2.06 2.06 0 0 1-1.18-.37l-7.1-4.93a2.08 2.08 0 0 1 2.37-3.43l7.1 4.94a2.08 2.08 0 0 1-1.19 3.8zM140.91 74.52a2 2 0 0 1-1.67-.85 2.07 2.07 0 0 1 .43-2.91l5.38-4a2.08 2.08 0 0 1 2.48 3.35l-5.38 4a2.12 2.12 0 0 1-1.24.41z"/><path d="M127.69 84.59s3.39-4.68 7.43-4.81c3.15-.1 2.76 2.25 2.76 2.25" fill="none" stroke="#000" stroke-linecap="round" stroke-miterlimit="10" stroke-width="1.5"/><path d="M144.4 118.17a23.88 23.88 0 0 0-8.26-3.28c.13 2.38.12 3.76.07 7.06l-.44 7.48-10.66.19-6.93-14.62-10.84.18a21 21 0 0 0-9 2.69c-12.16 6.32-45.89 26.71-62.52 50.2 5-4.92 19.14.83 25.67 2 7.24 1.33 15.16-4.65 19.65-3 13.47 4.87 27.92 14.77 43.34 12.55 7.11-1 8.56-10.38 10-14.57h.22c1.49 4.19 3.85 14.57 11 14.57 10.8 0 11-12.32 25.36-12.77 5.42-.18 8.25 4.07 15.55 3 6.75-.95 7.41-6.7 13.78-1.83-15.46-20.59-34.17-35.36-55.99-49.85z" fill="#fff"/><path d="M144.4 118.17a23.88 23.88 0 0 0-8.26-3.28c.13 2.38.12 3.76.07 7.06l-.44 7.48-10.66.19-6.93-14.62-10.84.18a21 21 0 0 0-9 2.69c-12.16 6.32-45.89 26.71-62.52 50.2 5-4.92 19.14.83 25.67 2 7.24 1.33 15.16-4.65 19.65-3 13.47 4.87 27.92 14.77 43.34 12.55 7.11-1 8.56-10.38 10-14.57h.22c1.49 4.19 3.85 14.57 11 14.57 10.8 0 11-12.32 25.36-12.77 5.42-.18 8.25 4.07 15.55 3 6.75-.95 7.41-6.7 13.78-1.83-15.46-20.59-34.17-35.36-55.99-49.85z" fill="none" stroke="#000" stroke-linejoin="round"/><path d="M78.04 166.98l12.56-9.97" fill="none" stroke="#000" stroke-miterlimit="10"/><path d="M160.43 151.68l11.59 15.05" fill="#2ccd5e" stroke="#000" stroke-miterlimit="10"/><path d="M134.67 165.59c-.15-7.67-.54-15.78-1.35-23" fill="none" stroke="#000" stroke-linejoin="round"/><path d="M133.46 102.82l-3.79 13.85-5.51-13.85s-23.73-.27-28.71-3.29l7.78 16.13c2.11.24 14.33-1.77 16 11.44 1.06 7.08 3.91 16.78 14.71 15.48 11.42-1.37 1.55-26.17 4.78-26.92l7.78-16.13c-5.03 3.02-13.04 3.29-13.04 3.29z" fill="#3fe04b"/><path d="M133.46 102.82l-3.79 13.85-5.51-13.85s-23.73-.27-28.71-3.29l7.78 16.13c2.11.24 14.33-1.77 16 11.44 1.06 7.08 3.91 16.78 14.71 15.48 11.42-1.37 1.55-26.17 4.78-26.92l7.78-16.13c-5.03 3.02-13.04 3.29-13.04 3.29z" fill="none" stroke="#000" stroke-linejoin="round"/><path d="M134.75 125.78a4.53 4.53 0 0 1-3.63 3c-2.61.23-5-2.35-5.27-5.78s1.55-6.39 4.16-6.62 5 2.35 5.27 5.78a7.6 7.6 0 0 1-.53 3.64" fill="gray"/><path d="M134.75 125.78a4.53 4.53 0 0 1-3.63 3c-2.61.23-5-2.35-5.27-5.78s1.55-6.39 4.16-6.62 5 2.35 5.27 5.78a7.6 7.6 0 0 1-.53 3.64" fill="#fff" stroke="#000" stroke-miterlimit="10"/><path d="M121.8 308.4l1.52 40.09H156.59l-10.18-8.19-.09-33.98z" fill="#fff"/><path d="M121.8 308.4l1.52 40.09H156.59l-10.18-8.19-.09-33.98z" fill="none" stroke="#000" stroke-linejoin="round"/><path d="M146.32 316.99h-24.01l-.39-9.93 24.4-.74z" stroke="#000" stroke-linejoin="round"/><path d="M122.08 303.66l24.29.19a4.3 4.3 0 0 1 4.27 4.28v5.29l-5.82.1-2.75-6.25-3.35 6.35-20.93.36-.06-6a4.3 4.3 0 0 1 4.35-4.32z" fill="#84ff61"/><path d="M122.08 303.66l24.29.19a4.3 4.3 0 0 1 4.27 4.28v5.29l-5.82.1-2.75-6.25-3.35 6.35-20.93.36-.06-6a4.3 4.3 0 0 1 4.35-4.32z" fill="none" stroke="#000" stroke-linejoin="round"/><path d="M94.91 308.4l1.51 40.09h34.28l-11.19-8.19-.09-33.98z" fill="#fff"/><path d="M94.91 308.4l1.51 40.09h34.28l-11.19-8.19-.09-33.98z" fill="none" stroke="#000" stroke-linejoin="round"/><path d="M119.42 316.99H95.41l-.38-9.93 24.39-.74z" stroke="#000" stroke-linejoin="round"/><path d="M95.18 303.66l24.29.19a4.3 4.3 0 0 1 4.27 4.28v5.29l-5.81.1-2.75-6.25-3.36 6.35-20.9.38-.07-6a4.3 4.3 0 0 1 4.33-4.34z" fill="#84ff61"/><path d="M95.18 303.66l24.29.19a4.3 4.3 0 0 1 4.27 4.28v5.29l-5.81.1-2.75-6.25-3.36 6.35-20.9.38-.07-6a4.3 4.3 0 0 1 4.33-4.34z" fill="none" stroke="#000" stroke-linejoin="round"/><path d="M62.23 201.67c-1-2.1-1.61-8-1.61-8 1-1.63 9-3.88 16.07-2.38 7.4 1.58 11.07 6.39 10.67 8.13 0 0-3.54 4.56-4.2 4.93" fill="#3fe04b"/><path d="M72.85 197.79a16.25 16.25 0 0 1 9.5 5.4l.25.3a12.51 12.51 0 0 1 1.75 3.59 19.68 19.68 0 0 0 .62 2l1 4.15 1.38 4.57-.53 1.48a4.49 4.49 0 0 1-2 2.3 4.15 4.15 0 0 1-2 .21 8 8 0 0 1-1.92 2.71 3.67 3.67 0 0 1-2.46.77 3.86 3.86 0 0 1-3.52-2.86c-.57 3-2.75 3.73-3.46 3.73a5.08 5.08 0 0 1-3.44-.94 5.64 5.64 0 0 1-1-3.49l-.36.71a3.08 3.08 0 0 1-1 1.34l-.69.35a9.78 9.78 0 0 1-2.53-1.26c-1.18-.73-2.08-4-2.24-5.28a30.8 30.8 0 0 1 1.55-14.24 7.63 7.63 0 0 1 3.07-4.15 15.44 15.44 0 0 1 8.03-1.39z" fill="#fff"/><g stroke="#000" fill="none" stroke-linecap="round" stroke-linejoin="round"><path d="M62.23 201.67c-1-2.1-1.61-8-1.61-8 1-1.63 9-3.88 16.07-2.38 7.4 1.58 11.07 6.39 10.67 8.13 0 0-3.38 4.52-4 4.88"/><path d="M83.14 204.25a15.92 15.92 0 0 0-10.34-6.45 15.4 15.4 0 0 0-8 1.4 7.58 7.58 0 0 0-3.08 4.15c-1.29 3.18-1.81 7.29-1.66 12.33.1 3.2 1.07 6.23 2.4 7.18 1.51 1 3.25 2.42 4.57-1.16M82.69 211.85c1.11 5.3 1 10-1.35 12.23a3.79 3.79 0 0 1-6.47-1.94"/><path d="M74.88 220.24c.34 3.73-1.26 5.25-2.83 5.74a4.63 4.63 0 0 1-4.14-.88 7.8 7.8 0 0 1-.69-5.4M83.23 204.29c1.92 3.76 2.36 9.11 4 13 .27.64-.29 1.65-.57 2.29M82.8 221.72h1c1.25 0 1.73-.45 2.43-1.48l.42-.63"/></g><path d="M201.87 192.71a5.5 5.5 0 0 0 2.84.59 3.57 3.57 0 0 0 2.79-3.24 5.22 5.22 0 0 0-1.73-4.1 9.88 9.88 0 0 0-4-2.15c-.5-.15-.8-.27-1.31-.4l-.12.1c.26-.77.43-1.25.43-1.25.75-2.28-1.87-5-1.87-5-2.38-2-12.34-2-12.34-2s-6 1.79-9.4 12.86a3.7 3.7 0 0 0 .74 2.94c1.78 2.33 5.11 5.93 9.53 6.7.11 0 .13.11.19.11 0 .18.33.44.38.61.41 1.36 1.79 2.12 2.9 3.16a7.9 7.9 0 0 0 4.69 2.13 5.83 5.83 0 0 0 1.86-.42c1.46-.5 2.07-2.68 1.63-4.16v-.37a3.18 3.18 0 0 0 1.67.13c1-.22 1.25-.12 1.71-1a5.2 5.2 0 0 0-.59-5.24zm-10.34.24" fill="#fff"/><path d="M187 175.46a19.27 19.27 0 0 0-4.18-3c-1.76.11-7.09 3.12-8.9 8.52-1.9 5.67-1.22 11 .38 11.34 0 0 4.87 1.57 5.34 1.56l.33-.46-.69-.7c-1.29-1.06-2.71-4.13-.64-9.15 2-4.77 6-8.44 7.78-8.41z" fill="#3fe04b"/><path d="M187.47 197.63c-3.24-.16-5.77-2.34-7.8-4.48 0 0-3.54-3-1-9.54 1.86-4.81 6.27-8.33 8-8.3" fill="none" stroke="#000" stroke-linecap="round" stroke-linejoin="round"/><path d="M187.2 175.35a17.2 17.2 0 0 0-4.36-2.85c-1.76.11-7.09 3.12-8.9 8.52-1.9 5.67-1.22 11 .38 11.34 0 0 5.24 1.43 5.71 1.41" fill="none" stroke="#000" stroke-linecap="round" stroke-linejoin="round"/><path d="M227.47 143.11l4.66 3.34-3 4.18a4.92 4.92 0 0 1-2.55-.34l-2.31 3s.93 3.19.45 4.54l-4.5 1.33-.4.56-31.46 44-3.6 2v.16l-2.52 5.62-4.42 2.16a3 3 0 0 1-.76-.31 2.66 2.66 0 0 1-.53-.62l.62-4.88 4.5-4.2.15-.06.77-4.06 31.46-44 .4-.55-.19-4.69c1.12-.89 4.45-1 4.45-1l2.1-3.16a5 5 0 0 1-1.14-2.31l3-4.18 4.66 3.34z" fill="#96543c"/><path d="M184.77 205.75v.16l-2.52 5.62-4.42 2.16a3 3 0 0 1-.76-.31 2.66 2.66 0 0 1-.53-.62l.62-4.88 4.5-4.2.15-.06-.57 3.24.37.27.37.26z" fill="#ccc"/><path d="M227.47 143.11l4.66 3.34-3 4.18a4.92 4.92 0 0 1-2.55-.34l-2.31 3s.93 3.19.45 4.54l-4.5 1.33-.4.56-31.46 44-3.6 2v.16l-2.52 5.62-4.42 2.16a3 3 0 0 1-.76-.31h0a2.66 2.66 0 0 1-.53-.62l.62-4.88 4.5-4.2.15-.06.77-4.06 31.46-44 .4-.55-.19-4.69c1.12-.89 4.45-1 4.45-1l2.1-3.16a5 5 0 0 1-1.14-2.31l3-4.18 4.66 3.34z" fill="none" stroke="#000" stroke-linecap="round" stroke-linejoin="round"/><ellipse cx="230.97" cy="137.95" fill="#ccc" rx="9.05" ry="8.64" transform="rotate(-54.41 230.994 137.948)"/><ellipse cx="218.29" cy="155.77" fill="#ccc" rx="4.53" ry="4.32" transform="rotate(-54.41 218.312 155.778)"/><ellipse cx="230.97" cy="137.95" fill="none" rx="9.05" ry="8.64" stroke="#000" stroke-linecap="round" stroke-linejoin="round" transform="rotate(-54.41 230.994 137.948)"/><ellipse cx="218.24" cy="155.74" fill="none" rx="4.59" ry="4.38" stroke="#000" stroke-linecap="round" stroke-linejoin="round" transform="rotate(-54.41 218.259 155.738)"/><path d="M184.77 205.75l-2.55 1.47a.61.61 0 0 1-.59 0l-.1-.07M181.71 203.56l-.57 2.88a.63.63 0 0 0 .21.56l.1.07M220.71 146.09a13.67 13.67 0 0 0 2.49 2.5l.21.15a13.83 13.83 0 0 0 3.17 1.55" fill="none" stroke="#000" stroke-linecap="round" stroke-linejoin="round"/><path d="M182.81 178.59a7.09 7.09 0 0 0 1.44 5c1.86 2.33 5.83 2.26 8.66 1.62l-.9 3.15a4.12 4.12 0 0 0 .49 2.06s-1.52.15-1.45 2.65v.14s-1.51-1-2.82 1.18-1 3.45.1 4.73a43.8 43.8 0 0 0 3.87 3.51 6.8 6.8 0 0 0 3.29 1c2 .12 4.3-1.6 3.56-5 0 0 2.88.81 3.83-1.31s-1-4.68-1-4.68 4 2 5.31-1.47c0 0 1.34-3.22-2-5.86a14.26 14.26 0 0 0-4.83-2s2.42-4.94-3.55-7.31a60.43 60.43 0 0 0-9.61-.68l-1.07.4a5.82 5.82 0 0 0-2.9 2.29z" fill="#fff"/><path d="M186.71 175.33a65.52 65.52 0 0 1 10.28.83 5.77 5.77 0 0 1 2.94 2.16 5.27 5.27 0 0 1 .8 3.94s-1.47 3.83-2.88 6.58c0 0-2 5.26-4.68 2.47a3.41 3.41 0 0 1-1-3.56l1.5-4.54" fill="none" stroke="#000" stroke-linecap="round" stroke-linejoin="round"/><path d="M200.42 183.41c.51.13.81.25 1.31.4a9.88 9.88 0 0 1 4 2.15 5.22 5.22 0 0 1 1.73 4.1 3.57 3.57 0 0 1-2.79 3.24 6.07 6.07 0 0 1-3.76-1.11l-3.64-2" fill="none" stroke="#000" stroke-linecap="round" stroke-linejoin="round"/><path d="M192.45 190.44a1.32 1.32 0 0 0-1 .79c-1.76 3 1.76 4.49 1.76 4.49l3.65 2a6 6 0 0 0 3.75 1.11 2.56 2.56 0 0 0 2.4-2.61 5.37 5.37 0 0 0-1.13-3.51" fill="none" stroke="#000" stroke-linecap="round" stroke-linejoin="round"/><path d="M199 198.85a5.08 5.08 0 0 1 0 2.39 3.56 3.56 0 0 1-3.48 2.48 6.84 6.84 0 0 1-3.92-1.45c-.87-.82-2.18-2-3.06-2.83a3.7 3.7 0 0 1-.11-5.3 2.15 2.15 0 0 1 2.6-.87M193 185.24s-8.78 2.15-10-4.11" fill="none" stroke="#000" stroke-linecap="round" stroke-linejoin="round"/></svg>