<svg version="1.1" xmlns="http://www.w3.org/2000/svg" width="20" height="20" class="icon___1RbTs" viewBox="0 0 24 24"><g fill="currentColor" fill-rule="evenodd"><path d="M12.024 18.364a6.051 6.051 0 0 1-5.58-8.372l2.723 2.174 2.894-4.951 3.182 4.999 2.37-2.2a6.05 6.05 0 0 1-5.589 8.35m6.705-10.566l-.668-.988-2.411 2.24-3.663-5.755-3.392 5.802L5.89 6.934l-.616.933a8.052 8.052 0 0 0-1.335 4.453c0 4.458 3.627 8.086 8.086 8.086 4.459 0 8.086-3.628 8.086-8.086 0-1.62-.478-3.184-1.381-4.522"></path><path d="M12.596 12.566l-.571-.386-.571.385c-1.793 1.207-2.412 3.194-2.5 3.506h2.176c.171-.376.456-.884.896-1.335.338.32.752.782 1.031 1.335h2.184c-.594-2.097-2.561-3.448-2.645-3.505"></path></g></svg>